<svg version="1.1" id="Layer_1" xmlns="http://www.w3.org/2000/svg" xmlns:xlink="http://www.w3.org/1999/xlink" x="0px" y="0px"
	 width="800px" height="800px" viewBox="0 0 800 800" style="enable-background:new 0 0 800 800;" xml:space="preserve">
<style type="text/css">
<![CDATA[
	.st0{fill:#AF8EA5;}
	.st1{fill:#E2D3CC;}
	.st2{fill:#E2E1C9;}
	.st3{fill:#4A0F60;}
	.st4{display:none;fill:#CB8FAD;}
	.st5{fill:#4C3D3B;}
	.st6{fill:#E796DB;}
	.st7{fill:#4D2560;}
	.st8{fill:#E8E8DA;}
	.st9{fill:#E8E9EB;}
	.st10{fill:#EAD4B5;}
	.st11{fill:#EADDCE;}
	.st12{fill:#895F58;}
	.st13{display:inline;fill:#8E4989;}
	.st14{fill:#EFEFED;}
	.st15{fill:#BBBCAC;}
	.st16{fill:#595958;}
	.st17{fill:#8D59B2;}
	.st18{fill:#8E4989;}
	.st19{fill:#BF5AA5;}
	.st20{display:inline;fill-rule:evenodd;clip-rule:evenodd;fill:#8E4989;}
	.st21{fill:#C6AEA8;}
	.st22{fill:#C6B6AC;}
	.st23{fill:#FCFBE0;}
	.st24{fill:#FEF8CB;}
	.st25{fill:#FEFFF3;}
	.st26{fill:#61235A;}
	.st27{fill:#FFD385;}
	.st28{fill:#FFDEA9;}
	.st29{fill:#FFF6B2;}
	.st30{fill:#62347F;}
	.st31{fill:#630F5D;}
	.st32{fill:#633963;}
	.st33{fill:#9B7691;}
	.st34{fill:#CBCED3;}
	.st35{fill:#CC9ABA;}
	.st36{display:inline;}
	.st37{fill:#D3C8C2;}
	.st38{fill:#D6D7D8;}
	.st39{fill:#3F211E;}
	.st40{display:none;}
	.st41{fill:#727271;}
	.st42{fill:#755945;}
	.st43{fill:#756260;}
	.st44{fill:#A5A598;}
]]>
</style>
<g>
	<rect class="st4" width="800" height="800"/>
	<g class="st40">
		
			<image style="display:inline;overflow:visible;opacity:0.75;" width="2504" height="2547" xlink:href="1BCB65B9.png"  transform="matrix(0.24 0 0 0.24 101.5596 129.3867)">
		</image>
		<g class="st36">
			<g>
				<polygon class="st42" points="400,526.4 352.1,447 345.4,514.9 				"/>
				<path class="st42" d="M648.6,249.8l30.9-28l-34.4-2.2l19.5-23.3l-27-1.4l-2.2-30.8l-33.9,13.3v-26.8l-28.6,8.7l-1-16l-34,10.2
					l-21.8,23.9l-13.5,37.2l-54.8-14.8l-47.9-8l-47.9,8l-54.8,14.8l-13.5-37.2L262,153.6l-34-10.2l-1,16l-28.6-8.7v26.8l-33.9-13.3
					l-2.2,30.8l-27,1.4l19.5,23.3l-34.4,2.2l30.9,28l-30.9,6.6l27.6,33.8l-25.8-7.5l37.8,52.2l37.2,8.4l-19.4-4.4l-23.4,100.3
					l4.2,77.4l15.4,38.1l17.3,42.2l34.6,43.3l5.5-21.2l13.3,33.2l6.4-20l7,32.1l20.6-17.5l-11.5,30.9l17.4-8.4l3.9,14.8l21.6-6.9
					l10.2,35.3l10.7-42l6.8,36.5l8.4-13.9l53.9-2.4l53.9,2.4l-10.8-17.9l19.1,31.9l6.8-36.5l10.7,42l10.2-35.3l21.6,6.9l9.8-37.3
					l20.6,17.5l7-32.1l6.4,20l13.3-33.2l5.4,21.2l34.6-43.3l17.3-42.2l15.4-38.1l4.2-77.4L622.1,339l-19.4,4.4l37.2-8.4l37.8-52.2
					l-25.8,7.5l27.6-33.8L648.6,249.8z M440.3,628.8l-8.6-4.2l14.8,7.3l19-7.5l-3.2,1.3l-15.8,6.2L440.3,628.8z M353.5,631.9
					l-15.8-6.2l-1.5-0.6L353.5,631.9l14.8-7.3l-8.6,4.2L353.5,631.9z M352.1,406.5l-16.7,32.7l9-17.7l-28.2,6.1l0,0c0,0,0,0,0,0l0,0
					l28.2-6.1L352.1,406.5z M376.9,488.2l23.1,38.3l23.1-38.3l24.8-41.1L400,526.4l54.6-11.6l0,0l-37.3,7.9l-17.3,3.7l-17.3-3.7
					l-37.3-7.9l-4.3,43.7l11-111.6l-25,43.1l1.1-2l23.8-41.1L376.9,488.2z M400,600.6l-7.8-14.8l-6.5-12.5L400,600.6l14.3-27.3
					l-6.5,12.5L400,600.6z M483.7,427.7C483.7,427.7,483.7,427.7,483.7,427.7L483.7,427.7l-28.2-6.1l0,0L483.7,427.7L483.7,427.7z
					 M516.6,503.6l-10.9-21.5l25.4,50.1L516.6,503.6z M280.7,591.4L258,570.7l45.4,41.4L280.7,591.4z M519.3,591.4l-22.7,20.7
					l45.4-41.4L519.3,591.4z M463.6,267L400,249.8L336.4,267l-79.3,21.4L400,249.8l142.9,38.6L463.6,267z"/>
				<polygon class="st42" points="532.8,677.7 521.3,646.9 515.4,669.4 				"/>
			</g>
		</g>
	</g>
	<g class="st40">
		<path class="st13" d="M397.8,762.2h0.7v-0.9c0-0.9,0.1-1.6,0.3-2.2c0.2-0.5,0.6-0.9,1.2-1.2c0.6-0.2,1.3-0.4,2.3-0.4
			c1.7,0,2.6,0.4,2.6,1.3c0,0.3-0.1,0.5-0.3,0.7c-0.2,0.2-0.4,0.3-0.6,0.3c-0.1,0-0.3,0-0.6-0.1c-0.3,0-0.5-0.1-0.7-0.1
			c-0.5,0-0.9,0.2-1,0.5c-0.1,0.3-0.2,0.8-0.2,1.3v0.7h0.7c1.1,0,1.7,0.3,1.7,1c0,0.5-0.1,0.8-0.4,0.9c-0.3,0.1-0.7,0.2-1.2,0.2
			h-0.7v7.8c0,0.6-0.1,1-0.4,1.3c-0.3,0.3-0.6,0.5-1.1,0.5c-0.4,0-0.8-0.2-1-0.5c-0.3-0.3-0.4-0.7-0.4-1.3v-7.8h-0.8
			c-0.4,0-0.8-0.1-1-0.3c-0.2-0.2-0.4-0.4-0.4-0.8C396.3,762.6,396.8,762.2,397.8,762.2"/>
		<path class="st13" d="M407.3,769.7v2.4c0,0.6-0.1,1-0.4,1.3c-0.3,0.3-0.6,0.4-1.1,0.4c-0.4,0-0.8-0.1-1-0.5
			c-0.3-0.3-0.4-0.7-0.4-1.3V764c0-1.3,0.5-2,1.4-2c0.5,0,0.8,0.2,1.1,0.5c0.2,0.3,0.3,0.8,0.4,1.4c0.3-0.6,0.7-1.1,1.1-1.4
			c0.4-0.3,0.9-0.5,1.5-0.5c0.6,0,1.2,0.2,1.8,0.5c0.6,0.3,0.9,0.7,0.9,1.2c0,0.4-0.1,0.7-0.4,0.9c-0.2,0.2-0.5,0.3-0.8,0.3
			c-0.1,0-0.4-0.1-0.8-0.2c-0.4-0.1-0.8-0.2-1.1-0.2c-0.4,0-0.8,0.1-1,0.3c-0.3,0.2-0.5,0.6-0.6,1c-0.2,0.4-0.3,1-0.3,1.6
			C407.4,768,407.3,768.8,407.3,769.7"/>
		<path class="st13" d="M420.8,768.7h-5.7c0,0.7,0.1,1.2,0.4,1.8c0.3,0.5,0.6,0.9,1,1.1c0.4,0.3,0.9,0.4,1.4,0.4c0.3,0,0.7,0,1-0.1
			c0.3-0.1,0.6-0.2,0.8-0.4c0.3-0.2,0.5-0.4,0.8-0.6c0.2-0.2,0.5-0.5,0.9-0.8c0.2-0.1,0.4-0.2,0.6-0.2c0.3,0,0.5,0.1,0.7,0.2
			c0.2,0.2,0.3,0.4,0.3,0.7c0,0.3-0.1,0.6-0.3,0.9c-0.2,0.4-0.5,0.7-0.9,1c-0.4,0.3-0.9,0.6-1.6,0.8c-0.6,0.2-1.4,0.3-2.2,0.3
			c-1.9,0-3.3-0.5-4.4-1.6c-1-1.1-1.6-2.5-1.6-4.4c0-0.9,0.1-1.7,0.4-2.4c0.3-0.7,0.6-1.4,1.1-1.9c0.5-0.5,1.1-0.9,1.8-1.2
			c0.7-0.3,1.5-0.4,2.4-0.4c1.1,0,2.1,0.2,2.9,0.7c0.8,0.5,1.4,1.1,1.8,1.9c0.4,0.8,0.6,1.5,0.6,2.3c0,0.7-0.2,1.2-0.6,1.4
			C422.2,768.6,421.6,768.7,420.8,768.7 M415.1,767h5.3c-0.1-1-0.3-1.7-0.8-2.2c-0.5-0.5-1.1-0.7-1.9-0.7c-0.7,0-1.3,0.2-1.8,0.8
			C415.4,765.3,415.2,766,415.1,767"/>
		<path class="st13" d="M433,768.7h-5.7c0,0.7,0.1,1.2,0.4,1.8c0.3,0.5,0.6,0.9,1,1.1c0.4,0.3,0.9,0.4,1.4,0.4c0.3,0,0.7,0,1-0.1
			c0.3-0.1,0.6-0.2,0.8-0.4c0.3-0.2,0.5-0.4,0.7-0.6c0.2-0.2,0.5-0.5,0.9-0.8c0.2-0.1,0.4-0.2,0.6-0.2c0.3,0,0.5,0.1,0.7,0.2
			c0.2,0.2,0.3,0.4,0.3,0.7c0,0.3-0.1,0.6-0.3,0.9c-0.2,0.4-0.5,0.7-0.9,1c-0.4,0.3-0.9,0.6-1.6,0.8c-0.6,0.2-1.4,0.3-2.2,0.3
			c-1.9,0-3.3-0.5-4.4-1.6c-1-1.1-1.6-2.5-1.6-4.4c0-0.9,0.1-1.7,0.4-2.4c0.3-0.7,0.6-1.4,1.1-1.9c0.5-0.5,1.1-0.9,1.8-1.2
			c0.7-0.3,1.5-0.4,2.4-0.4c1.1,0,2.1,0.2,3,0.7c0.8,0.5,1.4,1.1,1.8,1.9c0.4,0.8,0.6,1.5,0.6,2.3c0,0.7-0.2,1.2-0.6,1.4
			C434.3,768.6,433.7,768.7,433,768.7 M427.2,767h5.3c-0.1-1-0.3-1.7-0.8-2.2c-0.5-0.5-1.1-0.7-1.9-0.7c-0.7,0-1.3,0.2-1.8,0.8
			C427.6,765.3,427.3,766,427.2,767"/>
		<path class="st13" d="M439.4,763.6v0.3c0.5-0.7,1.1-1.2,1.7-1.5c0.6-0.3,1.3-0.5,2-0.5c0.9,0,1.7,0.2,2.5,0.7
			c0.8,0.5,1.4,1.1,1.8,2c0.4,0.9,0.7,2,0.7,3.2c0,0.9-0.1,1.7-0.4,2.5c-0.3,0.8-0.6,1.4-1,1.9c-0.4,0.5-1,0.9-1.6,1.2
			c-0.6,0.3-1.3,0.4-2,0.4c-0.8,0-1.5-0.2-2.1-0.5c-0.6-0.3-1.1-0.8-1.6-1.5v4.4c0,1.3-0.5,1.9-1.4,1.9c-0.6,0-0.9-0.2-1.1-0.5
			c-0.2-0.3-0.3-0.8-0.3-1.5v-12.6c0-0.6,0.1-1,0.4-1.3c0.2-0.3,0.6-0.4,1-0.4c0.4,0,0.8,0.1,1,0.4
			C439.3,762.7,439.4,763.1,439.4,763.6 M445.1,767.9c0-0.8-0.1-1.4-0.4-2c-0.2-0.6-0.6-1-1-1.3c-0.4-0.3-0.9-0.5-1.4-0.5
			c-0.8,0-1.5,0.3-2,1c-0.6,0.6-0.8,1.6-0.8,2.8c0,1.2,0.3,2.1,0.8,2.7c0.6,0.6,1.2,1,2,1c0.5,0,0.9-0.1,1.4-0.4
			c0.4-0.3,0.7-0.7,1-1.3C445,769.4,445.1,768.7,445.1,767.9"/>
		<path class="st13" d="M451,760.6c-0.4,0-0.8-0.1-1-0.4c-0.3-0.3-0.4-0.6-0.4-1.1c0-0.4,0.2-0.8,0.4-1c0.3-0.3,0.6-0.4,1-0.4
			c0.4,0,0.7,0.1,1,0.4c0.3,0.2,0.4,0.6,0.4,1.1c0,0.4-0.1,0.8-0.4,1.1C451.7,760.5,451.4,760.6,451,760.6 M452.5,763.6v8.5
			c0,0.6-0.1,1-0.4,1.3c-0.3,0.3-0.6,0.5-1.1,0.5c-0.4,0-0.8-0.2-1-0.5c-0.3-0.3-0.4-0.7-0.4-1.3v-8.4c0-0.6,0.1-1,0.4-1.3
			c0.3-0.3,0.6-0.4,1-0.4c0.4,0,0.8,0.1,1.1,0.4C452.3,762.7,452.5,763.1,452.5,763.6"/>
		<path class="st13" d="M461.9,772.6l-2.6-4.3l-1.6,1.5v2.3c0,0.6-0.2,1-0.5,1.3c-0.3,0.3-0.6,0.5-1,0.5c-0.5,0-0.8-0.1-1.1-0.5
			c-0.3-0.3-0.4-0.7-0.4-1.3v-12.5c0-0.6,0.1-1.1,0.4-1.5c0.2-0.3,0.6-0.5,1.1-0.5c0.4,0,0.8,0.2,1.1,0.5c0.3,0.3,0.4,0.8,0.4,1.4
			v7.1l3.3-3.5c0.4-0.4,0.7-0.7,0.9-0.9c0.2-0.2,0.5-0.2,0.8-0.2c0.4,0,0.7,0.1,0.9,0.4c0.2,0.2,0.4,0.5,0.4,0.9
			c0,0.4-0.4,1-1.2,1.7l-1.6,1.4l3,4.7c0.2,0.4,0.4,0.6,0.5,0.8c0.1,0.2,0.1,0.4,0.1,0.5c0,0.5-0.1,0.8-0.4,1.1
			c-0.3,0.3-0.6,0.4-1,0.4c-0.4,0-0.6-0.1-0.8-0.3C462.5,773.4,462.2,773.1,461.9,772.6"/>
		<path class="st13" d="M468.3,773.9c-0.4,0-0.8-0.1-1.1-0.4c-0.3-0.3-0.5-0.7-0.5-1.2c0-0.4,0.2-0.8,0.5-1.1
			c0.3-0.3,0.7-0.5,1.1-0.5c0.5,0,0.8,0.2,1.2,0.5c0.3,0.3,0.5,0.7,0.5,1.1c0,0.5-0.2,0.9-0.5,1.2
			C469.1,773.7,468.7,773.9,468.3,773.9"/>
		<path class="st13" d="M482.8,770.3c0,0.4-0.1,0.8-0.3,1.2c-0.2,0.4-0.5,0.8-1,1.2c-0.4,0.4-1,0.7-1.7,0.9
			c-0.7,0.2-1.4,0.3-2.3,0.3c-1.8,0-3.2-0.5-4.2-1.6c-1-1.1-1.5-2.5-1.5-4.2c0-1.2,0.2-2.3,0.7-3.2c0.5-0.9,1.1-1.6,2-2.1
			c0.9-0.5,1.9-0.8,3.1-0.8c0.8,0,1.5,0.1,2.1,0.3c0.6,0.2,1.2,0.5,1.6,0.9c0.4,0.4,0.8,0.7,1,1.1c0.2,0.4,0.4,0.8,0.4,1.1
			c0,0.3-0.1,0.6-0.4,0.9c-0.3,0.2-0.6,0.4-0.9,0.4c-0.2,0-0.4-0.1-0.6-0.2c-0.2-0.1-0.3-0.3-0.5-0.6c-0.4-0.5-0.7-0.9-1.1-1.2
			c-0.4-0.3-0.9-0.4-1.5-0.4c-0.9,0-1.6,0.3-2.1,1c-0.5,0.7-0.8,1.6-0.8,2.8c0,0.6,0.1,1.1,0.2,1.5c0.1,0.5,0.3,0.9,0.6,1.2
			c0.3,0.3,0.6,0.6,0.9,0.7c0.4,0.2,0.8,0.3,1.2,0.3c0.6,0,1.1-0.1,1.5-0.4c0.4-0.3,0.8-0.7,1.1-1.2c0.2-0.3,0.4-0.6,0.6-0.8
			c0.2-0.2,0.5-0.3,0.8-0.3c0.4,0,0.7,0.1,0.9,0.4C482.7,769.7,482.8,770,482.8,770.3"/>
		<path class="st13" d="M495.5,767.9c0,0.9-0.1,1.7-0.4,2.4c-0.3,0.7-0.7,1.4-1.2,1.9c-0.5,0.5-1.1,0.9-1.8,1.2
			c-0.7,0.3-1.5,0.4-2.4,0.4c-0.9,0-1.7-0.1-2.4-0.4c-0.7-0.3-1.3-0.7-1.8-1.2c-0.5-0.5-0.9-1.2-1.2-1.9c-0.3-0.7-0.4-1.5-0.4-2.4
			c0-0.9,0.1-1.7,0.4-2.4c0.3-0.7,0.7-1.4,1.2-1.9c0.5-0.5,1.1-0.9,1.8-1.2c0.7-0.3,1.5-0.4,2.4-0.4c0.9,0,1.7,0.1,2.4,0.4
			c0.7,0.3,1.3,0.7,1.9,1.2c0.5,0.5,0.9,1.2,1.2,1.9C495.3,766.3,495.5,767.1,495.5,767.9 M492.5,767.9c0-1.2-0.3-2.1-0.8-2.8
			c-0.5-0.7-1.2-1-2.1-1c-0.6,0-1.1,0.2-1.5,0.4c-0.4,0.3-0.8,0.7-1,1.3c-0.2,0.6-0.4,1.3-0.4,2c0,0.8,0.1,1.4,0.3,2
			c0.2,0.6,0.6,1,1,1.3c0.4,0.3,0.9,0.5,1.5,0.5c0.9,0,1.6-0.3,2.1-1C492.3,770,492.5,769.1,492.5,767.9"/>
		<path class="st13" d="M506.6,768.2v3.9c0,0.6-0.1,1.1-0.4,1.4c-0.3,0.3-0.6,0.5-1.1,0.5c-0.4,0-0.8-0.2-1.1-0.5
			c-0.3-0.3-0.4-0.8-0.4-1.4v-4.7c0-0.7,0-1.3-0.1-1.7c-0.1-0.4-0.2-0.7-0.4-1c-0.2-0.3-0.6-0.4-1.1-0.4c-1,0-1.6,0.3-1.9,1
			c-0.3,0.7-0.5,1.6-0.5,2.8v4c0,0.6-0.1,1.1-0.4,1.4c-0.3,0.3-0.6,0.5-1.1,0.5c-0.4,0-0.8-0.2-1.1-0.5c-0.3-0.3-0.4-0.8-0.4-1.4
			v-8.4c0-0.5,0.1-1,0.4-1.3c0.3-0.3,0.6-0.4,1-0.4c0.4,0,0.7,0.1,1,0.4c0.3,0.3,0.4,0.6,0.4,1.1v0.3c0.5-0.6,1.1-1.1,1.6-1.3
			c0.6-0.3,1.2-0.4,1.9-0.4c0.7,0,1.4,0.1,1.9,0.4c0.5,0.3,1,0.7,1.3,1.3c0.5-0.6,1-1,1.6-1.3c0.6-0.3,1.2-0.4,1.9-0.4
			c0.8,0,1.5,0.2,2.1,0.5c0.6,0.3,1,0.8,1.3,1.4c0.3,0.5,0.4,1.4,0.4,2.5v5.7c0,0.6-0.1,1.1-0.4,1.4c-0.3,0.3-0.6,0.5-1.1,0.5
			c-0.4,0-0.8-0.2-1.1-0.5c-0.3-0.3-0.4-0.8-0.4-1.4v-4.9c0-0.6,0-1.1-0.1-1.5c0-0.4-0.2-0.7-0.4-1c-0.2-0.3-0.6-0.4-1.1-0.4
			c-0.4,0-0.7,0.1-1.1,0.3c-0.3,0.2-0.6,0.5-0.8,0.9C506.7,766,506.6,766.9,506.6,768.2"/>
		<path class="st20" d="M377.5,774.9c0,0-1.6-0.3-3.2-2c-1.6-1.7-1.8-3.5-1.8-3.5s2,0.5,3.4,0.6c2.5,0.3,4.8,0.1,5.9,0
			c2.3-0.3,3.6-0.7,4.1-0.8c3-0.7,5.8-2.6,5.8-2.6s0.4,2.2-1.3,4.7c-0.7,1-1.9,2.1-3.4,2.8C381.7,776.3,377.5,774.9,377.5,774.9"/>
		<path class="st20" d="M389.6,762.3c-0.6-0.7-2.4-3.8-6.1-4.3c-1-0.1-6,0.1-9,2.9c-0.3,0.3-1.8,1.6-2.3,4.1
			c-0.4,1.9,0.3,4.1,0.3,4.1s3.3,0.7,5.9,0.6c4-0.1,6-0.5,8.1-1.1c3.1-0.9,5.2-2.5,5.2-2.5S390.1,762.9,389.6,762.3 M378.1,767.1
			c-1.7,0.1-3.1-1.2-3.2-2.8c-0.1-1.7,1.2-3.1,2.9-3.2c1.7-0.1,3.1,1.2,3.2,2.8C381,765.5,379.8,767,378.1,767.1 M386.7,764.9
			c-1.1,0.1-2-0.7-2-1.8c-0.1-1.1,0.7-2,1.8-2c1.1-0.1,2,0.7,2,1.8C388.6,763.9,387.7,764.8,386.7,764.9"/>
		<path class="st20" d="M388.1,760.1l1-1.2c0,0,1.3,0.7,2.2,1.9c0.9,1.2,1.4,2.4,1.4,2.4l-1.6,1c0,0-0.5-1.2-1.2-2.2
			C389.1,761.1,388.1,760.1,388.1,760.1"/>
		<path class="st20" d="M391.2,760.9c0.2-0.2,0.7-0.2,0.7-0.5c0-0.4-0.3-1,0.4-1.3c0.7-0.2,0.3,0.2,0.1,0.5
			c-0.2,0.3-0.2,0.5-0.1,0.9c0,0.4-0.3,0.6-0.8,0.8C391,761.6,390.9,761.1,391.2,760.9"/>
		<path class="st20" d="M373.4,761.6c0,0-1.1,1.3-1.4,2.5c-0.3,1.2-0.2,2.6-0.2,2.6l-1.7-0.6c0,0-0.1-1.6,0.7-3
			c0.8-1.5,1.9-2.1,1.9-2.1L373.4,761.6z"/>
		<path class="st20" d="M370.9,763.1c-0.3-0.2-0.3-0.6-0.5-0.9c-0.2-0.3-0.3-0.1-0.8-0.1c-0.5,0-0.5-0.2-0.6-0.3
			c-0.1-0.1-0.2,0.4-0.2,0.4s0.1,0.4,0.6,0.4c0.5,0,0.5-0.2,0.7,0.2c0.2,0.5,0.7,0.8,0.7,0.8S371.2,763.3,370.9,763.1"/>
		<path class="st20" d="M379.8,756.9c2.7-0.7,4.4,0.1,4.4,0.1l-0.1,0.8c0,0-2-0.1-3.6,0.1c-1.6,0.2-2.3,0.7-2.3,0.7l-0.3-0.8
			C377.8,757.8,378.6,757.2,379.8,756.9"/>
		
			<rect x="380.8" y="755.7" transform="matrix(-0.9365 0.3506 -0.3506 -0.9365 1003.0698 1331.2173)" class="st20" width="0.4" height="1.5"/>
		<path class="st20" d="M392.6,758.3c0.4,0,0.7,0.3,0.7,0.7c0,0.4-0.3,0.7-0.6,0.7c-0.4,0-0.7-0.3-0.7-0.6
			C391.9,758.7,392.2,758.4,392.6,758.3"/>
		<path class="st20" d="M368.7,761c0.4,0,0.7,0.3,0.7,0.7c0,0.4-0.3,0.7-0.7,0.7c-0.4,0-0.7-0.3-0.7-0.6
			C368,761.3,368.3,761,368.7,761"/>
		<path class="st20" d="M380.9,754.1c0.6,0,1.1,0.4,1.2,1c0,0.6-0.4,1.1-1,1.2c-0.6,0-1.1-0.4-1.2-1
			C379.8,754.6,380.3,754.1,380.9,754.1"/>
		<path class="st13" d="M293.8,772.3c0,0.7-0.4,1.1-1,1.1c-0.6,0-0.9-0.3-1-0.9c-0.4,0.6-1.2,0.9-1.9,0.9c-2.1,0-3.4-1.9-3.4-3.8
			c0-2,1.1-4.1,3.3-4.1c0.7,0,1.4,0.2,1.9,0.7v-2.8c0-0.7,0.4-1.1,1-1.1c0.6,0,1,0.5,1,1.1V772.3z M290.2,767.5
			c-1.1,0-1.6,1.1-1.6,2.1c0,1,0.5,2.1,1.6,2.1c1.1,0,1.6-1.1,1.6-2.1C291.8,768.5,291.3,767.5,290.2,767.5"/>
		<path class="st13" d="M296.6,770.2c0.1,1,1,1.5,1.9,1.5c1,0,1.8-0.8,2.3-0.8c0.4,0,0.8,0.4,0.8,0.9c0,0.9-1.8,1.7-3.3,1.7
			c-2.3,0-3.8-1.7-3.8-3.9c0-2.1,1.5-4,3.7-4c2.2,0,3.7,2,3.7,3.7c0,0.6-0.3,0.9-0.9,0.9H296.6z M299.8,768.9
			c-0.1-0.9-0.7-1.6-1.6-1.6c-0.9,0-1.5,0.7-1.6,1.6H299.8z"/>
		<path class="st13" d="M306.9,768c-0.4,0-1.2-0.6-1.8-0.6c-0.4,0-0.7,0.2-0.7,0.6c0,0.9,3.6,0.8,3.6,3.1c0,1.4-1.2,2.4-2.9,2.4
			c-1.2,0-2.9-0.7-2.9-1.6c0-0.3,0.3-0.9,0.9-0.9c0.8,0,1.2,0.7,2.1,0.7c0.6,0,0.8-0.2,0.8-0.6c0-0.9-3.6-0.8-3.6-3.1
			c0-1.4,1.2-2.4,2.8-2.4c1,0,2.6,0.5,2.6,1.5C307.7,767.5,307.4,768,306.9,768"/>
		<path class="st13" d="M310.8,763.7c0,0.6-0.5,1.2-1.2,1.2c-0.6,0-1.1-0.6-1.1-1.2c0-0.6,0.5-1.1,1.1-1.1
			C310.3,762.6,310.8,763.1,310.8,763.7 M308.6,766.8c0-0.7,0.4-1.1,1-1.1s1,0.5,1,1.1v5.5c0,0.7-0.4,1.1-1,1.1s-1-0.5-1-1.1V766.8z
			"/>
		<path class="st13" d="M318.8,772.7c0,2.5-1.6,3.7-3.9,3.7c-0.8,0-3.2-0.4-3.2-1.5c0-0.4,0.4-0.9,0.8-0.9c0.7,0,1.4,0.6,2.6,0.6
			c1,0,1.7-0.6,1.7-1.6v-0.5h0c-0.4,0.6-1.1,1-2.1,1c-2.1,0-3.2-1.9-3.2-3.9c0-2.1,1.3-4,3.4-4c0.7,0,1.5,0.3,1.9,0.9
			c0.1-0.5,0.5-0.8,1-0.8c0.6,0,1,0.5,1,1.1V772.7z M315.1,767.5c-1.1,0-1.6,1.1-1.6,2.1c0,1.1,0.5,2.1,1.6,2.1c1.1,0,1.6-1,1.6-2
			C316.8,768.6,316.3,767.5,315.1,767.5"/>
		<path class="st13" d="M320,766.8c0-0.7,0.4-1.1,1-1.1c0.5,0,0.9,0.3,0.9,0.8c0.4-0.6,1-0.8,2-0.8c1.6,0,2.8,1,2.8,2.8v3.9
			c0,0.7-0.4,1.1-1,1.1c-0.6,0-1-0.5-1-1.1v-3.6c0-0.9-0.6-1.4-1.3-1.4c-0.8,0-1.3,0.6-1.3,1.4v3.6c0,0.7-0.4,1.1-1,1.1
			c-0.6,0-1-0.5-1-1.1V766.8z"/>
		<path class="st13" d="M329.5,770.2c0.1,1,1,1.5,1.9,1.5c1,0,1.8-0.8,2.3-0.8c0.4,0,0.8,0.4,0.8,0.9c0,0.9-1.8,1.7-3.3,1.7
			c-2.3,0-3.8-1.7-3.8-3.9c0-2.1,1.5-4,3.7-4c2.2,0,3.7,2,3.7,3.7c0,0.6-0.3,0.9-0.9,0.9H329.5z M332.7,768.9
			c-0.1-0.9-0.7-1.6-1.6-1.6c-0.9,0-1.5,0.7-1.6,1.6H332.7z"/>
		<path class="st13" d="M342.5,772.3c0,0.7-0.4,1.1-1,1.1c-0.6,0-0.9-0.3-1-0.9c-0.4,0.6-1.2,0.9-1.9,0.9c-2.1,0-3.4-1.9-3.4-3.8
			c0-2,1.1-4.1,3.3-4.1c0.7,0,1.4,0.2,1.9,0.7v-2.8c0-0.7,0.4-1.1,1-1.1s1,0.5,1,1.1V772.3z M338.8,767.5c-1.1,0-1.6,1.1-1.6,2.1
			c0,1,0.5,2.1,1.6,2.1c1.1,0,1.6-1.1,1.6-2.1C340.4,768.5,339.9,767.5,338.8,767.5"/>
		<path class="st13" d="M347.5,763.5c0-0.7,0.4-1.1,1-1.1c0.6,0,1,0.5,1,1.1v2.8c0.5-0.5,1.2-0.7,1.9-0.7c2.2,0,3.3,2.1,3.3,4.1
			c0,1.9-1.3,3.8-3.4,3.8c-0.7,0-1.5-0.3-1.9-0.9c-0.1,0.5-0.5,0.9-1,0.9c-0.6,0-1-0.5-1-1.1V763.5z M351.1,771.6
			c1.1,0,1.6-1.1,1.6-2.1c0-1-0.5-2.1-1.6-2.1c-1.1,0-1.6,1-1.6,2C349.5,770.5,350,771.6,351.1,771.6"/>
		<path class="st13" d="M355.1,767.1c-0.1-0.2-0.1-0.3-0.1-0.5c0-0.5,0.5-0.9,1-0.9c0.5,0,0.9,0.3,1,0.7l1.4,3.9l1.5-3.9
			c0.2-0.4,0.5-0.7,1-0.7c0.4,0,1,0.4,1,0.9c0,0.2,0,0.4-0.1,0.5l-3.4,8.5c-0.2,0.4-0.5,0.8-1,0.8c-0.7,0-1.1-0.4-1.1-0.9
			c0-0.2,0.1-0.4,0.1-0.6l0.9-2.2L355.1,767.1z"/>
	</g>
	<g>
		<g>
			<polygon class="st3" points="204.7,219.8 240.2,72.6 265.2,141.9 			"/>
			<polygon class="st7" points="204.7,219.8 211.2,40.9 240.2,72.6 			"/>
			<polygon class="st31" points="211.2,40.9 164.8,48.7 204.7,219.8 			"/>
			<polygon class="st26" points="164.8,48.7 126.8,72.6 204.7,219.8 			"/>
			<polygon class="st30" points="126.8,72.6 79,95.8 204.7,219.8 			"/>
			<polygon class="st32" points="79,95.8 69.1,128.6 204.7,219.8 			"/>
			<polygon class="st30" points="69.1,128.6 204.7,219.8 64.5,168.6 			"/>
			<polygon class="st26" points="64.5,168.6 55.8,187.8 204.7,219.8 			"/>
			<polygon class="st31" points="55.8,187.8 60.2,222.2 204.7,219.8 			"/>
			<polygon class="st7" points="204.7,219.8 125.4,292.7 60.2,222.2 			"/>
			<polygon class="st3" points="60.2,222.2 76.1,281.5 125.4,292.7 			"/>
			<polygon class="st18" points="60.2,222.2 25.9,212.3 76.1,281.5 			"/>
			<polygon class="st32" points="60.2,222.2 23.6,177.3 55.8,187.8 			"/>
			<polygon class="st18" points="23.6,177.3 64.5,168.6 55.8,187.8 			"/>
			<polygon class="st18" points="64.5,168.6 23.6,131.5 69.1,128.6 			"/>
			<polygon class="st41" points="69.1,128.6 43.2,97.7 79,95.8 			"/>
			<polygon class="st17" points="79,95.8 81.9,55 126.8,72.6 			"/>
			<polygon class="st18" points="126.8,72.6 126.8,37.1 164.8,48.7 			"/>
			<polygon class="st3" points="308.6,419.9 320.6,396.4 283.2,404.5 			"/>
			<polygon class="st26" points="260.8,422.6 254,476.9 231.8,435.6 			"/>
			<polygon class="st30" points="301.1,457.5 254,476.9 260.8,422.6 			"/>
			<path class="st32" d="M260.8,422.6c0,0,7.5-18.9,24-18s23.9,15.3,23.9,15.3l-6.8,27.2L260.8,422.6z"/>
			<path class="st0" d="M301.8,447.1l-0.7,10.5c0,0-18.3,4.7-33.7-5.2c-15.4-10-6.6-29.7-6.6-29.7l7.7,2.2L301.8,447.1z"/>
			<polygon class="st19" points="164.8,48.7 166.1,27.4 211.2,40.9 			"/>
			<path class="st3" d="M268.5,424.8c0,0,7.8-15.9,25.6-2.7c0,0,10,13.2,7.8,25c0,0-3.5-4.1-16.5-2.1
				C272.3,447.1,264.3,437.1,268.5,424.8z"/>
			<polygon class="st25" points="330.7,430.2 260.8,551 300.6,577.2 			"/>
			<polygon class="st33" points="330.7,430.2 301.8,447.1 299.1,484.8 			"/>
			<polygon class="st6" points="301.8,447.1 308.6,419.9 318.1,437.6 			"/>
			<polygon class="st44" points="308.6,419.9 330.7,430.2 318.1,437.6 			"/>
			<polygon class="st17" points="308.6,419.9 330.7,376.5 330.7,430.2 			"/>
			<polygon class="st32" points="283.2,404.5 260.8,422.6 231.8,435.6 256.4,383 			"/>
			<polygon class="st31" points="283.2,404.5 284.7,357.6 320.6,396.4 			"/>
			<polygon class="st30" points="283.2,404.5 256.4,383 284.7,357.6 			"/>
			<polygon class="st18" points="254,476.9 220.4,543.3 220.4,494.9 			"/>
			<polygon class="st30" points="239.6,505.4 284.7,509.7 260.8,551 			"/>
			<polygon class="st32" points="239.6,505.4 260.8,551 220.4,543.3 			"/>
			<polygon class="st16" points="254,476.9 231.8,435.6 220.4,494.9 			"/>
			<polygon class="st16" points="254,476.9 284.7,509.7 239.6,505.4 			"/>
			<polygon class="st16" points="220.4,494.9 182,494.9 220.4,543.3 			"/>
			<polygon class="st19" points="320.6,396.4 284.7,357.6 330.7,376.5 			"/>
			<polygon class="st41" points="220.4,494.9 198.8,457.5 182,494.9 			"/>
			<polygon class="st17" points="220.4,494.9 198.8,457.5 231.8,435.6 			"/>
			<polygon class="st17" points="254,476.9 299.1,484.8 284.7,509.7 			"/>
			<path class="st17" d="M254,476.9"/>
			<polygon class="st19" points="301.1,457.5 254,476.9 299.1,484.8 			"/>
			<polygon class="st3" points="394.3,572.4 375.3,597.8 394.3,634 			"/>
			<polygon class="st31" points="375.3,597.8 349.5,584.2 332.6,589.5 341.6,601.6 364.3,604.5 			"/>
			<polygon class="st7" points="332.6,589.5 316.1,578.3 349.5,584.2 			"/>
			<polygon class="st7" points="384,614.3 378.5,635.8 394.3,634 			"/>
			<polygon class="st26" points="375.3,597.8 371.4,568.5 394.3,572.4 			"/>
			<polygon class="st26" points="364.3,604.5 384,614.3 365.5,621.2 			"/>
			<polygon class="st26" points="394.3,634 380.8,664.5 394.3,667.2 			"/>
			<polygon class="st26" points="332.6,675.5 327.7,690.3 354,707 			"/>
			<polygon class="st30" points="384,614.3 378.5,635.8 365.5,621.2 			"/>
			<polygon class="st30" points="332.6,589.5 327.7,606.2 316.1,578.3 			"/>
			<polygon class="st18" points="349.5,584.2 371.4,568.5 375.3,597.8 			"/>
			<polygon class="st16" points="378.5,635.8 380.8,664.5 394.3,634 			"/>
			<polygon class="st41" points="378.5,635.8 352.3,665.9 380.8,664.5 			"/>
			<polygon class="st33" points="352.3,665.9 365.5,621.2 378.5,635.8 			"/>
			<polygon class="st44" points="365.5,621.2 323.4,625.2 352.3,665.9 			"/>
			<polygon class="st17" points="327.7,606.2 365.5,621.2 341.6,601.6 			"/>
			<polygon class="st17" points="349.5,584.2 345.6,569.4 316.1,578.3 			"/>
			<polygon class="st17" points="364.3,604.5 375.3,597.8 384,614.3 			"/>
			<polygon class="st19" points="349.5,584.2 345.6,569.4 371.4,568.5 			"/>
			<polygon class="st19" points="341.6,601.6 332.6,589.5 327.7,606.2 			"/>
			<polygon class="st18" points="341.6,601.6 364.3,604.5 365.5,621.2 			"/>
			<polygon class="st44" points="345.6,569.4 394.3,535.6 371.4,568.5 			"/>
			<polygon class="st41" points="371.4,568.5 394.3,535.6 394.3,572.4 			"/>
			<polygon class="st23" points="330.7,430.2 316.1,578.3 300.6,577.2 			"/>
			<polygon class="st14" points="330.7,430.2 394.3,535.6 321.8,520.3 			"/>
			<polygon class="st15" points="345.6,569.4 371.4,530.8 394.3,535.6 			"/>
			<polygon class="st34" points="371.4,530.8 316.1,578.3 345.6,569.4 			"/>
			<polygon class="st25" points="371.4,530.8 321.8,520.3 316.1,578.3 			"/>
			<polygon class="st25" points="300.6,577.2 323.4,625.2 260.8,584.2 			"/>
			<polygon class="st23" points="300.6,577.2 260.8,551 260.8,584.2 			"/>
			<polygon class="st23" points="260.8,584.2 266.1,649.2 323.4,625.2 			"/>
			<polygon class="st8" points="300.6,577.2 327.7,606.2 323.4,625.2 			"/>
			<polygon class="st8" points="323.4,625.2 332.6,675.5 266.1,649.2 			"/>
			<polygon class="st8" points="260.8,584.2 205.9,594.3 266.1,649.2 			"/>
			<polygon class="st8" points="330.7,430.2 394.3,447.1 363.7,484.8 			"/>
			<polygon class="st2" points="394.3,447.1 394.3,535.6 363.7,484.8 			"/>
			<polygon class="st2" points="300.6,577.2 316.1,578.3 327.7,606.2 			"/>
			<polygon class="st37" points="327.7,606.2 365.5,621.2 323.4,625.2 			"/>
			<polygon class="st22" points="323.4,625.2 352.3,665.9 332.6,675.5 			"/>
			<polygon class="st8" points="220.4,543.3 174,584.2 144.5,482.9 			"/>
			<polygon class="st8" points="220.4,543.3 260.8,584.2 260.8,551 			"/>
			<polygon class="st11" points="220.4,543.3 205.9,594.3 260.8,584.2 			"/>
			<polygon class="st10" points="220.4,543.3 205.9,594.3 174,584.2 			"/>
			<polygon class="st10" points="144.5,482.9 182,494.9 220.4,543.3 			"/>
			<polygon class="st2" points="330.7,430.2 369.5,408.7 330.7,376.5 			"/>
			<polygon class="st2" points="369.5,408.7 394.3,377 394.3,447.1 			"/>
			<polygon class="st14" points="330.7,430.2 369.5,408.7 394.3,447.1 			"/>
			<polygon class="st14" points="369.5,408.7 330.7,376.5 394.3,377 			"/>
			<polygon class="st9" points="330.7,376.5 379.2,337.5 394.3,377 			"/>
			<polygon class="st9" points="330.7,376.5 364.6,300.4 284.7,357.6 			"/>
			<polygon class="st8" points="379.2,337.5 364.6,300.4 330.7,376.5 			"/>
			<polygon class="st34" points="379.2,337.5 394.3,303 394.3,377 			"/>
			<polygon class="st38" points="364.6,300.4 394.3,303 379.2,337.5 			"/>
			<polygon class="st8" points="364.6,300.4 394.3,168.6 394.3,303 			"/>
			<polygon class="st8" points="265.2,141.9 330.7,102.3 258,122 			"/>
			<polygon class="st8" points="330.7,102.3 394.3,91.7 394.3,124.1 			"/>
			<polygon class="st8" points="265.2,141.9 394.3,168.6 204.7,219.8 			"/>
			<polygon class="st14" points="330.7,102.3 394.3,168.6 265.2,141.9 			"/>
			<polygon class="st25" points="330.7,102.3 394.3,124.1 394.3,168.6 			"/>
			<polygon class="st25" points="394.3,168.6 364.6,300.4 310,191.4 			"/>
			<polygon class="st25" points="364.6,300.4 204.7,219.8 284.7,357.6 			"/>
			<polygon class="st23" points="204.7,219.8 310,191.4 364.6,300.4 			"/>
			<polygon class="st23" points="204.7,219.8 158.6,288.6 284.7,357.6 			"/>
			<polygon class="st23" points="158.6,288.6 194.6,422.4 256.4,383 			"/>
			<polygon class="st2" points="256.4,383 231.8,435.6 194.6,422.4 			"/>
			<polygon class="st8" points="194.6,422.4 198.8,457.5 231.8,435.6 			"/>
			<polygon class="st8" points="198.8,457.5 160.7,448.8 182,494.9 			"/>
			<polygon class="st8" points="160.7,448.8 125.4,440.6 144.5,482.9 			"/>
			<polygon class="st8" points="158.6,288.6 125.4,440.6 120.3,329.8 			"/>
			<polygon class="st25" points="158.6,288.6 160.7,448.8 125.4,440.6 			"/>
			<polygon class="st25" points="125.4,440.6 68.6,419.9 120.3,329.8 			"/>
			<polygon class="st24" points="125.4,440.6 98.9,497.8 68.6,419.9 			"/>
			<polygon class="st24" points="160.7,448.8 194.6,422.4 198.8,457.5 			"/>
			<polygon class="st11" points="160.7,448.8 182,494.9 144.5,482.9 			"/>
			<polygon class="st14" points="158.6,288.6 194.6,422.4 160.7,448.8 			"/>
			<polygon class="st8" points="120.3,329.8 125.4,292.7 99.6,286.9 			"/>
			<polygon class="st14" points="99.6,286.9 68.6,419.9 120.3,329.8 			"/>
			<polygon class="st14" points="256.4,383 284.7,357.6 158.6,288.6 			"/>
			<polygon class="st25" points="98.9,497.8 74.1,522.6 68.6,419.9 			"/>
			<polygon class="st29" points="144.5,482.9 125.4,440.6 98.9,497.8 			"/>
			<polygon class="st29" points="98.9,497.8 138.8,603.4 135.1,550.1 			"/>
			<polygon class="st11" points="144.5,482.9 135.1,550.1 98.9,497.8 			"/>
			<polygon class="st10" points="144.5,482.9 174,584.2 135.1,550.1 			"/>
			<polygon class="st27" points="174,584.2 170.5,658.4 205.9,594.3 			"/>
			<polygon class="st1" points="205.9,594.3 196.7,675.9 170.5,658.4 			"/>
			<polygon class="st37" points="205.9,594.3 236,621.8 196.7,675.9 			"/>
			<polygon class="st22" points="236,621.8 233.3,695.4 196.7,675.9 			"/>
			<polygon class="st22" points="233.3,695.4 266.1,649.2 273.2,687.1 			"/>
			<polygon class="st15" points="236,621.8 266.1,649.2 233.3,695.4 			"/>
			<polygon class="st37" points="266.1,649.2 297.6,661.7 273.2,687.1 			"/>
			<polygon class="st1" points="174,584.2 135.1,550.1 138.8,603.4 			"/>
			<polygon class="st28" points="174,584.2 170.5,658.4 138.8,603.4 			"/>
			<polygon class="st37" points="158.6,288.6 125.4,292.7 120.3,329.8 			"/>
			<polygon class="st21" points="204.7,219.8 158.6,288.6 125.4,292.7 			"/>
			<ellipse class="st35" cx="284.8" cy="426.5" rx="4.9" ry="7"/>
			<polygon class="st16" points="332.6,675.5 340.8,671.5 354,707 			"/>
			<polygon class="st16" points="354,707 394.3,697.7 394.3,714.4 			"/>
			<polygon class="st41" points="354,707 358.5,691.2 394.3,697.7 			"/>
			<polygon class="st43" points="358.5,691.2 340.8,671.5 354,707 			"/>
			<polygon class="st44" points="311.7,667.2 273.2,687.1 297.6,661.7 			"/>
			<polygon class="st44" points="311.7,667.2 327.7,690.3 307.8,700.9 			"/>
			<polygon class="st0" points="327.7,690.3 337.1,733 307.8,700.9 			"/>
			<polygon class="st41" points="327.7,690.3 354,707 337.1,733 			"/>
			<polygon class="st44" points="354,707 394.3,753.6 394.3,714.4 			"/>
			<polygon class="st15" points="354,707 337.1,733 394.3,753.6 			"/>
			<polygon class="st15" points="337.1,733 311.7,775.3 302.7,726.9 			"/>
			<polygon class="st35" points="337.1,733 307.8,700.9 302.7,726.9 			"/>
			<polygon class="st44" points="307.8,700.9 273.2,687.1 302.7,726.9 			"/>
			<polygon class="st22" points="311.7,667.2 307.8,700.9 273.2,687.1 			"/>
			<polygon class="st33" points="327.7,690.3 332.6,675.5 311.7,667.2 			"/>
			<polygon class="st15" points="302.7,726.9 273.2,687.1 233.3,695.4 			"/>
			<polygon class="st44" points="337.1,733 394.3,753.6 322.8,756.8 			"/>
			<polygon class="st44" points="196.7,675.9 206,718.5 233.3,695.4 			"/>
			<polygon class="st44" points="233.3,695.4 246.3,744.9 302.7,726.9 			"/>
			<polygon class="st15" points="233.3,695.4 218.1,736.3 241.2,725.2 			"/>
			<polygon class="st15" points="275,735.7 288.5,782.6 302.7,726.9 			"/>
			<polygon class="st15" points="170.5,658.4 188.2,702.5 196.7,675.9 			"/>
			<polygon class="st15" points="170.5,658.4 117.4,629.1 163.3,686.5 			"/>
			<polygon class="st38" points="138.8,603.4 117.4,629.1 170.5,658.4 			"/>
			<polygon class="st8" points="117.4,629.1 94.4,573.1 138.8,603.4 			"/>
			<polygon class="st9" points="94.4,573.1 98.9,497.8 138.8,603.4 			"/>
			<polygon class="st23" points="98.9,497.8 94.4,573.1 74.1,522.6 			"/>
			<polygon class="st22" points="340.8,671.5 380.8,664.5 352.3,665.9 			"/>
			<polygon class="st41" points="340.8,671.5 360.8,682.3 358.5,691.2 			"/>
			<polygon class="st44" points="360.8,682.3 394.3,686.5 358.5,691.2 			"/>
			<polygon class="st33" points="394.3,686.5 394.3,697.7 358.5,691.2 			"/>
			<polygon class="st5" points="380.8,664.5 360.8,682.3 378.5,684.5 			"/>
			<polygon class="st39" points="380.8,664.5 394.3,667.2 378.5,684.5 			"/>
			<polygon class="st5" points="394.3,667.2 394.3,686.5 386.3,675.9 			"/>
			<polygon class="st12" points="386.3,675.9 378.5,684.5 394.3,686.5 			"/>
			<polygon class="st12" points="360.8,682.3 358.5,668.4 380.8,664.5 			"/>
			<polygon class="st42" points="358.5,668.4 340.8,671.5 360.8,682.3 			"/>
      <ellipse transform="matrix(0.983 0.1838 -0.1838 0.983 86.0728 -37.9192)" class="st22" cx="247.5" cy="445.3" rx="4.7" ry="9.6"/>
		</g>
	</g>
</g>
</svg> 