  <svg version="1.1" id="Layer_1" xmlns="http://www.w3.org/2000/svg" xmlns:xlink="http://www.w3.org/1999/xlink" x="0px" y="0px"
	 width="800px" height="800px" viewBox="0 0 800 800" style="enable-background:new 0 0 800 800;" xml:space="preserve">
<style type="text/css">
<![CDATA[
	.st0{fill:#AA9FE2;}
	.st1{fill:#48302C;}
	.st2{fill:#483063;}
	.st3{fill:#4830A2;}
	.st4{fill:#7E91C1;}
	.st5{fill:#AFD8E2;}
	.st6{fill:#E2D3CC;}
	.st7{fill:#E796FF;}
	.st8{fill:#E7DAFF;}
	.st9{fill:#E7FFE6;}
	.st10{fill:#E8E9EB;}
	.st11{fill:#B2967D;}
	.st12{display:inline;fill-rule:evenodd;clip-rule:evenodd;fill:#4830A2;}
	.st13{fill:#87B0C4;}
	.st14{fill:#B7A5BF;}
	.st15{fill:#B7BCCD;}
	.st16{fill:#EFDFCE;}
	.st17{fill:#526386;}
	.st18{fill:#5381FF;}
	.st19{fill:#53B1DB;}
	.st20{fill:#53B1FF;}
	.st21{fill:#8A979B;}
	.st22{fill:#575756;}
	.st23{fill:#8CCADB;}
	.st24{fill:#59617A;}
	.st25{fill:#201659;}
	.st26{fill:#BFD3E2;}
	.st27{fill:#29475E;}
	.st28{fill:#295B60;}
	.st29{fill:#5D679B;}
	.st30{fill:#C0B6E0;}
	.st31{fill:#C0EBF2;}
	.st32{fill:#91A9D8;}
	.st33{fill:#C2C3C7;}
	.st34{fill:#C6B6AC;}
	.st35{display:none;fill:#7E91C1;}
	.st36{fill:#99AAC6;}
	.st37{fill:#603063;}
	.st38{fill:#FEF8CB;}
	.st39{fill:#FEFFE6;}
	.st40{fill:#626BDD;}
	.st41{fill:#62A8C4;}
	.st42{fill:#69524C;}
	.st43{display:inline;}
	.st44{fill:#CFCAE5;}
	.st45{fill:#338A9E;}
	.st46{fill:#394E53;}
	.st47{fill:#6E877F;}
	.st48{fill:#D1D3D4;}
	.st49{fill:#D3C8C2;}
	.st50{fill:#D7E8F7;}
	.st51{fill:#717BC6;}
	.st52{display:none;}
	.st53{fill:#727271;}
	.st54{fill:#A1AFB4;}
	.st55{fill:#755984;}
	.st56{fill:#A5C2D3;}
	.st57{fill:#777FA0;}
	.st58{fill:#0C5B8C;}
	.st59{fill:#A799DB;}
	.st60{fill:#A7BCDB;}
	.st61{fill:#A7D0DB;}
	.st62{fill:#78B9DD;}
	.st63{display:inline;fill:#4830A2;}
	.st64{fill:#DEFCFF;}
	.st65{fill:#444B4C;}
]]>
</style>
<g>
	<rect class="st35" width="800" height="800"/>
	<g class="st52">
		
			<image style="display:inline;overflow:visible;opacity:0.75;" width="1967" height="2580" xlink:href="97032496.png"  transform="matrix(0.24 0 0 0.24 166.0713 97.5195)">
		</image>
		<g class="st43">
			<g>
				<polygon class="st15" points="400,509.3 400,529.5 416.9,525.1 				"/>
				<path class="st15" d="M585.4,432l29.5,4.2l-37.6-35.1l-26.1,8.7l-26,8.6l52.2-17.3l34.5-8.1l-33.8-17l30.2-0.5l-31.8-27.7
					L601,355l-29.5-26.2l23.8-15l-37.4-2.1l31.3-16.4l-37.3-3.6l29.9-21l-15.4-17.4L536.4,272l42.4-26.5l-8.3-3.1l4.9-21.4
					l-3.5-30.5l-8-31.7l-6.4-25.9l-24-21.4l-11.8,5.1l-10.9,16.1l-24.2,25.8l-22.6,24.1l-11.3,12.2l-22.1-6.1l-13.9,23.4l-8.4-25.3
					l-8.3,27.7l15.6,30.3l24.5,47.5L400,214.6v67v46.6v58v66.1v13.5v19.3v24.2l7.6,7.1l9.3,8.7l0,0l14.3-3.7l-31.3,8.1v6.6v10.6
					l21.4,10l-21.4-10v0v-10.6v-6.6l-31.3-8.1l14.3,3.7l0,0l16.9,4.4v-20.1v-24.2v-19.3v-13.5v-66.1v-58v-46.6v-67l-40.1,77.8
					l24.5-47.5l15.6-30.3l-8.3-27.7l-8.4,25.3l-13.9-23.4l-22.1,6.1l-11.3-12.2l-22.6-24.1l-24.2-25.8l-10.9-16.1l-11.8-5.1
					l-24,21.4l-6.4,25.9l-8,31.7l-3.5,30.5l4.8,21.4l-8.3,3.1l42.4,26.5l-8.7-21.5l-6.2-15.3l14.9,36.8l-29.9-18.7l-15.4,17.4
					l29.9,21l-37.3,3.6l31.3,16.4l-37.4,2.1l23.8,15L199,355l24.6-7.1l-31.8,27.7l30.2,0.5l-33.8,17l34.5,8.1l-37.6,35.1l29.5-4.2
					l-18,87.2l41-21.8l35.7,45.9l-20-25.7l-15.8-20.3L210.3,537l27.3,2.8l-6.6,30.3l20-3.5l-11.9,31.9l-0.6,0.4l37.9-1l19,32.2
					l24.4-46.5L304,613.8l25.8,38.4l27.1-39.5l-7.5-43.1l4.2,24l3.3,19.1L341.6,635l35.4,37.9l9.7-16.4l13.3,31.9v-18.3V634v-61.8
					v-13.6v-1.8l0,1.8v13.6V634l23,38.9l35.4-37.9l-15.3-22.3l3.3-19.1l4.2-24l-7.5,43.1l27.1,39.5l25.8-38.4l-15.8-30.1l24.4,46.5
					l19-32.2l37.9,1l-0.6-0.4L549,566.6l20,3.5l-6.6-30.3l27.3-2.8l-27.3-39.5c0,0,27.2,14.5,27.7,14.7l13.3,7.1L585.4,432z
					 M323,318.6C323,318.6,323,318.6,323,318.6l-4.8,1.2l-12.3,3l0,0L323,318.6z M341,338L341,338l0.1,0.1
					C341.1,338.1,341,338,341,338z M335.9,365.2l-0.2-0.1c0,0,0.1,0,0.1,0l0,0l21.6,10.6L335.9,365.2z M364.9,481.4L364.9,481.4
					L364.9,481.4l1.7,21.6L364.9,481.4z M329.4,317C329.4,317,329.4,317,329.4,317l7.2-1.8L329.4,317z M298.6,324.5L298.6,324.5
					l-2.6,0.6L298.6,324.5z M293.7,351.8l-7.5,19.5l-7,18.1L293.7,351.8z M477,318.6L477,318.6l17.1,4.2c0,0,0,0,0,0l-12.3-3
					L477,318.6z M458.9,338.1L458.9,338.1l0.1-0.1C459,338,458.9,338.1,458.9,338.1z M464.2,365.1L464.2,365.1c0,0,0.1,0,0.1,0
					l-0.2,0.1l-21.5,10.5L464.2,365.1z M501.4,324.5L501.4,324.5l2.6,0.6L501.4,324.5z M470.7,317C470.6,317,470.6,317,470.7,317
					l-7.2-1.8L470.7,317z M435.1,481.4L435.1,481.4l-1.7,21.6L435.1,481.4z"/>
				<polygon class="st15" points="400,688.5 413.3,656.6 400,634 400,670.2 				"/>
			</g>
		</g>
	</g>
	<g class="st52">
		<path class="st63" d="M397.8,752.9h0.7V752c0-0.9,0.1-1.6,0.3-2.2c0.2-0.5,0.6-0.9,1.2-1.2c0.6-0.2,1.3-0.4,2.3-0.4
			c1.7,0,2.6,0.4,2.6,1.3c0,0.3-0.1,0.5-0.3,0.7c-0.2,0.2-0.4,0.3-0.6,0.3c-0.1,0-0.3,0-0.6-0.1c-0.3,0-0.5-0.1-0.7-0.1
			c-0.5,0-0.9,0.2-1,0.5c-0.1,0.3-0.2,0.8-0.2,1.3v0.7h0.7c1.1,0,1.7,0.3,1.7,1c0,0.5-0.1,0.8-0.4,0.9c-0.3,0.1-0.7,0.2-1.2,0.2
			h-0.7v7.8c0,0.6-0.1,1-0.4,1.3c-0.3,0.3-0.6,0.5-1.1,0.5c-0.4,0-0.8-0.2-1-0.5c-0.3-0.3-0.4-0.7-0.4-1.3V755h-0.8
			c-0.4,0-0.8-0.1-1-0.3c-0.2-0.2-0.4-0.4-0.4-0.8C396.3,753.3,396.8,752.9,397.8,752.9"/>
		<path class="st63" d="M407.3,760.3v2.4c0,0.6-0.1,1-0.4,1.3c-0.3,0.3-0.6,0.4-1.1,0.4c-0.4,0-0.8-0.1-1-0.5
			c-0.3-0.3-0.4-0.7-0.4-1.3v-8.2c0-1.3,0.5-2,1.4-2c0.5,0,0.8,0.2,1.1,0.5c0.2,0.3,0.3,0.8,0.4,1.4c0.3-0.6,0.7-1.1,1.1-1.4
			c0.4-0.3,0.9-0.5,1.5-0.5c0.6,0,1.2,0.2,1.8,0.5c0.6,0.3,0.9,0.7,0.9,1.2c0,0.4-0.1,0.7-0.4,0.9c-0.2,0.2-0.5,0.3-0.8,0.3
			c-0.1,0-0.4-0.1-0.8-0.2c-0.4-0.1-0.8-0.2-1.1-0.2c-0.4,0-0.8,0.1-1,0.3c-0.3,0.2-0.5,0.6-0.6,1c-0.2,0.4-0.3,1-0.3,1.6
			C407.4,758.7,407.3,759.4,407.3,760.3"/>
		<path class="st63" d="M420.8,759.3h-5.7c0,0.7,0.1,1.2,0.4,1.8c0.3,0.5,0.6,0.9,1,1.1c0.4,0.3,0.9,0.4,1.4,0.4c0.3,0,0.7,0,1-0.1
			c0.3-0.1,0.6-0.2,0.8-0.4c0.3-0.2,0.5-0.4,0.8-0.6c0.2-0.2,0.5-0.5,0.9-0.8c0.2-0.1,0.4-0.2,0.6-0.2c0.3,0,0.5,0.1,0.7,0.2
			c0.2,0.2,0.3,0.4,0.3,0.7c0,0.3-0.1,0.6-0.3,0.9c-0.2,0.4-0.5,0.7-0.9,1c-0.4,0.3-0.9,0.6-1.6,0.8c-0.6,0.2-1.4,0.3-2.2,0.3
			c-1.9,0-3.3-0.5-4.4-1.6c-1-1.1-1.6-2.5-1.6-4.4c0-0.9,0.1-1.7,0.4-2.4c0.3-0.7,0.6-1.4,1.1-1.9c0.5-0.5,1.1-0.9,1.8-1.2
			c0.7-0.3,1.5-0.4,2.4-0.4c1.1,0,2.1,0.2,2.9,0.7c0.8,0.5,1.4,1.1,1.8,1.9c0.4,0.8,0.6,1.5,0.6,2.3c0,0.7-0.2,1.2-0.6,1.4
			C422.2,759.2,421.6,759.3,420.8,759.3 M415.1,757.7h5.3c-0.1-1-0.3-1.7-0.8-2.2c-0.5-0.5-1.1-0.7-1.9-0.7c-0.7,0-1.3,0.2-1.8,0.8
			C415.4,755.9,415.2,756.7,415.1,757.7"/>
		<path class="st63" d="M433,759.3h-5.7c0,0.7,0.1,1.2,0.4,1.8c0.3,0.5,0.6,0.9,1,1.1c0.4,0.3,0.9,0.4,1.4,0.4c0.3,0,0.7,0,1-0.1
			c0.3-0.1,0.6-0.2,0.8-0.4c0.3-0.2,0.5-0.4,0.8-0.6c0.2-0.2,0.5-0.5,0.9-0.8c0.2-0.1,0.4-0.2,0.6-0.2c0.3,0,0.5,0.1,0.7,0.2
			c0.2,0.2,0.3,0.4,0.3,0.7c0,0.3-0.1,0.6-0.3,0.9c-0.2,0.4-0.5,0.7-0.9,1c-0.4,0.3-0.9,0.6-1.6,0.8c-0.6,0.2-1.4,0.3-2.2,0.3
			c-1.9,0-3.3-0.5-4.4-1.6c-1-1.1-1.6-2.5-1.6-4.4c0-0.9,0.1-1.7,0.4-2.4c0.3-0.7,0.6-1.4,1.1-1.9c0.5-0.5,1.1-0.9,1.8-1.2
			c0.7-0.3,1.5-0.4,2.4-0.4c1.1,0,2.1,0.2,2.9,0.7c0.8,0.5,1.4,1.1,1.8,1.9c0.4,0.8,0.6,1.5,0.6,2.3c0,0.7-0.2,1.2-0.6,1.4
			C434.3,759.2,433.7,759.3,433,759.3 M427.2,757.7h5.3c-0.1-1-0.3-1.7-0.8-2.2c-0.5-0.5-1.1-0.7-1.9-0.7c-0.7,0-1.3,0.2-1.8,0.8
			C427.6,755.9,427.3,756.7,427.2,757.7"/>
		<path class="st63" d="M439.4,754.3v0.3c0.5-0.7,1.1-1.2,1.7-1.5c0.6-0.3,1.3-0.5,2-0.5c0.9,0,1.7,0.2,2.5,0.7
			c0.8,0.5,1.4,1.1,1.8,2c0.4,0.9,0.7,2,0.7,3.2c0,0.9-0.1,1.7-0.4,2.5c-0.3,0.8-0.6,1.4-1,1.9c-0.4,0.5-1,0.9-1.6,1.2
			c-0.6,0.3-1.3,0.4-2,0.4c-0.8,0-1.5-0.2-2.1-0.5c-0.6-0.3-1.1-0.8-1.6-1.5v4.4c0,1.3-0.5,1.9-1.4,1.9c-0.6,0-0.9-0.2-1.1-0.5
			c-0.2-0.3-0.3-0.8-0.3-1.5v-12.6c0-0.6,0.1-1,0.4-1.3c0.2-0.3,0.6-0.4,1-0.4c0.4,0,0.8,0.1,1,0.4
			C439.3,753.4,439.4,753.8,439.4,754.3 M445.1,758.5c0-0.8-0.1-1.4-0.4-2c-0.2-0.6-0.6-1-1-1.3c-0.4-0.3-0.9-0.5-1.4-0.5
			c-0.8,0-1.5,0.3-2,1c-0.6,0.6-0.8,1.6-0.8,2.8c0,1.2,0.3,2.1,0.8,2.7c0.6,0.6,1.2,1,2,1c0.5,0,0.9-0.1,1.4-0.4
			c0.4-0.3,0.8-0.7,1-1.3S445.1,759.3,445.1,758.5"/>
		<path class="st63" d="M451,751.3c-0.4,0-0.8-0.1-1-0.4c-0.3-0.3-0.4-0.6-0.4-1.1c0-0.4,0.2-0.8,0.4-1c0.3-0.3,0.6-0.4,1-0.4
			c0.4,0,0.7,0.1,1,0.4c0.3,0.2,0.4,0.6,0.4,1.1c0,0.4-0.1,0.8-0.4,1.1C451.7,751.2,451.4,751.3,451,751.3 M452.5,754.3v8.5
			c0,0.6-0.1,1-0.4,1.3c-0.3,0.3-0.6,0.5-1.1,0.5c-0.4,0-0.8-0.2-1-0.5c-0.3-0.3-0.4-0.7-0.4-1.3v-8.4c0-0.6,0.1-1,0.4-1.3
			c0.3-0.3,0.6-0.4,1-0.4c0.4,0,0.8,0.1,1.1,0.4C452.3,753.4,452.5,753.8,452.5,754.3"/>
		<path class="st63" d="M461.9,763.2l-2.6-4.3l-1.6,1.5v2.3c0,0.6-0.2,1-0.5,1.3c-0.3,0.3-0.6,0.5-1,0.5c-0.4,0-0.8-0.1-1.1-0.5
			c-0.3-0.3-0.4-0.7-0.4-1.3v-12.5c0-0.6,0.1-1.1,0.4-1.5c0.2-0.3,0.6-0.5,1.1-0.5c0.4,0,0.8,0.2,1.1,0.5c0.3,0.3,0.4,0.8,0.4,1.4
			v7.1l3.3-3.5c0.4-0.4,0.7-0.7,0.9-0.9c0.2-0.2,0.5-0.2,0.8-0.2c0.4,0,0.7,0.1,0.9,0.4c0.2,0.2,0.4,0.5,0.4,0.9
			c0,0.4-0.4,1-1.2,1.7l-1.6,1.4l3,4.7c0.2,0.4,0.4,0.6,0.5,0.8c0.1,0.2,0.1,0.4,0.1,0.5c0,0.5-0.1,0.8-0.4,1.1
			c-0.3,0.3-0.6,0.4-1,0.4c-0.4,0-0.6-0.1-0.8-0.3C462.5,764.1,462.2,763.7,461.9,763.2"/>
		<path class="st63" d="M468.3,764.6c-0.4,0-0.8-0.1-1.1-0.4c-0.3-0.3-0.5-0.7-0.5-1.2c0-0.4,0.2-0.8,0.5-1.1
			c0.3-0.3,0.7-0.5,1.1-0.5c0.5,0,0.8,0.2,1.2,0.5c0.3,0.3,0.5,0.7,0.5,1.1c0,0.5-0.2,0.9-0.5,1.2
			C469.1,764.4,468.7,764.6,468.3,764.6"/>
		<path class="st63" d="M482.8,760.9c0,0.4-0.1,0.8-0.3,1.2c-0.2,0.4-0.5,0.8-1,1.2c-0.4,0.4-1,0.7-1.7,0.9
			c-0.7,0.2-1.4,0.3-2.3,0.3c-1.8,0-3.2-0.5-4.2-1.6c-1-1.1-1.5-2.5-1.5-4.2c0-1.2,0.2-2.3,0.7-3.2c0.5-0.9,1.1-1.6,2-2.1
			c0.9-0.5,1.9-0.8,3.2-0.8c0.8,0,1.5,0.1,2.1,0.3c0.6,0.2,1.2,0.5,1.6,0.9c0.4,0.4,0.8,0.7,1,1.1c0.2,0.4,0.3,0.8,0.3,1.1
			c0,0.3-0.1,0.6-0.4,0.9c-0.3,0.2-0.6,0.4-0.9,0.4c-0.2,0-0.4-0.1-0.6-0.2c-0.2-0.1-0.3-0.3-0.5-0.6c-0.4-0.5-0.7-0.9-1.1-1.2
			c-0.4-0.3-0.9-0.4-1.5-0.4c-0.9,0-1.6,0.3-2.1,1c-0.5,0.7-0.8,1.6-0.8,2.8c0,0.6,0.1,1.1,0.2,1.5c0.1,0.5,0.3,0.9,0.6,1.2
			c0.3,0.3,0.6,0.6,0.9,0.7s0.8,0.3,1.2,0.3c0.6,0,1.1-0.1,1.5-0.4c0.4-0.3,0.8-0.7,1.1-1.2c0.2-0.3,0.4-0.6,0.6-0.8
			c0.2-0.2,0.5-0.3,0.8-0.3c0.4,0,0.7,0.1,0.9,0.4C482.7,760.3,482.8,760.6,482.8,760.9"/>
		<path class="st63" d="M495.5,758.6c0,0.9-0.1,1.7-0.4,2.4c-0.3,0.7-0.7,1.4-1.2,1.9c-0.5,0.5-1.1,0.9-1.8,1.2
			c-0.7,0.3-1.5,0.4-2.4,0.4c-0.9,0-1.7-0.1-2.4-0.4c-0.7-0.3-1.3-0.7-1.8-1.2c-0.5-0.5-0.9-1.2-1.2-1.9c-0.3-0.7-0.4-1.5-0.4-2.4
			c0-0.9,0.1-1.7,0.4-2.4c0.3-0.7,0.7-1.4,1.2-1.9c0.5-0.5,1.1-0.9,1.8-1.2c0.7-0.3,1.5-0.4,2.4-0.4c0.9,0,1.7,0.1,2.4,0.4
			c0.7,0.3,1.3,0.7,1.9,1.2c0.5,0.5,0.9,1.2,1.2,1.9C495.3,756.9,495.5,757.7,495.5,758.6 M492.5,758.6c0-1.2-0.3-2.1-0.8-2.8
			c-0.5-0.7-1.2-1-2.1-1c-0.6,0-1.1,0.2-1.5,0.4c-0.4,0.3-0.8,0.7-1,1.3c-0.2,0.6-0.4,1.3-0.4,2c0,0.8,0.1,1.4,0.3,2
			c0.2,0.6,0.6,1,1,1.3c0.4,0.3,0.9,0.5,1.5,0.5c0.9,0,1.6-0.3,2.1-1C492.3,760.7,492.5,759.8,492.5,758.6"/>
		<path class="st63" d="M506.6,758.8v3.9c0,0.6-0.1,1.1-0.4,1.4c-0.3,0.3-0.6,0.5-1.1,0.5c-0.4,0-0.8-0.2-1.1-0.5
			c-0.3-0.3-0.4-0.8-0.4-1.4V758c0-0.7,0-1.3-0.1-1.7c-0.1-0.4-0.2-0.7-0.4-1c-0.2-0.3-0.6-0.4-1.1-0.4c-1,0-1.6,0.3-1.9,1
			c-0.3,0.7-0.5,1.6-0.5,2.8v4c0,0.6-0.1,1.1-0.4,1.4c-0.3,0.3-0.6,0.5-1.1,0.5c-0.4,0-0.8-0.2-1.1-0.5c-0.3-0.3-0.4-0.8-0.4-1.4
			v-8.4c0-0.5,0.1-1,0.4-1.3c0.3-0.3,0.6-0.4,1-0.4c0.4,0,0.7,0.1,1,0.4c0.3,0.3,0.4,0.6,0.4,1.1v0.3c0.5-0.6,1.1-1.1,1.6-1.3
			c0.6-0.3,1.2-0.4,1.9-0.4c0.7,0,1.4,0.1,1.9,0.4c0.5,0.3,1,0.7,1.3,1.3c0.5-0.6,1-1,1.6-1.3c0.6-0.3,1.2-0.4,1.9-0.4
			c0.8,0,1.5,0.2,2.1,0.5c0.6,0.3,1,0.8,1.3,1.4c0.3,0.5,0.4,1.4,0.4,2.5v5.7c0,0.6-0.1,1.1-0.4,1.4c-0.3,0.3-0.6,0.5-1.1,0.5
			c-0.4,0-0.8-0.2-1.1-0.5c-0.3-0.3-0.4-0.8-0.4-1.4v-4.9c0-0.6,0-1.1-0.1-1.5c0-0.4-0.2-0.7-0.4-1c-0.2-0.3-0.6-0.4-1.1-0.4
			c-0.4,0-0.7,0.1-1.1,0.3c-0.3,0.2-0.6,0.5-0.8,0.9C506.7,756.7,506.6,757.6,506.6,758.8"/>
		<path class="st12" d="M377.5,765.6c0,0-1.6-0.3-3.2-2c-1.6-1.7-1.8-3.5-1.8-3.5s2,0.5,3.4,0.6c2.5,0.3,4.8,0.1,5.9,0
			c2.3-0.3,3.6-0.7,4.1-0.8c3-0.7,5.8-2.6,5.8-2.6s0.4,2.2-1.3,4.7c-0.7,1-1.9,2.1-3.4,2.8C381.7,767,377.5,765.6,377.5,765.6"/>
		<path class="st12" d="M389.6,752.9c-0.6-0.7-2.4-3.8-6.1-4.3c-1-0.1-6,0.1-9,2.9c-0.3,0.3-1.8,1.6-2.3,4.1
			c-0.4,1.9,0.3,4.1,0.3,4.1s3.3,0.7,5.9,0.6c4-0.1,6-0.5,8.1-1.1c3.1-0.9,5.2-2.5,5.2-2.5S390.1,753.6,389.6,752.9 M378.1,757.7
			c-1.7,0.1-3.1-1.2-3.2-2.8c-0.1-1.7,1.2-3.1,2.9-3.2c1.7-0.1,3.1,1.2,3.2,2.8C381,756.2,379.8,757.6,378.1,757.7 M386.7,755.6
			c-1.1,0.1-2-0.7-2-1.8c-0.1-1.1,0.7-2,1.8-2c1.1-0.1,2,0.7,2,1.8C388.6,754.6,387.7,755.5,386.7,755.6"/>
		<path class="st12" d="M388.1,750.8l1-1.2c0,0,1.3,0.7,2.2,1.9c0.9,1.2,1.4,2.4,1.4,2.4l-1.6,1c0,0-0.5-1.2-1.2-2.2
			C389.1,751.7,388.1,750.8,388.1,750.8"/>
		<path class="st12" d="M391.2,751.6c0.3-0.2,0.7-0.2,0.7-0.5c0-0.4-0.3-1,0.4-1.3c0.7-0.2,0.3,0.2,0.1,0.5
			c-0.2,0.3-0.2,0.5-0.1,0.9c0,0.4-0.3,0.6-0.8,0.8C391,752.3,390.9,751.7,391.2,751.6"/>
		<path class="st12" d="M373.4,752.3c0,0-1.1,1.3-1.4,2.5c-0.3,1.2-0.2,2.6-0.2,2.6l-1.7-0.6c0,0-0.1-1.6,0.7-3
			c0.8-1.5,1.9-2.1,1.9-2.1L373.4,752.3z"/>
		<path class="st12" d="M370.9,753.8c-0.3-0.2-0.3-0.6-0.5-0.9c-0.2-0.3-0.3-0.1-0.8-0.1c-0.5,0-0.5-0.2-0.6-0.3
			c-0.1-0.1-0.2,0.4-0.2,0.4s0.1,0.4,0.6,0.4c0.5,0,0.5-0.2,0.7,0.2c0.2,0.5,0.7,0.8,0.7,0.8S371.2,753.9,370.9,753.8"/>
		<path class="st12" d="M379.8,747.6c2.7-0.7,4.4,0.1,4.4,0.1l-0.1,0.8c0,0-2-0.1-3.6,0.1c-1.6,0.2-2.3,0.7-2.3,0.7l-0.3-0.8
			C377.8,748.5,378.6,747.9,379.8,747.6"/>
		
			<rect x="380.8" y="746.3" transform="matrix(-0.9365 0.3506 -0.3506 -0.9365 999.795 1313.1285)" class="st12" width="0.4" height="1.5"/>
		<path class="st12" d="M392.6,749c0.4,0,0.7,0.3,0.7,0.7c0,0.4-0.3,0.7-0.6,0.7c-0.4,0-0.7-0.3-0.7-0.6
			C391.9,749.3,392.2,749,392.6,749"/>
		<path class="st12" d="M368.7,751.6c0.4,0,0.7,0.3,0.7,0.7c0,0.4-0.3,0.7-0.7,0.7c-0.4,0-0.7-0.3-0.7-0.6
			C368,752,368.3,751.6,368.7,751.6"/>
		<path class="st12" d="M380.9,744.7c0.6,0,1.1,0.4,1.2,1c0,0.6-0.4,1.1-1,1.2c-0.6,0-1.1-0.4-1.2-1
			C379.8,745.3,380.3,744.8,380.9,744.7"/>
		<path class="st63" d="M293.8,762.9c0,0.7-0.4,1.1-1,1.1c-0.6,0-0.9-0.3-1-0.9c-0.4,0.6-1.2,0.9-1.9,0.9c-2.1,0-3.4-1.9-3.4-3.8
			c0-2,1.1-4.1,3.3-4.1c0.7,0,1.4,0.2,1.9,0.7v-2.8c0-0.7,0.4-1.1,1-1.1c0.6,0,1,0.5,1,1.1V762.9z M290.2,758.1
			c-1.1,0-1.6,1.1-1.6,2.1c0,1,0.5,2.1,1.6,2.1c1.1,0,1.6-1.1,1.6-2.1C291.8,759.2,291.3,758.1,290.2,758.1"/>
		<path class="st63" d="M296.6,760.9c0.1,1,1,1.5,1.9,1.5c1,0,1.8-0.8,2.3-0.8c0.4,0,0.8,0.4,0.8,0.9c0,0.9-1.8,1.7-3.3,1.7
			c-2.3,0-3.8-1.7-3.8-3.9c0-2.1,1.5-4,3.7-4c2.2,0,3.7,2,3.7,3.7c0,0.6-0.3,0.9-0.9,0.9H296.6z M299.8,759.5
			c-0.1-0.9-0.7-1.6-1.6-1.6c-0.9,0-1.5,0.7-1.6,1.6H299.8z"/>
		<path class="st63" d="M306.9,758.6c-0.4,0-1.2-0.6-1.8-0.6c-0.4,0-0.7,0.2-0.7,0.6c0,0.9,3.6,0.8,3.6,3.1c0,1.4-1.2,2.4-2.9,2.4
			c-1.2,0-2.9-0.7-2.9-1.6c0-0.3,0.3-0.9,0.9-0.9c0.8,0,1.2,0.7,2.1,0.7c0.6,0,0.8-0.2,0.8-0.6c0-0.9-3.6-0.8-3.6-3.1
			c0-1.4,1.2-2.4,2.8-2.4c1,0,2.6,0.5,2.6,1.5C307.7,758.2,307.4,758.6,306.9,758.6"/>
		<path class="st63" d="M310.8,754.4c0,0.6-0.5,1.2-1.2,1.2c-0.6,0-1.2-0.6-1.2-1.2c0-0.6,0.5-1.1,1.2-1.1S310.8,753.8,310.8,754.4
			 M308.6,757.5c0-0.7,0.4-1.1,1-1.1c0.6,0,1,0.5,1,1.1v5.5c0,0.7-0.4,1.1-1,1.1c-0.6,0-1-0.5-1-1.1V757.5z"/>
		<path class="st63" d="M318.8,763.4c0,2.5-1.6,3.7-3.9,3.7c-0.8,0-3.2-0.4-3.2-1.5c0-0.4,0.4-0.9,0.8-0.9c0.7,0,1.4,0.6,2.6,0.6
			c1,0,1.7-0.6,1.7-1.6v-0.5h0c-0.4,0.6-1.1,1-2.1,1c-2.1,0-3.2-1.9-3.2-3.9c0-2.1,1.3-4,3.4-4c0.7,0,1.5,0.3,1.9,0.9
			c0.1-0.5,0.5-0.8,1-0.8c0.6,0,1,0.5,1,1.1V763.4z M315.1,758.1c-1.1,0-1.6,1.1-1.6,2.1c0,1.1,0.5,2.1,1.6,2.1c1.1,0,1.6-1,1.6-2
			C316.8,759.3,316.3,758.1,315.1,758.1"/>
		<path class="st63" d="M320,757.5c0-0.7,0.4-1.1,1-1.1c0.5,0,0.9,0.3,0.9,0.8c0.4-0.6,1-0.8,2-0.8c1.6,0,2.8,1,2.8,2.8v3.9
			c0,0.7-0.4,1.1-1,1.1c-0.6,0-1-0.5-1-1.1v-3.6c0-0.9-0.6-1.4-1.3-1.4c-0.8,0-1.3,0.6-1.3,1.4v3.6c0,0.7-0.4,1.1-1,1.1
			c-0.6,0-1-0.5-1-1.1V757.5z"/>
		<path class="st63" d="M329.5,760.9c0.1,1,1,1.5,1.9,1.5c1,0,1.8-0.8,2.3-0.8c0.4,0,0.8,0.4,0.8,0.9c0,0.9-1.8,1.7-3.3,1.7
			c-2.3,0-3.8-1.7-3.8-3.9c0-2.1,1.5-4,3.7-4c2.2,0,3.7,2,3.7,3.7c0,0.6-0.3,0.9-0.9,0.9H329.5z M332.7,759.5
			c-0.1-0.9-0.7-1.6-1.6-1.6c-0.9,0-1.5,0.7-1.6,1.6H332.7z"/>
		<path class="st63" d="M342.5,762.9c0,0.7-0.4,1.1-1,1.1c-0.6,0-0.9-0.3-1-0.9c-0.4,0.6-1.2,0.9-1.9,0.9c-2.1,0-3.4-1.9-3.4-3.8
			c0-2,1.1-4.1,3.3-4.1c0.7,0,1.4,0.2,1.9,0.7v-2.8c0-0.7,0.4-1.1,1-1.1c0.6,0,1,0.5,1,1.1V762.9z M338.8,758.1
			c-1.1,0-1.6,1.1-1.6,2.1c0,1,0.5,2.1,1.6,2.1c1.1,0,1.6-1.1,1.6-2.1C340.4,759.2,339.9,758.1,338.8,758.1"/>
		<path class="st63" d="M347.5,754.2c0-0.7,0.4-1.1,1-1.1c0.6,0,1,0.5,1,1.1v2.8c0.5-0.5,1.2-0.7,1.9-0.7c2.2,0,3.3,2.1,3.3,4.1
			c0,1.9-1.3,3.8-3.4,3.8c-0.7,0-1.5-0.3-1.9-0.9c-0.1,0.5-0.5,0.9-1,0.9c-0.6,0-1-0.5-1-1.1V754.2z M351.1,762.3
			c1.1,0,1.6-1.1,1.6-2.1c0-1-0.5-2.1-1.6-2.1c-1.1,0-1.6,1-1.6,2C349.5,761.2,350,762.3,351.1,762.3"/>
		<path class="st63" d="M355.1,757.8c-0.1-0.2-0.1-0.3-0.1-0.5c0-0.5,0.5-0.9,1-0.9c0.5,0,0.9,0.3,1,0.7l1.4,3.9l1.5-3.9
			c0.2-0.4,0.5-0.7,1-0.7c0.4,0,1,0.4,1,0.9c0,0.2,0,0.4-0.1,0.5l-3.4,8.5c-0.2,0.4-0.5,0.8-1,0.8c-0.7,0-1.1-0.4-1.1-0.9
			c0-0.2,0.1-0.4,0.1-0.6l0.9-2.2L355.1,757.8z"/>
	</g>
	<g>
		<g>
			<path class="st7" d="M300.5,283.4c-7.6,2.5-15.8,0.1-23.6,2.1c-7.6,2-14.8,5.5-22.3,8.1c-1.2,0.4-0.7,2.2,0.5,1.8
				c7-2.4,13.8-5.5,20.9-7.7c8.3-2.6,16.9,0.2,24.9-2.5C302.1,284.9,301.6,283,300.5,283.4z"/>
			<path class="st7" d="M264.4,323.2l-0.6,0.6c-0.9,0.9,0.5,2.2,1.4,1.4l0.6-0.6C266.6,323.7,265.2,322.3,264.4,323.2z"/>
			<path class="st7" d="M166.6,520.1c0,1.4-0.5,2.8-1.1,4c-0.5,1.1,1.1,2.1,1.6,1c0.7-1.5,1.4-3.2,1.4-4.9
				C168.6,518.8,166.7,518.8,166.6,520.1z"/>
			<polygon class="st27" points="272,167.6 319.6,119.6 336.2,144.6 			"/>
			<polygon class="st3" points="319.6,119.6 289,120.9 272,167.6 			"/>
			<polygon class="st2" points="289,120.9 304.3,103.1 319.6,119.6 			"/>
			<polygon class="st37" points="289,120.9 276.2,103.1 304.3,103.1 			"/>
			<polygon class="st1" points="276.2,103.1 273.8,70.5 304.3,103.1 			"/>
			<polygon class="st25" points="276.2,103.1 242.1,63.6 273.8,70.5 			"/>
			<polygon class="st46" points="242.1,63.6 241.1,35.7 273.8,70.5 			"/>
			<polygon class="st2" points="242.1,63.6 208.6,33.2 241.1,35.7 			"/>
			<polygon class="st3" points="208.6,33.2 226.4,14 241.1,35.7 			"/>
			<polygon class="st46" points="208.6,33.2 210.5,7 226.4,14 			"/>
			<polygon class="st27" points="208.6,33.2 178.1,35.9 210.5,7 			"/>
			<polygon class="st3" points="178.1,35.9 190.8,47.5 208.6,33.2 			"/>
			<polygon class="st25" points="178.1,35.9 169.4,70.9 190.8,47.5 			"/>
			<polygon class="st2" points="190.8,127.3 214.8,133 242.1,103.1 			"/>
			<polygon class="st46" points="214.8,133 214.5,182.3 237.1,201.6 			"/>
			<polygon class="st5" points="214.8,133 272,167.6 237.1,201.6 			"/>
			<polygon class="st16" points="214.8,133 242.1,103.1 272,167.6 			"/>
			<polygon class="st6" points="242.1,103.1 276.2,103.1 272,167.6 			"/>
			<polygon class="st44" points="276.2,103.1 289,120.9 272,167.6 			"/>
			<polygon class="st10" points="190.8,127.3 158.7,113.6 186.6,174 			"/>
			<polygon class="st16" points="158.7,113.6 169.4,70.9 190.8,127.3 			"/>
			<polygon class="st49" points="190.8,127.3 214.5,182.3 186.6,174 			"/>
			<polygon class="st34" points="190.8,127.3 214.5,182.3 214.8,133 			"/>
			<polygon class="st15" points="186.6,174 206.6,223.7 214.5,182.3 			"/>
			<polygon class="st54" points="214.5,182.3 237.1,201.6 206.6,223.7 			"/>
			<polygon class="st14" points="206.6,223.7 149.4,187.9 194.9,194.7 			"/>
			<polygon class="st33" points="149.4,187.9 186.6,174 194.9,194.7 			"/>
			<polygon class="st48" points="186.6,174 154,154.8 158.7,113.6 			"/>
			<polygon class="st60" points="154,154.8 160.5,183.7 186.6,174 			"/>
			<polygon class="st57" points="208.6,33.2 242.1,103.1 242.1,63.6 			"/>
			<polygon class="st40" points="242.1,63.6 276.2,103.1 242.1,103.1 			"/>
			<polygon class="st4" points="208.6,33.2 190.8,47.5 242.1,103.1 			"/>
			<polygon class="st45" points="190.8,47.5 169.4,70.9 242.1,103.1 			"/>
			<polygon class="st61" points="280.3,288.2 250.4,295.5 311.3,312.9 			"/>
			<polygon class="st26" points="250.4,295.5 267.7,320.3 305.2,310.5 			"/>
			<polygon class="st51" points="169.4,70.9 190.8,127.3 242.1,103.1 			"/>
			<polygon class="st9" points="267.7,320.3 247.2,331.5 285.3,344.1 			"/>
			<polygon class="st1" points="324.5,333.6 333.4,363.7 304.2,349.4 			"/>
			<polygon class="st2" points="324.5,333.6 338.6,333.9 333.4,363.7 			"/>
			<polygon class="st57" points="250.4,295.5 305.2,282.1 271.7,237.5 			"/>
			<polygon class="st57" points="336.7,251.2 206.6,223.7 237.1,201.6 			"/>
			<polygon class="st49" points="305.2,282.1 316.7,317.2 280.3,288.2 			"/>
			<polygon class="st64" points="305.2,282.1 338.1,280.6 324.5,333.6 316.7,317.2 			"/>
			<polygon class="st8" points="336.7,251.2 338.1,280.6 305.2,282.1 			"/>
			<polygon class="st10" points="336.7,251.2 359.3,282.1 338.1,280.6 			"/>
			<polygon class="st50" points="338.1,280.6 358.2,334.3 324.5,333.6 			"/>
			<polygon class="st61" points="338.1,280.6 359.3,282.1 358.2,334.3 			"/>
			<polygon class="st4" points="359.3,282.1 390.8,299.6 358.2,334.3 			"/>
			<polygon class="st59" points="358.2,334.3 390.8,378 390.8,299.6 			"/>
			<polygon class="st32" points="358.2,334.3 360.9,403.8 390.8,378 			"/>
			<polygon class="st36" points="360.9,403.8 390.8,467.2 390.8,378 			"/>
			<polygon class="st14" points="360.9,403.8 341.8,485.4 390.8,467.2 			"/>
			<polygon class="st48" points="333.4,363.7 358.2,334.3 338.6,333.9 			"/>
			<polygon class="st40" points="336.7,251.2 390.8,236.7 359.3,282.1 			"/>
			<polygon class="st45" points="359.3,282.1 390.8,236.7 390.8,299.6 			"/>
			<polygon class="st29" points="336.7,251.2 390.8,146.2 390.8,236.7 			"/>
			<polygon class="st24" points="336.7,251.2 336.2,144.6 369.7,187.1 			"/>
			<polygon class="st22" points="336.2,144.6 272,167.6 336.7,251.2 			"/>
			<polygon class="st22" points="336.2,144.6 368.2,142.9 369.7,187.1 			"/>
			<polygon class="st42" points="336.2,144.6 349.5,111.4 368.2,142.9 			"/>
			<polygon class="st58" points="368.2,142.9 390.8,146.2 369.7,187.1 			"/>
			<polygon class="st3" points="368.2,142.9 379.6,108.8 390.8,146.2 			"/>
			<polygon class="st28" points="349.5,111.4 319.6,119.6 336.2,144.6 			"/>
			<polygon class="st40" points="272,167.6 237.1,201.6 336.7,251.2 			"/>
			<polygon class="st32" points="305.2,282.1 336.7,251.2 271.7,237.5 			"/>
			<polygon class="st51" points="247.2,331.5 227.6,382.3 151.4,398.1 			"/>
			<polygon class="st32" points="247.2,331.5 265.9,365 237.1,357.8 			"/>
			<polygon class="st0" points="265.9,365 264.7,402.1 283.8,407.7 			"/>
			<polygon class="st54" points="265.9,365 237.1,357.8 264.7,402.1 			"/>
			<polygon class="st54" points="227.6,382.3 221.8,421.5 151.4,398.1 			"/>
			<polygon class="st56" points="227.6,382.3 244.7,444.6 221.8,421.5 			"/>
			<polygon class="st56" points="227.6,382.3 237.1,357.8 264.7,402.1 			"/>
			<polygon class="st31" points="341.8,485.4 342.4,507.7 372.4,474 			"/>
			<polygon class="st39" points="341.8,485.4 296.1,521.3 345.8,535.7 			"/>
			<polygon class="st38" points="296.1,521.3 308.4,564.4 345.8,535.7 			"/>
			<polygon class="st9" points="341.8,485.4 298.1,473.3 296.1,521.3 			"/>
			<polygon class="st31" points="298.1,473.3 360.9,403.8 341.8,485.4 			"/>
			<polygon class="st44" points="296.1,521.3 282.7,505.1 298.1,473.3 			"/>
			<polygon class="st44" points="372.4,474 390.8,485.4 360.9,486.4 			"/>
			<polygon class="st30" points="372.4,474 390.8,467.2 390.8,485.4 			"/>
			<polygon class="st58" points="282.7,505.1 279.5,520 296.1,521.3 			"/>
			<polygon class="st40" points="279.5,520 308.4,564.4 296.1,521.3 			"/>
			<polygon class="st15" points="345.8,535.7 368,565.4 348.6,560.4 			"/>
			<polygon class="st10" points="288.1,370.8 304.3,349.5 285.3,344.1 			"/>
			<polygon class="st48" points="345.8,535.7 348.6,560.4 308.4,564.4 			"/>
			<path class="st15" d="M348.6,560.4"/>
			<polygon class="st47" points="390.8,571.4 348.6,560.4 355.4,576.5 			"/>
			<polygon class="st28" points="355.4,576.5 335.4,584 390.8,580.3 390.8,571.4 			"/>
			<polygon class="st27" points="335.4,584 365.1,595.6 390.8,594.6 390.8,580.3 			"/>
			<polygon class="st14" points="348.6,560.4 335.4,584 355.4,576.5 			"/>
			<polygon class="st15" points="348.6,560.4 308.4,564.4 335.4,584 			"/>
			<polygon class="st38" points="247.2,331.5 285.3,344.1 265.9,365 			"/>
			<polygon class="st9" points="285.3,344.1 288.1,370.8 265.9,365 			"/>
			<polygon class="st31" points="288.1,370.8 283.8,407.7 265.9,365 			"/>
			<polygon class="st5" points="288.1,370.8 296.6,415.6 283.8,407.7 			"/>
			<polygon class="st15" points="288.1,370.8 312.2,390.1 296.6,415.6 			"/>
			<g>
				<path class="st25" d="M267.7,320.3c0,0,35-19.9,49-3.1l7.8,16.3c0,0-11.3,27.3-39.2,10.5C285.3,344.1,276.5,336.9,267.7,320.3z"
					/>
				<g>
					<path class="st45" d="M300.6,321.6c5.3,0,9.9,3.5,11.4,8.4c0.4-1.1,0.5-2.3,0.5-3.6c0-6.6-5.4-11.9-11.9-11.9
						c-6.6,0-11.9,5.3-11.9,11.9c0,1.2,0.2,2.5,0.5,3.6C290.7,325.1,295.2,321.6,300.6,321.6z"/>
					<path class="st31" d="M300.6,338.3c5.3,0,9.9-3.5,11.4-8.4c-1.5-4.8-6-8.4-11.4-8.4c-5.4,0-9.9,3.5-11.4,8.4
						C290.7,334.8,295.2,338.3,300.6,338.3z"/>
				</g>
				<circle class="st46" cx="302.7" cy="324.2" r="3.4"/>
			</g>
			<polygon class="st50" points="288.1,370.8 312.2,390.1 304.3,349.5 			"/>
			<polygon class="st26" points="304.3,349.5 333.4,363.7 312.2,390.1 			"/>
			<polygon class="st16" points="333.4,363.7 358.2,334.3 360.9,403.8 			"/>
			<polygon class="st6" points="333.4,363.7 312.2,390.1 360.9,403.8 			"/>
			<polygon class="st49" points="312.2,390.1 296.6,415.6 360.9,403.8 			"/>
			<polygon class="st34" points="296.6,415.6 298.1,473.3 360.9,403.8 			"/>
			<polygon class="st48" points="244.7,444.6 296.6,415.6 298.1,473.3 			"/>
			<polygon class="st6" points="264.7,402.1 244.7,444.6 227.6,382.3 			"/>
			<polygon class="st10" points="264.7,402.1 277,426.5 244.7,444.6 			"/>
			<polygon class="st10" points="221.8,421.5 179.4,467.2 244.7,444.6 			"/>
			<polygon class="st38" points="221.8,421.5 180.5,426 179.4,467.2 			"/>
			<polygon class="st8" points="180.5,426 186.7,409.8 221.8,421.5 			"/>
			<polygon class="st8" points="283.8,407.7 277,426.5 264.7,402.1 			"/>
			<polygon class="st44" points="283.8,407.7 296.6,415.6 277,426.5 			"/>
			<polygon class="st30" points="282.7,505.1 244.7,444.6 298.1,473.3 			"/>
			<polygon class="st48" points="244.7,444.6 229.3,494.8 179.4,467.2 			"/>
			<polygon class="st6" points="244.7,444.6 282.7,505.1 229.3,494.8 			"/>
			<polygon class="st6" points="279.5,520 225.4,536.7 229.3,494.8 			"/>
			<polygon class="st65" points="368,565.5 390.8,544.2 390.8,571.4 			"/>
			<polygon class="st25" points="380.6,553.7 364.5,538.8 365.4,524.5 379.4,524.5 			"/>
			<polygon class="st17" points="345.8,535.7 364.5,538.8 343.5,506.5 			"/>
			<polygon class="st46" points="365.4,524.5 360.9,486.4 343.5,506.5 			"/>
			<polygon class="st25" points="360.9,486.4 390.8,511.5 390.8,485.4 			"/>
			<polygon class="st2" points="390.8,511.5 379.4,524.5 380.6,553.7 390.8,544.2 			"/>
			<polygon class="st37" points="379.4,524.5 360.9,486.4 390.8,511.5 			"/>
			<polygon class="st2" points="365.4,524.5 360.9,486.4 379.4,524.5 			"/>
			<polygon class="st27" points="365.4,524.5 364.5,538.8 343.5,506.5 			"/>
			<polygon class="st2" points="345.8,535.7 368,565.5 380.6,553.7 364.5,538.8 			"/>
			<polygon class="st40" points="229.3,494.8 179.4,467.2 171.6,528.1 			"/>
			<polygon class="st51" points="179.4,467.2 152.1,486.5 171.6,528.1 			"/>
			<polygon class="st4" points="152.1,486.5 140.5,439.8 179.4,467.2 			"/>
			<polygon class="st59" points="140.5,439.8 180.5,426 179.4,467.2 			"/>
			<polygon class="st13" points="140.5,439.8 151.4,398.1 180.5,426 			"/>
			<polygon class="st41" points="151.4,398.1 180.5,426 186.7,409.8 			"/>
			<polygon class="st23" points="140.5,439.8 116.2,557.6 152.1,486.5 			"/>
			<polygon class="st41" points="152.1,486.5 171.6,528.1 116.2,557.6 			"/>
			<polygon class="st56" points="140.5,439.8 100.6,445.5 151.4,398.1 			"/>
			<polygon class="st40" points="247.2,331.5 150.6,364.3 151.4,398.1 			"/>
			<polygon class="st18" points="150.6,364.3 152.7,326.2 247.2,331.5 			"/>
			<polygon class="st21" points="247.2,331.5 250.4,295.5 267.7,320.3 			"/>
			<polygon class="st21" points="150.6,364.3 104.9,387.2 151.4,398.1 			"/>
			<polygon class="st55" points="150.6,364.3 109.8,363.5 152.7,326.2 			"/>
			<polygon class="st59" points="152.7,326.2 159.3,300.4 247.2,331.5 			"/>
			<polygon class="st4" points="206.6,223.7 250.4,295.5 271.7,237.5 			"/>
			<polygon class="st57" points="206.6,223.7 185.8,250.3 222.8,250.3 			"/>
			<polygon class="st51" points="185.8,250.3 177.7,277.3 222.8,250.3 			"/>
			<polygon class="st19" points="177.7,277.3 247.2,331.5 159.3,300.4 			"/>
			<polygon class="st4" points="177.7,277.3 250.4,295.5 247.2,331.5 			"/>
			<polygon class="st19" points="177.7,277.3 222.8,250.3 250.4,295.5 			"/>
			<polygon class="st29" points="177.7,277.3 135.4,255.1 185.8,250.3 			"/>
			<polygon class="st45" points="177.7,277.3 127.2,280.1 159.3,300.4 			"/>
			<polygon class="st57" points="159.3,300.4 119.5,335.8 152.7,326.2 			"/>
			<polygon class="st53" points="206.6,223.7 185.8,250.3 145.4,221.9 			"/>
			<polygon class="st11" points="145.4,221.9 166.3,198.4 206.6,223.7 			"/>
			<polygon class="st15" points="171.6,528.1 219.8,590.1 225.4,536.7 			"/>
			<polygon class="st30" points="229.3,494.8 225.4,536.7 171.6,528.1 			"/>
			<polygon class="st50" points="219.8,590.1 279.5,520 225.4,536.7 			"/>
			<polygon class="st16" points="279.5,520 250.2,578.9 219.8,590.1 			"/>
			<polygon class="st48" points="279.5,520 308.4,564.4 250.2,578.9 			"/>
			<polygon class="st48" points="219.8,590.1 244.6,611.9 250.2,578.9 			"/>
			<polygon class="st13" points="219.8,590.1 134.7,581.5 192.9,555.5 			"/>
			<polygon class="st20" points="171.6,528.1 134.7,581.5 192.9,555.5 			"/>
			<polygon class="st4" points="219.8,590.1 162.7,626.1 171.6,585.3 			"/>
			<polygon class="st32" points="219.8,590.1 244.6,611.9 162.7,626.1 			"/>
			<polygon class="st34" points="244.6,611.9 308.4,564.4 250.2,578.9 			"/>
			<polygon class="st54" points="244.6,611.9 173.5,664.7 189.7,621.4 			"/>
			<polygon class="st21" points="244.6,611.9 225.4,663.8 172.8,665.1 			"/>
			<polygon class="st60" points="244.6,611.9 282.6,644.6 299.1,599.3 			"/>
			<polygon class="st15" points="308.4,564.4 299.1,599.3 244.6,611.9 			"/>
			<polygon class="st10" points="335.4,584 362,608.1 365.1,595.6 			"/>
			<polygon class="st64" points="365.1,595.6 390.8,594.6 362,608.1 			"/>
			<polygon class="st9" points="362,608.1 390.8,610.7 390.8,594.6 			"/>
			<polygon class="st31" points="362,608.1 390.8,629.1 390.8,610.7 			"/>
			<polygon class="st30" points="322.5,625.6 282.6,644.6 302.5,667.2 			"/>
			<polygon class="st44" points="322.5,625.6 332.6,683.7 302.5,667.2 			"/>
			<polygon class="st26" points="332.6,683.7 390.8,712.5 328.1,657.9 			"/>
			<polygon class="st31" points="332.6,683.7 359.7,765 390.8,712.5 			"/>
			<polygon class="st48" points="332.6,683.7 296.1,737 302.5,667.2 			"/>
			<polygon class="st10" points="332.6,683.7 312,713.8 359.7,765 			"/>
			<polygon class="st16" points="390.8,712.5 372.8,742.9 390.8,761.3 			"/>
			<polygon class="st38" points="372.8,742.9 390.8,786 390.8,761.3 			"/>
			<polygon class="st44" points="328.1,657.9 360.9,643.6 390.8,712.5 			"/>
			<polygon class="st48" points="360.9,643.6 390.8,629.1 390.8,712.5 			"/>
			<polygon class="st56" points="362,608.1 360.9,643.6 390.8,629.1 			"/>
			<polygon class="st30" points="362,608.1 328.1,657.9 360.9,643.6 			"/>
			<polygon class="st14" points="335.4,584 322.5,625.6 362,608.1 			"/>
			<polygon class="st56" points="362,608.1 328.1,657.9 322.5,625.6 			"/>
			<polygon class="st62" points="308.4,564.4 335.4,584 299.1,599.3 			"/>
			<polygon class="st0" points="282.6,644.6 249.6,707.4 224,663.8 			"/>
			<polygon class="st15" points="282.6,644.6 296.1,737 302.5,667.2 			"/>
			<polygon class="st54" points="282.6,644.6 261.3,685.2 296.1,737 			"/>
			<polygon class="st36" points="244.6,611.9 282.6,644.6 224,663.8 			"/>
			<polygon class="st34" points="299.1,599.3 322.5,625.6 282.6,644.6 			"/>
			<polygon class="st15" points="299.1,599.3 335.4,584 322.5,625.6 			"/>
			<polygon class="st15" points="282.7,505.1 279.5,520 229.3,494.8 			"/>
      <ellipse transform="matrix(0.983 0.1838 -0.1838 0.983 86.0728 -37.9192)" class="st22" cx="247.5" cy="445.3" rx="4.7" ry="9.6"/>
		</g>
	</g>
</g>
</svg> 