<svg version="1.1" id="Layer_1" xmlns="http://www.w3.org/2000/svg" xmlns:xlink="http://www.w3.org/1999/xlink" x="0px" y="0px"
	 width="800px" height="800px" viewBox="0 0 800 800" style="enable-background:new 0 0 800 800;" xml:space="preserve">
<style type="text/css">
<![CDATA[
	.st0{fill:#AA89CE;}
	.st1{fill:#AA9FE2;}
	.st2{fill:#AE99C9;}
	.st3{fill:#7FB29E;}
	.st4{fill:#E7DAFF;}
	.st5{fill:#E8E9EB;}
	.st6{fill:#E8ECB1;}
	.st7{fill:#4EDDA6;}
	.st8{fill:#806AAC;}
	.st9{fill:#B3DBCD;}
	.st10{fill-rule:evenodd;clip-rule:evenodd;fill:#AA89CE;}
	.st11{fill:#877993;}
	.st12{fill:#B7A5BF;}
	.st13{fill:#B7BCCD;}
	.st14{fill:#B7DFE2;}
	.st15{fill:#528466;}
	.st16{fill:#538196;}
	.st17{display:inline;fill:#F2D6E6;}
	.st18{fill:#55CFF9;}
	.st19{fill:#8A979B;}
	.st20{fill:#575756;}
	.st21{fill:#8D59B2;}
	.st22{fill:#8E4989;}
	.st23{fill:#8E688D;}
	.st24{fill:#8FC1AD;}
	.st25{fill:#C0B6E0;}
	.st26{fill:#C170C1;}
	.st27{fill:#934AD3;}
	.st28{fill:#94C7D3;}
	.st29{fill:#2B4854;}
	.st30{fill:#C8E3CE;}
	.st31{fill:#99CAFF;}
	.st32{fill:#60668C;}
	.st33{fill:#FEFFCE;}
	.st34{fill:#FEFFE6;}
	.st35{fill:#61235A;}
	.st36{fill:#62347F;}
	.st37{fill:#633963;}
	.st38{fill:#65477A;}
	.st39{fill:#677C6E;}
	.st40{display:inline;}
	.st41{fill:#CFCAE5;}
	.st42{fill:#6BAA85;}
	.st43{fill:#6E6491;}
	.st44{fill:#6E877F;}
	.st45{fill:#D1D3D4;}
	.st46{fill:#D8CAF9;}
	.st47{fill:#3F3956;}
	.st48{display:none;}
	.st49{fill:#727271;}
	.st50{fill:#A1AFB4;}
	.st51{fill:#72A1B2;}
	.st52{fill:#A397B2;}
	.st53{fill:#A7C1B5;}
	.st54{fill:#797391;}
	.st55{fill:#DED9B4;}
	.st56{fill:#429686;}
	.st57{fill:#436A7B;}
]]>
</style>
<g>
	<g class="st48">
		<rect x="-12.2" y="-1.9" class="st17" width="800" height="800"/>
		<g class="st40">
			<path class="st0" d="M385.6,751.9h0.7v-0.9c0-0.9,0.1-1.6,0.3-2.2c0.2-0.5,0.6-0.9,1.2-1.2c0.6-0.2,1.3-0.4,2.3-0.4
				c1.7,0,2.6,0.4,2.6,1.3c0,0.3-0.1,0.5-0.3,0.7c-0.2,0.2-0.4,0.3-0.6,0.3c-0.1,0-0.3,0-0.6-0.1c-0.3,0-0.5-0.1-0.7-0.1
				c-0.5,0-0.9,0.2-1,0.5c-0.1,0.3-0.2,0.8-0.2,1.3v0.7h0.7c1.1,0,1.7,0.3,1.7,1c0,0.5-0.1,0.8-0.4,0.9c-0.3,0.1-0.7,0.2-1.2,0.2
				h-0.7v7.8c0,0.6-0.1,1-0.4,1.3c-0.3,0.3-0.6,0.5-1.1,0.5c-0.4,0-0.8-0.2-1-0.5c-0.3-0.3-0.4-0.7-0.4-1.3v-7.8h-0.8
				c-0.4,0-0.8-0.1-1-0.3c-0.2-0.2-0.4-0.4-0.4-0.8C384.1,752.3,384.6,751.9,385.6,751.9"/>
			<path class="st0" d="M395.2,759.4v2.4c0,0.6-0.1,1-0.4,1.3c-0.3,0.3-0.6,0.4-1.1,0.4c-0.4,0-0.8-0.1-1-0.5
				c-0.3-0.3-0.4-0.7-0.4-1.3v-8.2c0-1.3,0.5-2,1.4-2c0.5,0,0.8,0.2,1.1,0.5c0.2,0.3,0.3,0.8,0.4,1.4c0.3-0.6,0.7-1.1,1.1-1.4
				c0.4-0.3,0.9-0.5,1.5-0.5c0.6,0,1.2,0.2,1.8,0.5c0.6,0.3,0.9,0.7,0.9,1.2c0,0.4-0.1,0.7-0.4,0.9c-0.2,0.2-0.5,0.3-0.8,0.3
				c-0.1,0-0.4-0.1-0.8-0.2c-0.4-0.1-0.8-0.2-1.1-0.2c-0.4,0-0.8,0.1-1,0.3c-0.3,0.2-0.5,0.6-0.6,1c-0.2,0.4-0.3,1-0.3,1.6
				C395.2,757.7,395.2,758.5,395.2,759.4"/>
			<path class="st0" d="M408.6,758.4h-5.7c0,0.7,0.1,1.3,0.4,1.8c0.3,0.5,0.6,0.9,1,1.1c0.4,0.3,0.9,0.4,1.4,0.4c0.3,0,0.7,0,1-0.1
				c0.3-0.1,0.6-0.2,0.8-0.4c0.3-0.2,0.5-0.4,0.8-0.6c0.2-0.2,0.5-0.5,0.9-0.8c0.2-0.1,0.4-0.2,0.6-0.2c0.3,0,0.5,0.1,0.7,0.2
				c0.2,0.2,0.3,0.4,0.3,0.7c0,0.3-0.1,0.6-0.3,0.9c-0.2,0.4-0.5,0.7-0.9,1c-0.4,0.3-0.9,0.6-1.6,0.8c-0.6,0.2-1.4,0.3-2.2,0.3
				c-1.9,0-3.3-0.5-4.4-1.6c-1-1.1-1.6-2.5-1.6-4.4c0-0.9,0.1-1.7,0.4-2.4c0.3-0.7,0.6-1.4,1.1-1.9c0.5-0.5,1.1-0.9,1.8-1.2
				c0.7-0.3,1.5-0.4,2.4-0.4c1.1,0,2.1,0.2,2.9,0.7c0.8,0.5,1.4,1.1,1.8,1.9c0.4,0.8,0.6,1.5,0.6,2.3c0,0.7-0.2,1.2-0.6,1.4
				C410,758.2,409.4,758.4,408.6,758.4 M402.9,756.7h5.3c-0.1-1-0.3-1.7-0.8-2.2c-0.5-0.5-1.1-0.7-1.9-0.7c-0.7,0-1.3,0.2-1.8,0.8
				C403.3,755,403,755.7,402.9,756.7"/>
			<path class="st0" d="M420.8,758.4h-5.7c0,0.7,0.1,1.3,0.4,1.8c0.3,0.5,0.6,0.9,1,1.1c0.4,0.3,0.9,0.4,1.4,0.4c0.3,0,0.7,0,1-0.1
				c0.3-0.1,0.6-0.2,0.8-0.4c0.3-0.2,0.5-0.4,0.7-0.6c0.2-0.2,0.5-0.5,0.9-0.8c0.2-0.1,0.4-0.2,0.6-0.2c0.3,0,0.5,0.1,0.7,0.2
				c0.2,0.2,0.3,0.4,0.3,0.7c0,0.3-0.1,0.6-0.3,0.9c-0.2,0.4-0.5,0.7-0.9,1c-0.4,0.3-0.9,0.6-1.6,0.8c-0.6,0.2-1.4,0.3-2.2,0.3
				c-1.9,0-3.3-0.5-4.4-1.6c-1-1.1-1.6-2.5-1.6-4.4c0-0.9,0.1-1.7,0.4-2.4c0.3-0.7,0.6-1.4,1.1-1.9c0.5-0.5,1.1-0.9,1.8-1.2
				c0.7-0.3,1.5-0.4,2.4-0.4c1.1,0,2.1,0.2,3,0.7c0.8,0.5,1.4,1.1,1.8,1.9c0.4,0.8,0.6,1.5,0.6,2.3c0,0.7-0.2,1.2-0.6,1.4
				C422.1,758.2,421.5,758.4,420.8,758.4 M415.1,756.7h5.3c-0.1-1-0.3-1.7-0.8-2.2c-0.5-0.5-1.1-0.7-1.9-0.7c-0.7,0-1.3,0.2-1.8,0.8
				C415.4,755,415.2,755.7,415.1,756.7"/>
			<path class="st0" d="M427.2,753.3v0.3c0.5-0.7,1.1-1.2,1.7-1.5c0.6-0.3,1.3-0.5,2-0.5c0.9,0,1.7,0.2,2.5,0.7
				c0.8,0.5,1.4,1.1,1.8,2c0.4,0.9,0.7,2,0.7,3.2c0,0.9-0.1,1.7-0.4,2.5c-0.3,0.8-0.6,1.4-1,1.9c-0.4,0.5-1,0.9-1.6,1.2
				c-0.6,0.3-1.3,0.4-2,0.4c-0.8,0-1.5-0.2-2.1-0.5c-0.6-0.3-1.1-0.8-1.6-1.5v4.4c0,1.3-0.5,1.9-1.4,1.9c-0.6,0-0.9-0.2-1.1-0.5
				c-0.2-0.3-0.3-0.8-0.3-1.5v-12.6c0-0.6,0.1-1,0.4-1.3c0.2-0.3,0.6-0.4,1-0.4c0.4,0,0.8,0.1,1,0.4
				C427.1,752.4,427.2,752.8,427.2,753.3 M432.9,757.6c0-0.8-0.1-1.4-0.4-2c-0.2-0.6-0.6-1-1-1.3c-0.4-0.3-0.9-0.5-1.4-0.5
				c-0.8,0-1.5,0.3-2,1c-0.6,0.6-0.8,1.6-0.8,2.8c0,1.2,0.3,2.1,0.8,2.7s1.2,1,2,1c0.5,0,0.9-0.1,1.4-0.4c0.4-0.3,0.7-0.7,1-1.3
				C432.8,759.1,432.9,758.4,432.9,757.6"/>
			<path class="st0" d="M438.8,750.3c-0.4,0-0.8-0.1-1-0.4c-0.3-0.3-0.4-0.6-0.4-1.1c0-0.4,0.2-0.8,0.4-1c0.3-0.3,0.6-0.4,1-0.4
				c0.4,0,0.7,0.1,1,0.4c0.3,0.2,0.4,0.6,0.4,1.1c0,0.4-0.1,0.8-0.4,1.1C439.6,750.2,439.2,750.3,438.8,750.3 M440.3,753.3v8.5
				c0,0.6-0.1,1-0.4,1.3c-0.3,0.3-0.6,0.5-1.1,0.5c-0.4,0-0.8-0.2-1-0.5c-0.3-0.3-0.4-0.8-0.4-1.3v-8.4c0-0.6,0.1-1,0.4-1.3
				c0.3-0.3,0.6-0.4,1-0.4c0.4,0,0.8,0.1,1.1,0.4C440.1,752.4,440.3,752.8,440.3,753.3"/>
			<path class="st0" d="M449.7,762.3l-2.6-4.3l-1.6,1.5v2.3c0,0.6-0.2,1-0.4,1.3c-0.3,0.3-0.6,0.5-1,0.5c-0.5,0-0.8-0.1-1.1-0.5
				c-0.3-0.3-0.4-0.7-0.4-1.3v-12.5c0-0.6,0.1-1.1,0.4-1.5c0.2-0.3,0.6-0.5,1.1-0.5c0.4,0,0.8,0.2,1.1,0.5c0.3,0.3,0.4,0.8,0.4,1.4
				v7.1l3.3-3.5c0.4-0.4,0.7-0.7,0.9-0.9c0.2-0.2,0.5-0.2,0.8-0.2c0.4,0,0.7,0.1,0.9,0.4c0.2,0.2,0.4,0.5,0.4,0.9
				c0,0.4-0.4,1-1.2,1.7l-1.6,1.4l3,4.7c0.2,0.4,0.4,0.6,0.5,0.8c0.1,0.2,0.1,0.4,0.1,0.5c0,0.5-0.1,0.8-0.4,1.1
				c-0.3,0.3-0.6,0.4-1,0.4c-0.4,0-0.6-0.1-0.8-0.3C450.3,763.1,450,762.8,449.7,762.3"/>
			<path class="st0" d="M456.1,763.6c-0.4,0-0.8-0.1-1.1-0.4c-0.3-0.3-0.5-0.7-0.5-1.2c0-0.4,0.2-0.8,0.5-1.1
				c0.3-0.3,0.7-0.5,1.1-0.5c0.5,0,0.8,0.2,1.2,0.5c0.3,0.3,0.5,0.7,0.5,1.1c0,0.5-0.2,0.9-0.5,1.2
				C456.9,763.4,456.5,763.6,456.1,763.6"/>
			<path class="st0" d="M470.6,760c0,0.4-0.1,0.8-0.3,1.2s-0.5,0.8-1,1.2c-0.4,0.4-1,0.7-1.7,0.9c-0.7,0.2-1.4,0.3-2.3,0.3
				c-1.8,0-3.2-0.5-4.2-1.6c-1-1.1-1.5-2.5-1.5-4.2c0-1.2,0.2-2.3,0.7-3.2c0.5-0.9,1.1-1.6,2-2.1c0.9-0.5,1.9-0.8,3.1-0.8
				c0.8,0,1.5,0.1,2.1,0.3c0.6,0.2,1.2,0.5,1.6,0.9c0.4,0.4,0.8,0.7,1,1.1c0.2,0.4,0.4,0.8,0.4,1.1c0,0.3-0.1,0.6-0.4,0.9
				c-0.3,0.2-0.6,0.4-0.9,0.4c-0.2,0-0.4-0.1-0.6-0.2c-0.2-0.1-0.3-0.3-0.5-0.6c-0.4-0.5-0.7-0.9-1.1-1.2c-0.4-0.3-0.9-0.4-1.5-0.4
				c-0.9,0-1.6,0.3-2.1,1c-0.5,0.7-0.8,1.6-0.8,2.8c0,0.6,0.1,1.1,0.2,1.5c0.1,0.5,0.3,0.9,0.6,1.2c0.3,0.3,0.6,0.6,0.9,0.7
				c0.4,0.2,0.8,0.3,1.2,0.3c0.6,0,1.1-0.1,1.5-0.4c0.4-0.3,0.8-0.7,1.1-1.2c0.2-0.3,0.4-0.6,0.6-0.8c0.2-0.2,0.5-0.3,0.8-0.3
				c0.4,0,0.7,0.1,0.9,0.4C470.5,759.4,470.6,759.7,470.6,760"/>
			<path class="st0" d="M483.3,757.6c0,0.9-0.1,1.7-0.4,2.4c-0.3,0.7-0.7,1.4-1.2,1.9c-0.5,0.5-1.1,0.9-1.8,1.2
				c-0.7,0.3-1.5,0.4-2.4,0.4c-0.9,0-1.7-0.1-2.4-0.4c-0.7-0.3-1.3-0.7-1.8-1.2c-0.5-0.5-0.9-1.2-1.2-1.9c-0.3-0.7-0.4-1.5-0.4-2.4
				c0-0.9,0.1-1.7,0.4-2.4c0.3-0.7,0.7-1.4,1.2-1.9c0.5-0.5,1.1-0.9,1.8-1.2c0.7-0.3,1.5-0.4,2.4-0.4c0.9,0,1.7,0.1,2.4,0.4
				c0.7,0.3,1.3,0.7,1.9,1.2c0.5,0.5,0.9,1.2,1.2,1.9C483.1,756,483.3,756.8,483.3,757.6 M480.3,757.6c0-1.2-0.3-2.1-0.8-2.8
				c-0.5-0.7-1.2-1-2.1-1c-0.6,0-1.1,0.2-1.5,0.4c-0.4,0.3-0.8,0.7-1,1.3c-0.2,0.6-0.4,1.3-0.4,2c0,0.8,0.1,1.4,0.3,2
				c0.2,0.6,0.6,1,1,1.3c0.4,0.3,0.9,0.5,1.5,0.5c0.9,0,1.6-0.3,2.1-1C480.1,759.7,480.3,758.8,480.3,757.6"/>
			<path class="st0" d="M494.4,757.9v3.9c0,0.6-0.1,1.1-0.4,1.4c-0.3,0.3-0.6,0.5-1.1,0.5c-0.4,0-0.8-0.2-1.1-0.5
				c-0.3-0.3-0.4-0.8-0.4-1.4v-4.7c0-0.7,0-1.3-0.1-1.7c-0.1-0.4-0.2-0.7-0.4-1c-0.2-0.3-0.6-0.4-1.1-0.4c-1,0-1.6,0.3-1.9,1
				c-0.3,0.7-0.5,1.6-0.5,2.8v4c0,0.6-0.1,1.1-0.4,1.4c-0.3,0.3-0.6,0.5-1.1,0.5c-0.4,0-0.8-0.2-1.1-0.5c-0.3-0.3-0.4-0.8-0.4-1.4
				v-8.4c0-0.5,0.1-1,0.4-1.3c0.3-0.3,0.6-0.4,1-0.4c0.4,0,0.7,0.1,1,0.4c0.3,0.3,0.4,0.6,0.4,1.1v0.3c0.5-0.6,1.1-1.1,1.6-1.3
				c0.6-0.3,1.2-0.4,1.9-0.4c0.7,0,1.4,0.1,1.9,0.4c0.5,0.3,1,0.7,1.3,1.3c0.5-0.6,1-1,1.6-1.3c0.6-0.3,1.2-0.4,1.9-0.4
				c0.8,0,1.5,0.2,2.1,0.5c0.6,0.3,1,0.8,1.3,1.4c0.3,0.5,0.4,1.4,0.4,2.5v5.7c0,0.6-0.1,1.1-0.4,1.4c-0.3,0.3-0.6,0.5-1.1,0.5
				c-0.4,0-0.8-0.2-1.1-0.5c-0.3-0.3-0.4-0.8-0.4-1.4v-4.9c0-0.6,0-1.1-0.1-1.5c0-0.4-0.2-0.7-0.4-1c-0.2-0.3-0.6-0.4-1.1-0.4
				c-0.4,0-0.8,0.1-1.1,0.3c-0.3,0.2-0.6,0.5-0.8,0.9C494.5,755.7,494.4,756.6,494.4,757.9"/>
			<path class="st10" d="M365.3,764.6c0,0-1.6-0.3-3.2-2c-1.6-1.7-1.8-3.5-1.8-3.5s2,0.5,3.4,0.6c2.5,0.3,4.8,0.1,5.9,0
				c2.3-0.3,3.6-0.7,4.1-0.8c3-0.7,5.8-2.6,5.8-2.6s0.4,2.2-1.3,4.7c-0.7,1-1.9,2.1-3.4,2.8C369.6,766,365.3,764.6,365.3,764.6"/>
			<path class="st10" d="M377.4,752c-0.6-0.7-2.4-3.8-6.1-4.3c-1-0.1-6,0.1-9,2.9c-0.3,0.3-1.8,1.6-2.3,4.1
				c-0.4,1.9,0.3,4.1,0.3,4.1s3.3,0.7,5.9,0.6c4-0.1,6-0.5,8.1-1.1c3.1-0.9,5.2-2.5,5.2-2.5S377.9,752.6,377.4,752 M365.9,756.8
				c-1.7,0.1-3.1-1.2-3.2-2.8c-0.1-1.7,1.2-3.1,2.9-3.2c1.7-0.1,3.1,1.2,3.2,2.8C368.9,755.2,367.6,756.7,365.9,756.8 M374.5,754.6
				c-1.1,0.1-2-0.7-2-1.8c-0.1-1.1,0.7-2,1.8-2c1.1-0.1,2,0.7,2,1.8C376.4,753.6,375.6,754.5,374.5,754.6"/>
			<path class="st10" d="M376,749.8l1-1.2c0,0,1.3,0.7,2.2,1.9c0.9,1.2,1.4,2.4,1.4,2.4l-1.6,1c0,0-0.5-1.2-1.2-2.2
				C377,750.8,376,749.8,376,749.8"/>
			<path class="st10" d="M379,750.6c0.2-0.2,0.7-0.2,0.7-0.5c0-0.3-0.3-1,0.4-1.3c0.7-0.2,0.3,0.2,0.1,0.5c-0.2,0.3-0.2,0.5-0.1,0.9
				c0,0.4-0.3,0.6-0.8,0.8C378.8,751.3,378.7,750.8,379,750.6"/>
			<path class="st10" d="M361.2,751.3c0,0-1.1,1.3-1.4,2.5c-0.3,1.2-0.2,2.6-0.2,2.6l-1.7-0.6c0,0-0.1-1.6,0.7-3
				c0.8-1.5,1.9-2.1,1.9-2.1L361.2,751.3z"/>
			<path class="st10" d="M358.8,752.8c-0.3-0.2-0.3-0.6-0.5-0.9c-0.2-0.3-0.3-0.1-0.8-0.1c-0.5,0-0.5-0.2-0.6-0.3
				c-0.1-0.1-0.2,0.4-0.2,0.4s0.1,0.4,0.6,0.4c0.5,0,0.5-0.2,0.7,0.2c0.2,0.5,0.7,0.8,0.7,0.8S359,753,358.8,752.8"/>
			<path class="st10" d="M367.6,746.6c2.7-0.7,4.4,0.1,4.4,0.1l-0.1,0.8c0,0-2-0.1-3.6,0.1c-1.6,0.2-2.3,0.7-2.3,0.7l-0.3-0.8
				C365.7,747.5,366.4,746.9,367.6,746.6"/>
			
				<rect x="368.6" y="745.4" transform="matrix(-0.9365 0.3506 -0.3506 -0.9365 975.8628 1315.5366)" class="st10" width="0.4" height="1.5"/>
			<path class="st10" d="M380.4,748c0.4,0,0.7,0.3,0.7,0.7c0,0.4-0.3,0.7-0.6,0.7c-0.4,0-0.7-0.3-0.7-0.6
				C379.7,748.4,380,748.1,380.4,748"/>
			<path class="st10" d="M356.5,750.7c0.4,0,0.7,0.3,0.7,0.7c0,0.4-0.3,0.7-0.7,0.7c-0.4,0-0.7-0.3-0.7-0.6
				C355.8,751,356.1,750.7,356.5,750.7"/>
			<path class="st10" d="M368.7,743.8c0.6,0,1.1,0.4,1.2,1c0,0.6-0.4,1.1-1,1.2c-0.6,0-1.1-0.4-1.2-1
				C367.7,744.3,368.1,743.8,368.7,743.8"/>
			<path class="st0" d="M281.6,762c0,0.7-0.4,1.1-1,1.1c-0.6,0-0.9-0.3-1-0.9c-0.4,0.6-1.2,0.9-1.9,0.9c-2.1,0-3.4-1.9-3.4-3.8
				c0-2,1.1-4.1,3.3-4.1c0.7,0,1.4,0.2,1.9,0.7v-2.8c0-0.7,0.4-1.1,1-1.1c0.6,0,1,0.5,1,1.1V762z M278,757.2c-1.1,0-1.6,1.1-1.6,2.1
				c0,1,0.5,2.1,1.6,2.1c1.1,0,1.6-1.1,1.6-2.1C279.6,758.2,279.1,757.2,278,757.2"/>
			<path class="st0" d="M284.4,759.9c0.1,1,1,1.5,1.9,1.5c1,0,1.8-0.8,2.3-0.8c0.4,0,0.8,0.4,0.8,0.9c0,0.9-1.8,1.7-3.3,1.7
				c-2.3,0-3.8-1.7-3.8-3.9c0-2.1,1.5-4,3.7-4c2.2,0,3.7,2,3.7,3.7c0,0.6-0.3,0.9-0.9,0.9H284.4z M287.7,758.6
				c-0.1-0.9-0.7-1.6-1.6-1.6c-0.9,0-1.5,0.7-1.6,1.6H287.7z"/>
			<path class="st0" d="M294.7,757.7c-0.4,0-1.2-0.6-1.8-0.6c-0.4,0-0.7,0.2-0.7,0.6c0,0.9,3.6,0.8,3.6,3.1c0,1.4-1.2,2.4-2.9,2.4
				c-1.2,0-2.9-0.7-2.9-1.6c0-0.3,0.3-0.9,0.9-0.9c0.8,0,1.2,0.7,2.1,0.7c0.6,0,0.8-0.2,0.8-0.6c0-0.9-3.6-0.8-3.6-3.1
				c0-1.4,1.2-2.4,2.8-2.4c1,0,2.6,0.5,2.6,1.5C295.6,757.2,295.2,757.7,294.7,757.7"/>
			<path class="st0" d="M298.6,753.4c0,0.6-0.5,1.2-1.2,1.2c-0.6,0-1.1-0.6-1.1-1.2c0-0.6,0.5-1.1,1.1-1.1
				C298.1,752.3,298.6,752.8,298.6,753.4 M296.4,756.5c0-0.7,0.4-1.1,1-1.1s1,0.5,1,1.1v5.5c0,0.7-0.4,1.1-1,1.1s-1-0.5-1-1.1V756.5
				z"/>
			<path class="st0" d="M306.6,762.4c0,2.5-1.6,3.7-3.9,3.7c-0.8,0-3.2-0.4-3.2-1.5c0-0.4,0.4-0.9,0.8-0.9c0.7,0,1.4,0.6,2.6,0.6
				c1,0,1.7-0.6,1.7-1.6v-0.5h0c-0.4,0.6-1.1,1-2.1,1c-2.1,0-3.2-1.9-3.2-3.9c0-2.1,1.3-4,3.4-4c0.7,0,1.5,0.3,1.9,0.9
				c0.1-0.5,0.5-0.8,1-0.8c0.6,0,1,0.5,1,1.1V762.4z M303,757.2c-1.1,0-1.6,1.1-1.6,2.1c0,1.1,0.5,2.1,1.6,2.1c1.1,0,1.6-1,1.6-2
				C304.6,758.3,304.1,757.2,303,757.2"/>
			<path class="st0" d="M307.8,756.5c0-0.7,0.4-1.1,1-1.1c0.5,0,0.9,0.3,0.9,0.8c0.4-0.6,1-0.8,2-0.8c1.6,0,2.8,1,2.8,2.8v3.9
				c0,0.7-0.4,1.1-1,1.1c-0.6,0-1-0.5-1-1.1v-3.6c0-0.9-0.6-1.4-1.3-1.4c-0.8,0-1.3,0.6-1.3,1.4v3.6c0,0.7-0.4,1.1-1,1.1
				c-0.6,0-1-0.5-1-1.1V756.5z"/>
			<path class="st0" d="M317.3,759.9c0.1,1,1,1.5,1.9,1.5c1,0,1.8-0.8,2.3-0.8c0.4,0,0.8,0.4,0.8,0.9c0,0.9-1.8,1.7-3.3,1.7
				c-2.3,0-3.8-1.7-3.8-3.9c0-2.1,1.5-4,3.7-4c2.2,0,3.7,2,3.7,3.7c0,0.6-0.3,0.9-0.9,0.9H317.3z M320.5,758.6
				c-0.1-0.9-0.7-1.6-1.6-1.6c-0.9,0-1.5,0.7-1.6,1.6H320.5z"/>
			<path class="st0" d="M330.3,762c0,0.7-0.4,1.1-1,1.1c-0.6,0-0.9-0.3-1-0.9c-0.4,0.6-1.2,0.9-1.9,0.9c-2.1,0-3.4-1.9-3.4-3.8
				c0-2,1.1-4.1,3.3-4.1c0.7,0,1.4,0.2,1.9,0.7v-2.8c0-0.7,0.4-1.1,1-1.1s1,0.5,1,1.1V762z M326.7,757.2c-1.1,0-1.6,1.1-1.6,2.1
				c0,1,0.5,2.1,1.6,2.1c1.1,0,1.6-1.1,1.6-2.1C328.3,758.2,327.7,757.2,326.7,757.2"/>
			<path class="st0" d="M335.3,753.2c0-0.7,0.4-1.1,1-1.1c0.6,0,1,0.5,1,1.1v2.8c0.5-0.5,1.2-0.7,1.9-0.7c2.2,0,3.3,2.1,3.3,4.1
				c0,1.9-1.3,3.8-3.4,3.8c-0.7,0-1.5-0.3-1.9-0.9c-0.1,0.5-0.5,0.9-1,0.9c-0.6,0-1-0.5-1-1.1V753.2z M338.9,761.3
				c1.1,0,1.6-1.1,1.6-2.1c0-1-0.5-2.1-1.6-2.1c-1.1,0-1.6,1-1.6,2C337.3,760.2,337.8,761.3,338.9,761.3"/>
			<path class="st0" d="M342.9,756.8c-0.1-0.2-0.1-0.3-0.1-0.5c0-0.5,0.5-0.9,1-0.9c0.5,0,0.9,0.3,1,0.7l1.4,3.9l1.5-3.9
				c0.2-0.4,0.5-0.7,1-0.7c0.4,0,1,0.4,1,0.9c0,0.2,0,0.4-0.1,0.5l-3.4,8.5c-0.2,0.4-0.5,0.8-1,0.8c-0.7,0-1.1-0.4-1.1-0.9
				c0-0.2,0.1-0.4,0.1-0.6l0.9-2.2L342.9,756.8z"/>
		</g>
	</g>
	<g class="st48">
		
			<image style="display:inline;overflow:visible;opacity:0.75;" width="2446" height="2756" xlink:href="338BBD58.png"  transform="matrix(0.24 0 0 0.24 97.3345 53.1265)">
		</image>
		<g class="st40">
			<g>
				<path class="st51" d="M368.4,80.6h-39l27.7,44.8l8.1-31.9l-8,31.6l-0.1,0.2l-39.7-64.3l4,40.5l-63.4-31.8l8,29.4L234,96
					l43.7,46.9l-74.4-26.4l11,21.1l-62.3,5.2l19.2,28.3l-10.8,80.7l-37.9,83.8l35.2-4.3l58.1-43.6l8.9-6.6l-67.1,50.2l50.2,26
					L186.1,346l-28.4-14.7l14.6,33.7l19.3,44.5l-33.9-78.1L130,421.5l-14.1,83.2l41.8-52.1l-20.3,70.7l47.1-35.1l-29.5,74.8l30.7-21
					l4,45.6l49.7-30.6l-26.5,39.3l9.8,47.2l30.8-27.3l11.1,65l14.1-20.5l10.3,18.2l65.1-65.1l33.9,67.2V613v-32v-67v-16.5v-11.3
					l-9.7-19.3l-11.6-13.2l11.3,12.7l0.3,0.5c0,0,0,0,0,0h0l9.7,19.3v-13.7v-34.9v-9.7v-23v-23.9v-23.5v-28.2v-36.9v-22.2v-19.5
					v-20.1v-34.7v-48.5l0-39L373.1,62L368.4,80.6z M353,363.6L336.8,326l-5.4,18.5c0,0,0,0,0,0l5.4-18.5c0,0,0,0,0,0l7.5,17.5
					L353,363.6z M336.3,518.4L336.3,518.4l-12.8-3.3L336.3,518.4z M329.7,350.5C329.7,350.5,329.7,350.5,329.7,350.5L329.7,350.5
					C329.7,350.4,329.7,350.5,329.7,350.5L329.7,350.5z M329.5,303.6c-0.1-0.1-0.2-0.1-0.2-0.2h0.1L329.5,303.6z M287.9,320.9l8-3.2
					l-22.4,9L287.9,320.9z M330.9,351L330.9,351l8.5-1.7L330.9,351z M354.5,444.5c-0.1-0.1-0.2-0.2-0.3-0.3L354.5,444.5z
					 M202.6,204.7l100.8,17.9l-58.6-10.4L202.6,204.7z M287.9,373.7l9.7-16.1l30.9-6.1c0,0,0,0,0,0l-30.9,6.1l-21.1,35.3l31.7,83.7
					l-18.7-49.3l-13-34.4L287.9,373.7z"/>
				<path class="st51" d="M171.3,171.1l-39.5,27.4l17,31.7c3.1,6.8,6.1,13.7,8.5,20.9c0.3,0.9,1.7,0.5,1.4-0.4
					c-0.7-2.1-1.5-4.2-2.3-6.3l4,7.4l6.1-45.8L171.3,171.1z"/>
				<polygon class="st51" points="109.3,425.5 130,421.5 142.8,379.9 				"/>
				<polygon class="st51" points="118.6,378.6 142.8,379.9 157.7,331.3 				"/>
				<polygon class="st51" points="353.9,692.4 376.9,659.3 353.9,613.6 324.5,643 				"/>
				<path class="st51" d="M645.7,421.5l20.6,4l-33.4-45.6l0,0l24.1-1.3l-39.1-47.3L551,281.2l8.8,6.5l58.1,43.6l35.2,4.3l-37.9-83.8
					l4-7.4c-0.8,2.1-1.6,4.2-2.3,6.3c-0.3,0.9,1.1,1.3,1.4,0.4c2.4-7.1,5.4-14,8.5-20.9l17-31.7l-39.5-27.4l19.2-28.3l-62.3-5.2
					l11-21.1l-74.4,26.4L541.6,96l-31.9,3.2l8-29.4l-63.4,31.8l4-40.5l-12,19.4h-39l11.4,44.8l-0.1-0.2l-16-63.2l-14.7,46.4l0,39
					v48.5v34.7v20.1v19.5v22.2v36.9v28.2v23.5V405v23v9.7v34.9v13.7l9.7-19.3l0,0l0,0l0.3-0.5l11.3-12.7L397.5,467l-9.7,19.3v11.3
					V514v67v32v67.8l33.9-67.2l65.1,65.1l10.3-18.2l14.1,20.5l11.1-65l30.8,27.3l9.8-47.2l-26.5-39.3l49.7,30.6l4-45.6l30.7,21
					l-29.5-74.8l47.1,35.1L618,452.6l41.8,52.1L645.7,421.5z M499.2,392.9l-13,34.4l-18.7,49.3L499.2,392.9l74.8-38.8l-12.1,6.3
					L499.2,392.9z M439.3,518.4L439.3,518.4l12.8-3.3L439.3,518.4z M444.7,351L444.7,351l-8.5-1.7L444.7,351z M446.3,303.5h0.1
					c-0.1,0.1-0.2,0.1-0.2,0.2L446.3,303.5z M447.1,351.5C447.1,351.5,447.1,351.5,447.1,351.5l30.9,6.1L447.1,351.5z M446,350.5
					L446,350.5C446,350.5,446,350.5,446,350.5L446,350.5z M479.6,317.7l8,3.2l14.4,5.8L479.6,317.7z M431.3,343.6l7.5-17.5
					c0,0,0,0,0,0l5.4,18.5c0,0,0,0,0,0l-5.4-18.5l-16.1,37.5L431.3,343.6z M421.4,444.3c-0.1,0.1-0.2,0.2-0.3,0.3L421.4,444.3z"/>
				<polygon class="st51" points="421.7,692.4 451.1,643 421.7,613.6 398.7,659.3 				"/>
			</g>
		</g>
	</g>
	<g>
		<g>
			<path class="st7" d="M234.1,599.9c-1.2,0-1.2,1.9,0,1.9C235.3,601.8,235.3,599.9,234.1,599.9z"/>
			<path class="st7" d="M119.4,240.9c-6.8-20-16.9-38.6-25.3-58c-0.5-1.1-2.1-0.1-1.6,0.9c8.3,19.2,18.3,37.7,25.1,57.5
				C118,242.6,119.8,242.1,119.4,240.9z"/>
			<path class="st7" d="M402.7,583.8c-1.2,0-1.2,1.9,0,1.9C403.9,585.6,403.9,583.8,402.7,583.8z"/>
			<polygon class="st47" points="343.4,578 343.4,592 360.4,586.5 391.6,575.5 408.3,573.2 408.3,552.4 376,575.5 357.8,582.5 			
				"/>
			<path d="M338.6,337.4c-0.2-1.2-2-0.7-1.8,0.5c0,0.1,0,0.2,0,0.2c-4.1,4-7.6,8.8-12.4,12c-0.1-4.4-2.7-9.4-4.6-13.2
				c-0.1-0.2-0.2-0.3-0.4-0.4c0.1-0.5-0.2-1.1-0.9-1c-5.6,0.5-11.1,3.2-16,6c1.5-6.6-0.6-13.4,1.3-20c0.3-1.2-1.5-1.6-1.8-0.5
				c-2.1,7.1,0.6,14.5-1.7,21.5c-0.1,0-0.2-0.1-0.4-0.1c-1.2,0-1.2,1.9,0,1.9c0.3,0,0.5-0.1,0.6-0.2c0.3,0.2,0.6,0.3,1,0.1
				c5-2.9,10.7-6.2,16.6-6.8c0,0.1,0,0.3,0.1,0.4c1.8,3.6,4.4,8.6,4.3,12.7c-0.3,0.2-0.5,0.7-0.4,1.1c-0.3,0.7,0.5,1.6,1.3,1.2
				c2.3,1.9,3.4,4.8,4.8,7.4c1.7,3.1,4.3,5.6,5.7,8.9c0.5,1.1,2.2,0.6,1.8-0.5c2-1.4,1.3-9.2,1.3-10.8
				C337.3,351.1,339.7,344,338.6,337.4z M335.4,352.8c-0.1,0.8,0.2,12.8-0.4,14.1c-1.4-2.7-3.4-5.1-5.1-7.6
				c-1.7-2.6-2.6-5.3-4.7-7.4c4.6-3,8-7.4,11.8-11.3C337,344.7,335.7,348.7,335.4,352.8z"/>
			<path class="st15" d="M337,337c0,0,2.6-3.3,7-1.2l-9.3,32L337,337z"/>
			<polygon class="st55" points="344.1,336.1 347.3,365.4 334.7,367.9 			"/>
			<polygon class="st34" points="337,337 323.5,352.9 334.7,367.9 			"/>
			<polygon class="st33" points="323.5,352.9 318.9,336.7 337,337 			"/>
			<polygon class="st6" points="318.9,336.7 300,344.4 323.5,352.9 			"/>
			<polygon class="st34" points="300,344.4 302,321.4 318.9,336.7 			"/>
			<polygon class="st33" points="302,321.4 292.5,325.5 300,344.4 			"/>
			<polygon class="st45" points="344.1,336.1 363.6,336.1 348.8,309.1 			"/>
			<polygon class="st55" points="344.1,336.1 353.6,358.2 363.6,336.1 			"/>
			<polygon class="st34" points="339.8,454.6 330.7,483 364.2,494.5 			"/>
			<polygon class="st13" points="381.9,471.1 408.3,464.6 408.3,476.8 			"/>
			<polygon class="st30" points="345.4,469.5 339.8,454.6 351.7,454.6 			"/>
			<polygon class="st45" points="351.7,454.6 365.2,475.2 366.4,485.5 345.4,469.5 			"/>
			<polygon class="st9" points="351.7,454.6 381.9,471.1 365.2,475.2 			"/>
			<g>
				<path class="st47" d="M365.2,475.2l16.7-4.1l26.5,5.7v61.3l-12.6-25l-14.3-16l-17.2-2.6c0,0-16.8-16.1-18.8-25l5-3.3
					c0,0,12.7,17.1,16,19.3L365.2,475.2z"/>
				<path class="st26" d="M365.2,475.2c0,0,35.6,1.5,30.9,38.6l12.2,7v-44l-26.5-5.7L365.2,475.2z"/>
			</g>
			<polygon class="st34" points="376,575.5 360.8,526.6 395.1,561.9 			"/>
			<polygon class="st5" points="360.8,526.6 408.3,552.4 395.1,561.9 			"/>
			<polygon class="st4" points="360.8,526.6 408.3,538.1 408.3,552.4 			"/>
			<polygon class="st5" points="360.8,526.6 396.1,513.8 408.3,538.1 			"/>
			<polygon class="st33" points="360.8,526.6 381.5,497.1 396.1,513.8 			"/>
			<polygon class="st33" points="360.8,526.6 357.8,582.5 376,575.5 			"/>
			<polygon class="st6" points="360.8,526.6 364.2,494.5 381.5,497.1 			"/>
			<polygon class="st6" points="360.8,526.6 357.8,582.5 327.3,574.5 			"/>
			<polygon class="st55" points="360.8,526.6 330.7,483 364.2,494.5 			"/>
			<polygon class="st55" points="360.8,526.6 316.3,552.4 327.3,574.5 			"/>
			<polygon class="st6" points="360.8,526.6 307.9,526 316.3,552.4 			"/>
			<polygon class="st6" points="360.8,526.6 309.6,494.5 330.7,483 			"/>
			<polygon class="st33" points="360.8,526.6 309.6,494.5 307.9,526 			"/>
			<polygon class="st34" points="360.4,586.5 331.9,631.2 356.9,623.5 			"/>
			<polygon class="st34" points="356.9,623.5 391.6,575.5 376.7,636.3 			"/>
			<polygon class="st33" points="391.6,575.5 360.4,586.5 356.9,623.5 			"/>
			<polygon class="st6" points="360.4,586.5 343.4,592 331.9,631.2 			"/>
			<polygon class="st6" points="391.6,575.5 396.1,640.5 376.7,636.3 			"/>
			<polygon class="st6" points="356.9,623.5 359.2,654.7 376.7,636.3 			"/>
			<polygon class="st55" points="396.1,640.5 408.3,573.2 408.3,657.7 			"/>
			<polygon class="st55" points="376.7,636.3 383.5,661.6 396.1,640.5 			"/>
			<polygon class="st45" points="396.1,640.5 391.6,575.5 408.3,573.2 			"/>
			<polygon class="st14" points="348.8,309.1 347.3,281.4 385.1,262.7 			"/>
			<polygon class="st14" points="314.5,460.2 309.6,432.2 291.9,445.9 			"/>
			<polygon class="st9" points="291.9,445.9 309.6,494.5 314.5,460.2 			"/>
			<polygon class="st9" points="385.1,262.7 356.2,240.6 364.3,273 			"/>
			<polygon class="st9" points="283.8,287.7 264.3,336.8 282.4,329.6 			"/>
			<polygon class="st9" points="283.8,287.7 312.7,252.7 302.8,284.7 			"/>
			<polygon class="st9" points="291.8,316.2 300,301.9 311.8,307.6 			"/>
			<polygon class="st30" points="300,301.9 324.9,293.7 311.8,307.6 			"/>
			<polygon class="st53" points="324.9,293.7 334.7,307.6 311.8,307.6 			"/>
			<polygon class="st9" points="324.9,293.7 348.8,309.1 334.7,307.6 			"/>
			<polygon class="st28" points="348.8,309.1 346,325.1 334.7,307.6 			"/>
			<g>
				<path class="st47" d="M292.5,325.5l-0.7-9.3l23.8-10.3c0,0,20.5-10.2,30.4,19.1l-2,11c0,0-3-1.4-7,1c-4,2.4-19.7,6.3-35.1-15.6
					L292.5,325.5z"/>
				<g>
					<path class="st23" d="M326.1,314.9c6.5,0,12,4.3,13.7,10.3c0.4-1.3,0.6-2.6,0.6-4c0-7.9-6.4-14.3-14.3-14.3
						c-7.9,0-14.3,6.4-14.3,14.3c0,1.4,0.2,2.8,0.6,4C314.1,319.2,319.6,314.9,326.1,314.9z"/>
					<path class="st2" d="M326.1,335.4c6.5,0,12-4.3,13.7-10.3c-1.7-5.9-7.2-10.3-13.7-10.3c-6.5,0-12,4.3-13.7,10.3
						C314.1,331.1,319.6,335.4,326.1,335.4z"/>
				</g>
				<circle class="st37" cx="326.1" cy="318.6" r="3.8"/>
			</g>
			<polygon class="st30" points="312.7,252.7 356.2,240.6 360,255.8 			"/>
			<polygon class="st30" points="283.8,287.7 300,301.9 302.8,284.7 			"/>
			<polygon class="st55" points="283.8,287.7 291.8,316.2 300,301.9 			"/>
			<polygon class="st53" points="283.8,287.7 291.8,316.2 292.5,325.5 282.4,329.6 			"/>
			<polygon class="st53" points="312.7,252.7 329.9,270.2 302.8,284.7 			"/>
			<polygon class="st53" points="329.9,270.2 360,255.8 364.3,273 			"/>
			<polygon class="st28" points="329.9,270.2 347.3,281.4 364.3,273 			"/>
			<polygon class="st28" points="329.9,270.2 312.7,252.7 360,255.8 			"/>
			<polygon class="st3" points="302.8,284.7 324.9,293.7 300,301.9 			"/>
			<polygon class="st3" points="324.9,293.7 347.3,281.4 348.8,309.1 			"/>
			<polygon class="st7" points="324.9,293.7 329.9,270.2 347.3,281.4 			"/>
			<polygon class="st31" points="324.9,293.7 329.9,270.2 302.8,284.7 			"/>
			<polygon class="st50" points="323.5,352.9 294.6,375.9 334.7,367.9 			"/>
			<polygon class="st12" points="347.3,365.4 317.5,402.8 294.6,375.9 			"/>
			<polygon class="st19" points="294.6,375.9 309.6,432.2 317.5,402.8 			"/>
			<polygon class="st13" points="347.3,365.4 314.5,460.2 309.6,432.2 			"/>
			<polygon class="st50" points="347.3,365.4 309.6,432.2 317.5,402.8 			"/>
			<polygon class="st19" points="264.3,336.8 282.4,396.2 267.9,420.4 			"/>
			<polygon class="st16" points="300,344.4 294.6,375.9 323.5,352.9 			"/>
			<polygon class="st44" points="292.5,325.5 300,344.4 264.3,336.8 			"/>
			<polygon class="st51" points="300,344.4 294.6,375.9 264.3,336.8 			"/>
			<polygon class="st51" points="294.6,375.9 267.9,420.4 309.6,432.2 			"/>
			<polygon class="st28" points="309.6,432.2 291.9,445.9 267.9,420.4 			"/>
			<polygon class="st50" points="267.9,420.4 309.6,494.5 291.9,445.9 			"/>
			<polygon class="st50" points="264.3,336.8 294.6,375.9 282.4,396.2 			"/>
			<polygon class="st15" points="385.1,262.7 408.3,241.1 408.3,265.7 			"/>
			<polygon class="st44" points="385.1,262.7 408.3,293.7 408.3,265.7 			"/>
			<polygon class="st56" points="385.1,262.7 375.8,310.5 408.3,293.7 			"/>
			<polygon class="st56" points="408.3,241.1 385.1,193.4 408.3,215.7 			"/>
			<polygon class="st42" points="385.1,193.4 385.1,262.7 408.3,241.1 			"/>
			<polygon class="st42" points="385.1,193.4 392.5,158.6 408.3,215.7 			"/>
			<polygon class="st42" points="375.8,310.5 348.8,309.1 363.6,336.1 			"/>
			<polygon class="st42" points="312.7,252.7 277.2,264.2 283.8,287.7 			"/>
			<polygon class="st42" points="283.8,287.7 249.7,315.5 264.3,336.8 			"/>
			<polygon class="st15" points="408.3,293.7 408.3,340.3 393.4,301.4 			"/>
			<polygon class="st3" points="385.1,193.4 356.2,240.6 385.1,262.7 			"/>
			<polygon class="st3" points="392.5,158.6 408.3,171.9 408.3,215.7 			"/>
			<polygon class="st3" points="312.7,252.7 301.9,205.7 277.2,264.2 			"/>
			<polygon class="st7" points="356.2,240.6 351.3,208.2 301.9,205.7 			"/>
			<polygon class="st53" points="356.2,240.6 351.3,208.2 365.1,184.7 			"/>
			<polygon class="st53" points="301.9,205.7 356.2,240.6 312.7,252.7 			"/>
			<polygon class="st53" points="348.8,309.1 375.8,310.5 385.1,262.7 			"/>
			<polygon class="st3" points="375.8,310.5 408.3,340.3 393.4,301.4 			"/>
			<polygon class="st3" points="375.8,310.5 373.3,338.1 363.6,336.1 			"/>
			<polygon class="st3" points="373.3,338.1 364.4,383.4 353.6,358.2 			"/>
			<polygon class="st42" points="344.1,336.1 364.4,383.4 347.3,365.4 			"/>
			<polygon class="st51" points="347.3,365.4 342.7,413.4 364.4,383.4 			"/>
			<polygon class="st51" points="373.3,338.1 353.6,358.2 363.6,336.1 			"/>
			<polygon class="st7" points="356.2,240.6 365.1,184.7 385.1,193.4 			"/>
			<polygon class="st16" points="408.3,464.6 376,448.1 408.3,435.6 			"/>
			<polygon class="st32" points="408.3,435.6 387.5,411.8 408.3,405.5 			"/>
			<polygon class="st51" points="387.5,411.8 376,448.1 408.3,435.6 			"/>
			<polygon class="st51" points="376,448.1 381.9,471.1 408.3,464.6 			"/>
			<polygon class="st51" points="387.5,411.8 408.3,375.9 408.3,405.5 			"/>
			<polygon class="st50" points="347.3,365.4 342.7,413.4 314.5,460.2 			"/>
			<polygon class="st28" points="342.7,413.4 339.8,454.6 314.5,460.2 			"/>
			<polygon class="st18" points="339.8,454.6 330.7,483 314.5,460.2 			"/>
			<polygon class="st18" points="339.8,454.6 364.4,383.4 342.7,413.4 			"/>
			<polygon class="st18" points="408.3,375.9 379.2,372 387.5,411.8 			"/>
			<polygon class="st18" points="376,448.1 381.9,471.1 351.7,454.6 			"/>
			<polygon class="st31" points="387.5,411.8 364.4,383.4 379.2,372 			"/>
			<polygon class="st31" points="387.5,411.8 376,448.1 351.7,454.6 			"/>
			<polygon class="st53" points="379.2,372 373.3,338.1 364.4,383.4 			"/>
			<polygon class="st28" points="387.5,411.8 339.8,454.6 364.4,383.4 			"/>
			<polygon class="st28" points="379.2,372 408.3,340.3 408.3,375.9 			"/>
			<polygon class="st7" points="408.3,340.3 373.3,338.1 379.2,372 			"/>
			<polygon class="st50" points="408.3,340.3 375.8,310.5 373.3,338.1 			"/>
			<polygon class="st13" points="351.7,454.6 339.8,454.6 387.5,411.8 			"/>
			<polygon class="st37" points="392.5,158.6 408.3,110.7 408.3,171.9 			"/>
			<polygon class="st37" points="408.3,110.7 369.5,83 408.4,61.6 			"/>
			<polygon class="st35" points="369.5,83 369.6,82.7 389.8,3.1 408.4,61.6 			"/>
			<polygon class="st35" points="392.5,158.6 408.3,110.7 369.5,83 			"/>
			<polygon class="st35" points="385.1,193.4 366,136.6 365.1,184.7 			"/>
			<polygon class="st35" points="365.1,184.7 318.9,156.4 351.3,208.2 			"/>
			<polygon class="st36" points="392.5,158.6 366,136.6 369.5,83 			"/>
			<polygon class="st36" points="351.3,208.2 269,153.5 301.9,205.7 			"/>
			<polygon class="st38" points="301.9,205.7 228.1,192.6 191.5,287.7 			"/>
			<polygon class="st36" points="365.1,184.7 366,136.6 323,89.8 			"/>
			<polygon class="st22" points="351.3,208.2 269,153.5 318.9,156.4 			"/>
			<polygon class="st22" points="385.1,193.4 392.5,158.6 366,136.6 			"/>
			<polygon class="st22" points="323,89.8 318.9,156.4 365.1,184.7 			"/>
			<polygon class="st22" points="301.9,205.7 213.7,144.8 174.8,183.1 			"/>
			<polygon class="st22" points="277.2,264.2 238.4,252.7 283.8,287.7 			"/>
			<polygon class="st22" points="283.8,287.7 249.7,315.5 168,337.1 			"/>
			<polygon class="st22" points="264.3,336.8 168,337.1 227.1,386.4 			"/>
			<polygon class="st54" points="238.4,252.7 240.8,306.1 168,337.1 			"/>
			<polygon class="st54" points="277.2,264.2 301.9,205.7 238.4,252.7 			"/>
			<polygon class="st54" points="264.3,336.8 267.9,420.4 227.1,386.4 			"/>
			<polygon class="st20" points="267.9,420.4 307.9,526 309.6,494.5 			"/>
			<polygon class="st54" points="267.9,420.4 185.5,499.8 284.4,463.8 			"/>
			<polygon class="st43" points="238.4,252.7 283.8,287.7 240.8,306.1 			"/>
			<polygon class="st43" points="249.7,315.5 264.3,336.8 168,337.1 			"/>
			<polygon class="st27" points="318.9,156.4 269.5,105.1 269,153.5 			"/>
			<polygon class="st43" points="213.7,144.8 175.7,71.9 269,153.5 			"/>
			<polygon class="st23" points="323,89.8 269.5,105.1 244.6,13 			"/>
			<polygon class="st11" points="369.5,83 319.5,2 324.5,53.1 			"/>
			<polygon class="st23" points="334.7,26.5 383.9,26.5 369.5,83 			"/>
			<polygon class="st1" points="189.6,98.5 135.3,140.7 111,105 			"/>
			<polygon class="st11" points="135.3,140.7 121.6,242.4 174.8,183.1 			"/>
			<polygon class="st11" points="213.7,144.8 189.6,98.5 135.3,140.7 			"/>
			<polygon class="st30" points="118.2,342.7 118.1,495.6 83.2,456.5 			"/>
			<polygon class="st6" points="118.2,342.7 160.9,441.2 118.1,429.9 			"/>
			<polygon class="st26" points="118.2,342.7 267.9,420.4 168,337.1 			"/>
			<polygon class="st21" points="228.1,192.6 154.9,278.3 191.5,287.7 			"/>
			<polygon class="st1" points="118.2,342.7 238.4,252.7 168,337.1 			"/>
			<polygon class="st46" points="118.2,342.7 153.9,361.3 136.6,385.2 			"/>
			<polygon class="st25" points="118.2,342.7 154.9,278.3 191.5,287.7 			"/>
			<polygon class="st25" points="136.6,385.2 188.8,379.3 153.9,361.3 			"/>
			<polygon class="st9" points="188.8,379.3 160.9,441.2 136.6,385.2 			"/>
			<polygon class="st1" points="188.8,379.3 267.9,420.4 160.9,441.2 			"/>
			<polygon class="st52" points="267.9,420.4 185.5,499.8 160.9,441.2 			"/>
			<polygon class="st1" points="121.6,242.4 154.9,278.3 118.2,342.7 			"/>
			<polygon class="st43" points="121.6,242.4 228.1,192.6 174.8,183.1 			"/>
			<polygon class="st0" points="121.6,242.4 228.1,192.6 154.9,278.3 			"/>
			<polygon class="st0" points="121.6,242.4 73.7,348.1 118.2,342.7 			"/>
			<polygon class="st0" points="135.3,140.7 85.5,175.2 129.3,184.7 			"/>
			<polygon class="st1" points="85.5,175.2 121.6,242.4 129.3,184.7 			"/>
			<polygon class="st0" points="175.7,71.9 269.5,105.1 269,153.5 			"/>
			<polygon class="st0" points="324.5,53.1 366,136.6 369.5,83 			"/>
			<polygon class="st27" points="324.5,53.1 323,89.8 366,136.6 			"/>
			<polygon class="st27" points="213.7,144.8 174.8,183.1 135.3,140.7 			"/>
			<polygon class="st8" points="269.5,105.1 214.4,46 254.6,50 			"/>
			<polygon class="st11" points="324.5,53.1 244.6,13 323,89.8 			"/>
			<polygon class="st11" points="318.9,156.4 269.5,105.1 323,89.8 			"/>
			<polygon class="st11" points="269,153.5 301.9,205.7 213.7,144.8 			"/>
			<polygon class="st6" points="160.9,441.2 118.1,495.6 151.8,540.5 			"/>
			<polygon class="st6" points="114.6,634.7 188.4,584.2 151.8,540.5 			"/>
            <ellipse transform="matrix(0.983 0.1838 -0.1838 0.983 86.0728 -37.9192)" class="st22" cx="247.5" cy="445.3" rx="4.7" ry="9.6"/>
		</g>
	</g>
</g>
</svg> 