 <svg width="250" height="140" viewBox="0 0 250 140" xmlns="http://www.w3.org/2000/svg"><path d="M120.95 45.907l-1.18 1.573-.784.786-1.57.865-.236.71s-.628.63-.55 1.022c.08.393.08 1.1.08 1.1s-1.1 1.024-1.57 1.338c-.472.314-1.1 1.022-1.1 1.022s-.393.473-.628.63c-.236.157-.628.63-.942 1.1-.315.473-.63.787-.786 1.023-.157.236-.628.786-.863 1.652-.235.865-.863 1.887-.863 1.887l-.157.393c.078 1.338.078 1.574.235 2.046.157.47.315.314.157 1.337-.157 1.022-.157 1.415-.314 1.887s-.628 1.337-.784 1.73c-.158.394.314 1.1.314 1.1s.235 1.024.078 1.26c-.157.236.08.708.08.708s.94.55 1.255.865c.315.315.865.787.943 1.023.08.236.707 1.337.785 1.573.08.236.707 1.1.864 1.337.157.236.942 1.1.942 1.1s1.02.787 1.257 1.102c.236.314.943.472 1.178.707.236.236.785.157 1.1.394.314.236.942-.158 1.256 0 .314.157 1.178-.157 1.413-.315.236-.156.785-.706 1.178-.47.392.235.628 0 .942.078.314.08.785-.314 1.1-.314.313 0 1.098-.315 1.334-.315s1.022-.474 1.336-.474c.314 0 .706-.313 1.1-.156.39.156.234-.315.94-.08.708.236.943 0 1.18.236.234.237.55 0 .784.316.236.314.628.55.707.865.078.314.55.63.55.63l.47.077s.63-.47.785-.156c.157.314.864.236.864.236l.707.786.235.315s.472 1.258.393 1.73c-.078.472-.078 1.494-.313 1.73-.236.236-.393 1.26-.393 1.26s-.314.313.393.942c.707.63 1.178 1.18 1.413 1.494.236.316.864 1.182.942 1.732.08.55.236.865.55 1.573.314.708.707.786.785 1.573.08.787.236.787.157 1.337-.078.55-.314.63-.078 1.022.235.394.55 1.102.47 1.338-.078.235-.235 1.258-.235 1.258l-.156.472-.706 1.338-.472.707c-.157.55-.47 1.1-.392 1.887.078.787-.392.787.235 1.573.628.787.94 1.652 1.334 2.36.393.708.628 1.416.707 1.887.08.472.393.63.55 1.26.157.628.236.942.236 1.336 0 .393-.08 1.416.08 1.652.155.236.234.944.313 1.258.077.315-.237.394.234.944.47.55.785.865 1.1 1.26.313.392.235.235.47.785.236.55.55.866.63 1.337.077.47.155 1.65.39 2.2.237.552.55 1.103.55 1.103s.865.55 1.18.472c.312-.08.94-.786 1.412-.55.47.235.864 0 1.256 0 .393 0 .785-.473 1.178-.473.393 0 .942-.63 1.257-.472.314.157.706-.158 1.098-.55.393-.393.63-.708 1.335-1.337.707-.63.628-.63 1.1-1.023.47-.393.942-1.26 1.49-1.416.55-.157.708-.707.865-1.1.157-.394.235-.63.47-.945.237-.315.08.08.472-.944.393-1.023.865-1.416 1.257-1.652.392-.236.628-.708.863-.787.236-.08.63.236.472-.472-.158-.707 0-1.73-.158-1.966-.157-.237-.393.55-.314-.63.08-1.18.942-2.36.942-2.36s1.178-1.494 1.57-1.73c.393-.236.47-.472 1.02-.787.55-.314 1.728-1.1 1.728-1.494 0-.394.472-1.417.472-1.653s0-.472-.157-1.81c-.157-1.336.157-1.02-.314-2.28-.472-1.258-.55-2.83-.865-3.224-.314-.394-.157-1.417-.157-1.73 0-.315.55-1.102.785-1.416.236-.315 1.256-1.574 1.256-1.574s1.57-1.808 2.12-2.673c.55-.866 1.098-1.652 1.49-1.966.394-.315 1.336-1.024 1.885-1.81.55-.786 1.65-2.28 1.728-2.517.078-.235.706-1.022.706-1.022s.863-1.023 1.02-1.573c.157-.55.942-3.618.785-3.46-.157.157-1.1.314-1.413.392-.314.08.47.393-1.806.237-2.277-.157-3.454.236-3.454.236-.708-.157-1.257.63-1.493-.472-.236-1.1-.394-1.73-.864-2.516-.47-.787-.786-1.1-1.492-2.124-.706-1.022-.628-.55-1.257-1.337-.627-.786-.785-.55-1.177-1.573-.393-1.022-.707-.63-1.178-2.045-.47-1.417-.785-1.574-1.02-2.36-.236-.787-.55-1.023-.707-1.73-.157-.71-1.963-4.327-2.2-4.563-.234-.235-.627-1.494-.548-1.258.078.235 1.178 1.02 1.178 1.02s.627-.235.863-.235 1.178.866 1.178 1.18c0 .315 1.65 1.81 2.042 2.91.392 1.1.864 1.888.942 2.202.078.315.864 1.574 1.178 2.046.313.472 1.334 1.415 1.49 1.887.158.472 1.65 2.045 1.65 3.068 0 1.022.706 2.36.785 2.673.08.316 1.492.71 1.492.71l1.885-.472s2.826-1.81 3.14-1.81c.314 0 2.827-1.18 2.827-1.18s1.02-.943 1.727-1.493c.707-.55 1.492-1.573 1.65-2.045.156-.473.47-.55 1.098-1.26.628-.707 1.492-1.415.942-1.887-.55-.47-.864-.314-1.648-1.1-.786-.787-.707-.63-1.257-1.653-.55-1.022.078-2.202-1.1-1.022-1.178 1.18-.707 1.495-1.885 1.73-1.177.237-1.65 1.023-2.198.237-.55-.787-1.1-.315-1.414-1.495-.314-1.18-.55-1.26-.628-1.73-.078-.472 0-.472-.628-1.652s-.157-2.99.236-1.966c.392 1.022 1.02 1.18 2.04 1.887 1.022.707 1.493 1.258 2.435 1.337.942.078 1.728 0 1.885.156.157.158.313-.078.706.08.392.157.548-.236.706.392.157.63 1.02.708 1.413 1.1.392.394.392.237 1.413.394 1.02.157 2.434.157 2.434.157l1.49-.08 1.73.158s1.256.708 1.57.708c.313 0 .392.865 1.177 1.337s.942.55 1.413 1.1c.472.552.393.788 1.02 1.338.63.55 1.65-.078 1.807-.314.157-.236.942-.63.786 0-.158.63.784.393.55 1.888-.237 1.494-.394 1.1 0 2.123.39 1.023 2.118 4.17 2.197 5.113.08.943.55.63.628 1.495.08.864.55 1.18.55 1.808 0 .63.55.787.628 1.26.08.472.942.078 1.178 0 .237-.08 1.335-1.102 1.335-1.102s.472-.156.393-.943c-.08-.786 0-.63 0-1.81 0-1.18-.47-1.18-.235-2.358.235-1.18.863-1.888 1.02-2.438.157-.552.786-1.496 1.1-1.575.313-.078 2.04-.943 2.434-1.494.392-.55 1.02-1.18 1.65-1.808.627-.63 1.726-1.415 1.962-1.18.234.236.156.158.548.158.393 0 1.1.315 1.65.393.55.08 1.648 1.416 1.884 2.124.235.708.078.55.942 1.573.864 1.022 1.65.393 1.65 1.65 0 1.26 0 1.18.392 1.653.392.472.863-.865 1.334-.707.47.157.55-.158.942 1.1.392 1.26.628 1.26.707 2.518.077 1.258-.08.078-.08 1.1 0 1.023-.08 1.102.08 2.045.155.944.705 1.258.627 1.415 0 0 .47-1.337.313-2.28-.156-.944 0-2.28.393-2.674.393-.393.786-.786 1.1.237.314 1.022.47.236 1.177 1.415.707 1.18 1.335.944 1.413 1.494.08.55.472.63 1.02 1.1.55.474 1.022-.077 1.65-.55.63-.47 2.355-2.2 2.435-2.91.078-.707.784-.55-.472-2.358-1.257-1.81-1.257-2.44-2.59-3.54-1.335-1.1-2.12-1.18-1.1-2.595 1.02-1.416 1.492-2.36 2.12-1.966.628.393 1.727.314 1.727 1.887s-.314 3.304.785 1.416c1.1-1.888 1.65-2.99 1.335-2.674-.314.315.706-.63.706-.63s.078-.707 1.413-1.02c1.335-.317 1.727-.473 2.2-.71.47-.236 1.805-1.81 2.04-2.516.235-.708.864-1.967.707-2.517-.157-.55-.943-3.224-1.1-3.146-.156.08-.078.08-1.098-1.022-1.022-1.1-1.728-1.888-1.885-2.36-.157-.472-.55-.55-.08-1.18.473-.63.708-.55.787-1.1.078-.55.706-1.023-.472-.63-1.177.393-.314.158-1.335.08-1.02-.08-3.69.55-2.354-1.102 1.334-1.652 1.726-2.674 1.962-2.674s1.414-1.338 1.492-.08c.078 1.26.55.944.628 1.73.08.787 1.65-.864 1.65-.864s.548.157.94.55c.393.393.393 1.652.393 1.652s-.313-.394.55.236c.864.63 1.806.314 1.806 1.65 0 1.338 0 1.417.55 1.732.55.314 1.098.157 1.57-.236.47-.393 1.256-1.81 1.256-1.81s.08-.55-1.178-1.336c-1.256-.787-2.04-1.337-2.51-1.73-.473-.394-.316-1.573.155-2.046.472-.472.707-.708.55-1.337-.158-.628.235-1.1 1.413-1.02 1.178.078 1.413-.08 1.413-.08s.236.157.236-.315c0-.47 1.49-2.674 1.098-2.674-.393 0 .08-.55-.157-1.414-.235-.866.786-2.202-.077-2.832-.864-.63-1.1-.944-1.65-1.887-.55-.945-.47-1.1-2.512-1.338-2.04-.237-2.982.47-3.454-.158-.47-.63-.706.944-1.02-.944-.314-1.887.47-3.146.47-3.146s1.257-.786 1.57-1.337c.315-.55 1.57-.787 2.593-.393 1.02.393 2.51.314 3.768.55 1.256.236 1.177 1.023 1.805 0 .628-1.022 0-1.494.47-2.044.473-.55 1.022-1.416 1.415-.866.392.55 1.178 1.1 1.806.393.628-.707.864-.786.864-.786l.313.314s.708-.394.708.314.707 1.495.314 2.045c-.393.55-.942.472-.942 1.81 0 1.337 0 1.1.863 2.202.864 1.1 1.414.157 1.57 1.337.158 1.18.314.944 1.18 1.73.862.786.705.786 1.333 1.258.63.472.943.945.943.158 0-.787.077-1.18 0-1.888-.08-.707.627-1.258.155-2.438-.47-1.18-.078-1.1-1.02-1.966-.943-.865-1.57.157-1.884-1.1-.314-1.26 1.492-1.81 1.964-1.968.47-.156 1.177-1.1 1.334-.47.157.628-1.178 2.91 1.1.47 2.276-2.438 1.256-1.415 1.256-1.415s1.177-.157 1.413 0c.235.157.864-.708.628-.63-.236.08-2.512-1.258-2.512-1.258l-1.65-.943s.55-.394.943-.315c.393.08.472-.786.864-.865.393-.08 3.062.55 3.612.865.55.315 2.512.393 2.276.236-.235-.157-1.49-1.1-1.57-1.416-.078-.314-2.826-.944-3.69-.865-.864.078-1.648.314-2.355.078-.707-.236-1.727-.865-2.277-.865s-7.46-1.337-7.773-1.258c-.314.078-.785 1.573-1.02 1.337-.236-.236-.63-.236-1.73-.55-1.097-.315-2.59-.552-4.553-.71-1.962-.156-3.297.16-3.846-.47-.55-.63-1.727-.394-3.062-.473-1.335-.077-2.905 0-3.612 0-.707 0-2.355-.077-2.748-.156-.393-.08-.864-.63-1.335-.708-.47-.08-.393-.235-1.335-.393-.942-.157-.863-1.18-1.177-.315-.314.866-.158.63-.628.944-.472.315-.943.944-1.257.944-.314 0-1.57.08-1.806-.08-.236-.156-.628-.313-1.413-.313s-.785.078-1.805-.08c-1.02-.156-1.806-.078-2.748-.55-.943-.47-.943-.786-1.728-.707-.785.08-.785-.158-1.885-.158s-2.434.63-3.14.708c-.707.08-2.277-.08-2.827-.314-.55-.236-.707-.787-2.748-.55-2.042.235-3.22.235-2.827-.394.393-.63.864-1.26 1.1-1.337.235-.078.784-.47.39-.628-.39-.158-.784-.393-1.725-.472-.943-.08-.865.314-2.278.157s.786-.55-2.12-.472c-2.904.08-3.61.315-3.925.315-.314 0-.707-.63-1.492.314s-1.885 1.494-3.455 1.573c-1.57.08-1.65-.157-3.14.393-1.492.55-2.434-.157-2.12 1.1.314 1.26.707 1.732.707 1.968 0 .235-.707 1.81-1.57.865-.865-.944-2.435-4.64-1.728-2.124.706 2.516 2.276 3.38.785 3.774-1.492.394-1.335-.157-1.57-.314-.236-.158 0-1.26-.08-1.888-.078-.63-.235-1.022-.55-1.337-.312-.315-.234-.787-.862-.944-.63-.156-.08-.47-1.1-.47s-1.884-.63-1.648.786c.235 1.415.47.472 1.098 1.81.628 1.336 1.806.392.943 1.336-.864.943-3.14.63-3.69.236-.55-.394-.393.157-1.414-.55-1.022-.71-.707-1.26-1.885-.71-1.178.552-1.57 1.574-2.042 1.18-.47-.393-1.57.55-1.962.08-.392-.472-1.963-.472-2.276 0-.315.472-1.257.393-2.59 1.022-1.336.63-.944.08-2.593 1.416-1.648 1.337-2.59 2.438-3.14 1.573-.55-.866-3.533-2.36-2.355-2.597 1.178-.236 1.728-.708 2.356-.157.63.55 1.65.393 1.806 0 .157-.394.865-.787-.078-1.258-.942-.473-1.02-.158-2.512-.708-1.492-.55 0-.394-2.042-.708-2.04-.315-2.905-.472-3.455-.63-.55-.157-1.336 0-2.12-.078-.786-.08-1.335-.236-2.042-.157-.706.078-1.1-.08-2.04.63-.944.707-1.65 1.022-2.28 1.572-.627.55-2.275 1.65-2.746 2.044-.472.393-2.12 1.652-2.278 2.124-.157.472.157.865-.47 1.18-.63.314-1.257.314-1.728.392-.472.08 0-.707-.472.08-.47.786-.314 3.617.08 3.224.39-.394.156-1.652 1.883-.472 1.728 1.18 2.827 1.022 2.748 2.123-.078 1.1 1.178 1.023 1.335 1.26.157.235.942-.316.942-.316s1.728-1.102 1.728-1.652c0-.55 1.1-1.81 1.1-1.81s-.787-.392-.787-1.18c0-.785.236-1.022.393-1.808.157-.786-.864 0 1.492-1.495 2.355-1.494 2.512-.47 2.512-.47s.314.313-.08.785c-.39.472-1.098 1.73-1.255 1.888-.157.157.707 1.416 1.1 1.416.392 0 1.177-.315 1.648-.237.472.08 1.257-.235 1.492-.078.236.156.785.628.392 1.022-.392.393-1.256.864-1.884.708-.628-.157-1.57-1.26-1.02.314.55 1.573-.08 1.966-.55 1.888-.47-.08-1.492-.865-1.335.314.157 1.18-1.02 1.966-1.256 1.966s-.707-.078-.707-.078-.707-.08-1.1-.08c-.39 0-1.177.394-1.412.71-.236.313-.55.078-.942.078-.392 0 0-.472-.785-.63-.784-.157-1.256-.314-1.727 0-.47.315-1.177.472-1.492.236-.314-.236.158-.787-.47-.47-.63.313-1.1 1.178-1.336 1.257-.235.078.707 0-.235.078-.942.08-1.335.316-1.806.473-.472.157.156 1.1-.708 1.415-.863.316-.235-.392-1.1.316-.863.708-1.02 1.337-1.333 1.415-.316.08-.237.237-.944.316-.706.08-.628.157-1.02.236-.393.078.078.236-.786.078-.864-.157-1.49.158-1.335.473.157.314 3.063 1.18.864 1.1-2.2-.078-1.492.315-1.02.63.47.314.705.63.94.708.237.08.63 1.023.63 1.023s.627-.08.234.472c-.392.55.157.708-.235 1.416-.394.71-.394.237-.708.394-.314.157-.785.708-1.65.236-.863-.472-1.49-.708-2.51-.786-1.022-.08-.316-.236-1.022.314-.707.55-.864 1.18-.785 1.887.08.708.157 1.652-.08 2.124-.234.47-.234.943-.078 1.65.158.71.63 1.024.63 1.024s1.098.157 1.334.236c.236.078.707-.157 1.335.235.63.394 1.257.55 1.65.08.392-.472 1.962-1.023 2.434-1.495.47-.472.784-.63.548-1.1-.235-.473.47-1.653.864-1.89.392-.234 1.256-.47 1.256-.47l.942-1.416s.785-.866 1.178-.787c.392.08 2.59.866 2.434-.157-.157-1.023.157-1.337.392-.944.236.393.864.236.864.236s.314-.157.55.08c.235.234.55 1.258 1.02 1.493.472.236.864.472 1.178.63.314.157.628 0 1.257.55.628.55 1.256.865 1.334 1.1.08.237.63.787.63.787s.548.158.39.473c-.156.314-.94 1.258-1.334 1.415-.392.157-1.413-.158-1.02.157.392.315.942.708 1.177.472.236-.237 1.727-1.81 1.727-1.81s-.078.08 0-.393c.08-.472 0-1.022.393-.787.393.237.628.55.785.237.157-.315.314-.158-.078-.394-.393-.236-1.335-1.573-1.806-1.65-.47-.08-1.65-.867-1.65-.867s-.234-.236-.783-.865c-.55-.628-.707-.47-.864-1.02-.157-.552-.63-1.26.235-1.103.864.158 1.413.708 2.2 1.18.784.472.627.63 1.334 1.1.706.473.785.945 1.334.867.55-.08 1.178.314 1.178 1.022s.157 1.494.314 1.652c.157.158.628.472.785.787.157.314.47 1.1.707 1.415.235.315.47.55.706.944.236.393.314-.08.55.08.235.156.55.077.55-.237 0-.315.078-.866.078-.866s1.1-.313.785-.47c-.315-.158-1.257-1.102-1.18-1.416.08-.315 0-.944.394-.865.392.077.785.785 1.65.156.863-.63 1.883-.944 1.57 0-.315.944.078 1.1 0 2.123-.08 1.022.314.707.863 1.258.55.55.942.63 1.335.787.392.157 1.02.08 1.65.157.627.08 1.02-.236 1.57-.078.548.157 1.805-.08 2.04.078.237.157 1.18-.314 1.257.236.077.55.392-.08.156 1.18-.235 1.258-.55 2.123-.55 2.123-.863 1.653-1.177 2.046-1.57 2.125-.392.08-.628.315-1.334.236-.707-.078-1.57 0-2.59-.235-1.022-.236-2.907.236-3.692-.236-.785-.473-1.884-.08-2.356-.63-.47-.55-1.256-.472-1.57-.787-.314-.314-.47-1.18-.47.08 0 1.258-.708 1.336-.864 1.966-.158.628.235.313-.63.234-.863-.08-1.098.394-2.354-.55-1.257-.944-1.885-.944-2.513-1.337-.628-.394-1.256.707-1.884-.55-.63-1.26-1.493-.237-1.572-1.26-.078-1.022 0-.943.08-1.572.078-.63.94-1.18.55-1.416-.394-.236-.08-.63-.63-.394s-1.334.315-1.962.55c-.63.237 1.413 0-1.65.237-3.06.236-3.925.55-3.925.55s-.235-.157-.628.158c-.392.315-.942.787-1.49.55-.55-.235-.865-.156-1.336-.077-.47.078-.785-.394-1.335 0-.548.392-1.176.55-1.412.392-.236-.16-.63-.788-.63-.788zm52.526 51.752c-.235.865-1.1 2.123-1.1 2.123l-1.57.786s-.548.47-.863.55c-.314.078-1.1.472-1.1.472s-.706-.158-.47.55c.235.708.314 1.573.235 1.81-.078.235-.078.707-.078 1.337 0 .628-.236 1.414-.628 1.57-.393.16-.786.316-.707.867.08.55.08 2.202.08 2.202l1.02 1.572s.314-.236.942-.236c.627 0 1.256-.55 1.256-.55s.707.157.628-.708c-.078-.865.316-1.888.236-2.124-.078-.236.707-1.258.707-1.494s.786-1.337.786-1.73.548-1.023.627-1.494c.078-.473.157-1.573.314-1.888.158-.314.236-.63.236-.944v-.943l-.55-1.73zm61.478 10.617c-.235.314-.392 3.697-.55 4.09-.156.393-.47 2.438-.313 2.91.158.472.393 2.202.237 2.753-.158.55.078 2.28-.315 2.202-.392-.08-.55.08-.55.315 0 .236.55.707.55.707s.943 0 1.335-.078c.393-.08 1.178-.472 1.806-.472.628 0 1.02-.473 1.57-.473s1.728-.39 2.042-.234c.314.156.785-.944 1.335-.708.55.236 1.727-.55 2.277-.55s.785-.866 1.413-.708c.628.157 1.806-.315 2.356-.08.55.237 1.413-.786 1.805 0 .394.787 1.572 1.102 1.572 1.495s-.08 1.26-.08 1.26l.943-.08s1.492-.944 1.728-.944c.235 0 .785-.785.785-.392s-.472 1.26-.628 1.65c-.157.395.156.867.156.867s.786.393.472 1.1c-.314.71.078.552 0 1.102-.08.55 0 .314.313.63.316.314.866.865 1.336.786.472-.08.628-.55 1.02-.315.394.236 1.178.08 1.414.394s-1.49 1.1 1.492-.236c2.984-1.338 3.297-1.652 3.69-2.124.394-.472.865-.944 1.178-1.26.314-.313.08-.235 1.02-.943.943-.708.943-.394 1.807-1.73.864-1.338 1.49-1.81 1.65-2.046.156-.236.47-.314.548-1.26.08-.942.707-1.808.707-2.122 0-.314.235-.786.157-1.337-.08-.55.313-1.337-.158-2.123-.47-.787.235-1.1-.47-1.416-.708-.315-1.18-.157-1.336-.708-.157-.55-.786-.472-1.02-1.966-.237-1.494-1.18-1.652-1.18-1.652s-.94-.393-.705-.55c.237-.158.315-1.26.237-1.574-.08-.314-.08-1.022-.314-1.494-.236-.472-.393-1.1-.628-1.652-.236-.55-.628-.708-.786-1.337-.158-.63-.393-.865-.472-1.022-.08-.156-.236-.943-.392-.078-.157.865-.472 2.516-.472 2.516s-.628 1.338-.864 1.73c-.235.394-.47 1.417-.863 1.338-.393-.08-.63.394-.942.314-.315-.08-.786.08-1.02-.157-.236-.236-.865-.865-1.18-.944-.313-.08-.548-.708-.784-.708-.235 0-.627-.55-.55-.866.08-.314.158-1.022.237-1.337.078-.315.55-1.023.55-1.023s0-.472-.393-.472-.47 0-1.335-.08c-.865-.078-1.1-.156-1.415-.156-.313 0 .315-.16-.55.077-.862.237-1.255.866-1.805 1.417-.55.55-.078.392-.55.55-.47.158-.39-.393-.706.472-.314.865.158 1.1-.08 1.258-.234.158-1.883-.55-1.883-.55s.394-.08.08-.472c-.314-.394-.628-.944-1.1-.708-.47.236-.864.394-1.177.787-.314.394-.314.708-.55 1.023-.235.314-.863.314-.942.63-.077.314-.077 1.1-.313 1.18-.235.078-.313-.315-.55-.394-.234-.08-.156-.71-.313-.315-.157.393-.314.314-.55.943-.235.63-.314 1.18-.55 1.26-.235.078 0 .156-.706.55-.706.393-.864.393-1.884.865s-.785.472-1.49.55c-.708.08-.866.315-1.336.394-.472.078-.785.156-1.257.63-.47.47-.862.628-1.176.707-.314.078-.63.393-.63.393zm4.632-31.067c-.313.472-1.334 1.888-1.726 1.967-.393.078-.786.472-1.1.393-.314-.08-1.02 0-1.256 1.022-.236 1.023-.628 1.573-.865 1.494-.236-.078.392 1.494-.942.866-1.335-.63-.864.55-1.02.865-.158.315.234 1.18.313 1.495.08.314.315.865.63 1.336.313.472.55 1.023 1.098.866.55-.158 2.277 0 2.277 0s.63.236 1.02.236c.393 0 .472-.157.707-.157s.707-.787.628-.866c-.078-.08-.313-.314.157-.786.472-.472 1.02-.628 1.1-1.18.078-.55-.157-.55.078-.865.236-.314.785-.235.63-.55-.16-.315.155-.236-.16-.866-.312-.63-.705-.866-.39-1.652.313-.787.628-.944.55-1.416-.08-.472.39-.63-.16-1.18-.548-.55-.784-.708-1.176-.866l-.394-.156zm15.39 7.865c.314-.078 1.413-.865 1.492.55.078 1.417.156 1.023.628 1.81.47.786.784 1.023 1.334.63.55-.394 1.178-.394 1.334-1.102.158-.708.158-.708.63-.708.47 0 .627-.078.863.237.236.314.392 0 1.413.55 1.02.55 1.884.393 2.513.944.628.55.942.472 1.806.786.863.315.47-.157 1.255.708.786.865.472 1.1.864 1.494.39.394.706-.314.548.63-.157.943-1.256 0 .393 1.336 1.65 1.338 1.886 1.574 2.435 1.967.55.393.942.865.472.865-.472 0-1.964 0-2.12-.236-.158-.236-.864-.394-1.336-.944-.47-.55-1.49-.944-1.725-1.415-.236-.473-.55-.63-.942-.63-.393 0-.785.472-1.335 1.023-.55.55-.314-.314-1.02-.08-.708.237-1.492-.078-1.886-.392-.392-.315-.313-.787-.94-.55-.63.235-1.022.078-.786-.394.235-.472.078-1.1.078-1.1s.236-.788-.313-.945c-.55-.158-.55-.708-1.1-.866-.55-.157-1.412-.55-1.412-.55s-.08 0-.314-.08c-.236-.078-.236-.078-.864-.235-.628-.16-1.1-.002-1.413-.395-.315-.393-.157-.943-.157-.943s1.256.157 0-.787l-1.257-.943s.157-.08.08-.237c-.08-.158.782 0 .782 0zm-35.332-6.528s.392.394 1.02.315c.628-.08 1.1 1.258 1.492 1.73.392.472.628.708 1.492 1.258.863.55.785-.472 1.963 1.18s.63.63 1.178 1.652c.55 1.023.864 1.573 1.178 1.81.314.235.55.864.63 1.1.077.236.626.944.626 1.18s.157.865-.314 1.416c-.47.55-.864.63-.864.63s-.942-.473-1.256-.945c-.314-.472-.706-.865-1.256-1.81-.55-.943-1.178-1.965-1.492-2.437-.314-.472-.785-.944-1.02-1.416-.236-.472-.864-1.888-1.178-2.045-.314-.158-.393-.63-.943-1.18-.55-.55-.472-1.022-.707-1.337-.236-.314-.785-1.023-.785-1.023l.236-.078zM66.93 139.895c-.55-.314-1.728-.865-2.12-1.18-.392-.314-1.57-2.045-1.57-2.045l-.864-1.652s-1.02-1.258-.785-1.73c.236-.472.708-.786.708-1.022s.47-.866.078-1.1c-.393-.237-.393-.316-.628-1.024-.236-.707-.236-1.337-.55-1.494-.314-.157-.55-1.18-.864-1.258-.313-.08-.628-.63-.628-.63l-.47-6.37s-.158-2.91-.315-3.54c-.156-.63.236-1.966-.156-3.146-.393-1.18.08-2.595-.157-3.067-.236-.472.157-1.81-.08-3.067-.234-1.26.943-2.832 0-3.303-.94-.473-.234-1.18-1.02-1.18-.784 0-1.334-.394-2.04-.944-.708-.55-2.043-1.573-2.435-1.967-.392-.393-1.65-1.415-2.04-1.73-.394-.314-.787-1.652-1.1-2.045-.314-.392-.47-1.572-.943-2.28-.472-.707-1.1-1.887-1.257-2.123-.157-.236-1.885-2.28-1.885-2.28l.157-1.26s1.178-.707 1.02-.943c-.156-.236.08-.472-.47-.944-.55-.472-.47-1.337 0-1.73.47-.394 1.177-1.652 1.177-1.652l1.178-1.966s.943-1.023.943-1.73c0-.71 1.334-1.18.55-1.81-.786-.63-.393-1.18-.63-1.652-.235-.47-.078-.786.63-1.258.706-.472 1.962-2.202 1.962-2.202s.942-.236 1.178-.236c.235 0 .628-2.518 1.335-.866.706 1.652.942.787.706 1.966-.235 1.18.314.944.628.63.314-.315-.157.236.47-1.18.63-1.416.394-1.888.786-1.494.393.393.55.472 1.257.708.706.236.942.157 1.177.63.235.47.157-.16 1.492.078 1.334.236 3.22-.472 2.983.314-.235.786-.706-.08.393.786 1.1.866 1.256 1.023 1.884 1.18.628.158 1.178.08 2.12 1.023.943.942 1.178 1.02 1.413 1.493.236.472.628.157 1.02.63.394.47.943.47 1.493.47.55 0 0-.47.863.16.865.628 1.492.706 1.885 1.965.392 1.26 1.178 1.18.55 2.438-.63 1.26-1.885 1.81-1.335 1.73.55-.078 1.57-.55 1.884-.47.314.077.47-.237.942 0 .47.234.55-.316.47.234-.078.55-.078 0-.078.55 0 .552-.157-.55.785-.313.942.236.392-.473 1.492.55 1.098 1.023 1.098.708 1.49 1.26.393.55.785-.315 1.02-.08.237.236.943.078 1.65.236.707.157.236-.472 1.335.236 1.1.706 2.198.47 2.434 1.1.234.63.863.393 1.177.786.313.394.47-.157.785.394.314.55 1.256.393 1.1.943-.158.55.234.236.077 1.022-.158.788-.708 2.046-1.178 2.36-.472.315-.47.708-.785 1.1-.314.395-.236-.392-.63.71-.39 1.1-.313 1.258-.627 2.28-.314 1.022-.078 0-.314 1.022-.235 1.023-.078 1.652-.314 2.832-.235 1.18-.156 1.18-.313 2.044-.158.865.39-.393-.316 1.416-.706 1.81-.785 1.73-1.02 2.517-.236.787.078.157-.785.63-.865.47-.394.313-1.415.628-1.02.315-2.277.63-2.67.708-.39.08-1.962.55-1.49 1.494.47.944.47 1.1 0 2.282-.472 1.178-1.178 1.572-1.178 2.122 0 .55-.315 1.1-.393 1.494-.08.393.707-.394-.235.786-.943 1.18-1.022.866-1.336 1.574-.314.707 0 .156-.314.707-.314.55-1.1.786-1.1.786s.08.393-.235.236c-.314-.157-.236.078-1.414-.237-1.176-.315-1.333-1.1-1.49-.55-.157.55.078.865.785 1.415.706.55 1.884.708 1.57 1.26-.314.55-.314.55-.55.864-.235.314.315.077-.235.314-.55.235-.864 1.258-1.1 1.258-.235 0-.392.393-.706.236-.314-.157-1.1-.708-1.256-.393-.157.314-.47-.394-.393.707.08 1.1.236 1.73-.157 1.967-.392.235-1.335 0-1.335 0l-.157-.395-.55.158s-.235.944.158 1.1c.392.158.314.315.706.787.393.472.157 1.337.157 1.337s0 .236-.392.63c-.392.393-.55.708-.628.943-.08.236-.55 1.26.157 1.18.706-.08 1.256-.472 1.256.787 0 1.258.314.944-.078 1.81-.393.864-.707.942-.786 1.73-.078.785.08.864.236 1.336.157.472.55.236.157.472-.392.236-1.57 0-1.57 0zM46.672 75.873l-.55-.786s-.234-.473-.627-.55c-.393-.08-1.257-1.102-1.257-1.102s-.392-.314-.392-.865c0-.55-.314-1.415-.08-2.36.237-.943.315-2.123.237-2.438-.08-.314.392-.393-.157-.707-.55-.315-1.65-.394-2.356-.394s-1.57.238-1.727.316c-.157.08.863-2.36 1.02-2.753.157-.393.864-2.123.864-2.36 0-.235.236-.314-.235-.628-.47-.315-1.256-.472-1.728-.236-.47.235-.392-.316-.785.628s-.786 1.966-1.257 2.124c-.47.157-1.413.63-1.413.63s-1.178-.08-1.57-.158c-.393-.08-2.042-.944-2.356-1.494-.314-.55-.47-1.73-.47-2.28 0-.552.862-2.203.784-2.597-.078-.393.864-1.966.785-2.202-.08-.235.157-1.022.393-1.336.235-.315 1.413-.708 1.727-1.023.314-.313.864-.706 1.413-.864.55-.157 1.02-.314 1.414-.314.392 0 1.413-.865 1.57 0 .157.865.864.55 1.256.63.393.078.472.47 1.1-.552.628-1.022 1.256-1.337 1.256-1.1 0 .235 1.02-.08 1.177.157.156.235.47-.158 1.02.314.55.473 1.335.552 1.256.787-.078.236.314.236.314.472 0 .235.314-.55.314.864 0 1.416.393 2.28.393 2.28s.55 1.18.785.945c.235-.237.706-.866.706-.866s.785-.472.236-2.124c-.55-1.65-.157-2.123-.314-2.674-.157-.55-.157-.865.785-1.573.942-.708 3.22-2.28 3.77-2.595.548-.315 1.804-1.18 1.804-1.18s.47-.236.55-.865c.077-.63 1.57-1.73 1.648-2.045.08-.314 1.1-1.1 1.1-1.1s1.098-.63 1.02-1.023c-.08-.393 1.413-1.1 1.65-1.1.234 0 1.49.392 1.49-.316 0-.71 0-.866.786-1.495.785-.63 1.805-1.573 2.198-1.573s1.727-.708 2.277-.865c.55-.158 2.276-.944.706 0-1.57.943-.55.393-.864 1.18-.314.786-.55 1.808.942.628 1.492-1.18 1.413-1.415 1.963-1.494.55-.077.157.237 1.335-.156s1.256-.55 1.256-.55.55-.473.236-.708c-.314-.237.314-.55-.864-.08-1.178.473-1.1.55-1.885.315-.784-.235-1.962-.156-1.1-.943.865-.786 1.964-1.022 1.257-1.337-.706-.314-2.512.08-2.747.157-.236.08-.786-.078-1.257 0-.47.08-.314-.628 0-.786.315-.156 1.335-.63 2.59-.943 1.257-.315 4.32-.393 5.026-.393.707 0 1.65.157 2.2-.236.548-.393 1.648-1.022 1.805-1.337.156-.314.784-.785.784-.785s.706-.708.314-1.023c-.393-.314-.786-1.022-1.1-.865-.313.157-.078 1.1-.706.078s-.55-1.18-.864-1.415c-.314-.236-.628-.08-.392-1.18.235-1.1.157-1.573.157-1.573s.235-.943 0-1.022c-.236-.08-.392-.314-.785-.08-.393.237-2.59 1.338-3.062 1.574-.47.235-1.1-.945-.864-1.495.236-.55.078-.236-.235-1.022-.314-.787-1.57-.945-2.042-.945-.47 0-1.57-.708-1.884-.235-.313.47-1.962 1.965-2.276 2.123-.314.158-.785-1.337-1.02 1.1-.237 2.44.863 3.147-.393 3.305-1.255.158-2.355.865-2.355.865s-1.02.08-1.02.708c0 .63-.393 2.124-.864 2.28-.47.16-1.648-.077-2.04-.55-.393-.47.078-2.2.078-2.2l.707-.71s-5.025-.785-4.947-1.1c.08-.315-1.492-.865-1.65-1.337-.156-.472-.235-1.495-.077-1.888.158-.393 2.278-2.28 3.377-2.674 1.1-.393 2.983-1.258 3.533-1.416.55-.157 1.492-.078 1.806-.47.314-.395.392-1.102.392-1.102s-.157-1.102.157-.945c.314.16.864.395.943.63.078.237.078.787.628.158.55-.63 1.256-.866 1.884-1.18.628-.315 1.57-.236 2.12-.55.55-.315 1.492-.63 1.57-1.416.08-.786-.235-.55-.628-.63-.392-.078.157.08-1.177.71-1.335.628-.943.156-1.885.628-.942.472-1.02.55-1.1.157-.078-.393.158-1.022.158-1.022s.08-.08-.47-.236c-.55-.158-.55.078-.63-.63-.078-.708.393-1.73-.392-1.416-.785.315-1.49-.236-2.04 1.337-.55 1.574-2.435 3.226-2.906 2.832-.47-.393-.55-.472-.943-.472-.392 0-.942-.47-1.648-.55-.708-.08-2.828-.08-3.377 0-.55.08-1.178-.315-1.65.158-.47.47-1.177 1.1-1.177 1.337 0 .236-.707-.866-.942-.787-.236.08-.864-.314-1.57-.314-.707 0-1.178-.394-1.413-.394-.235 0 .236-.63 0-.708-.235-.078-5.34-.235-5.34-.235s-1.648-.63-2.276-.55c-.628.078-2.355.156-3.69.392-1.335.235-3.298 1.022-3.926 1.1-.628.08-2.04.08-2.277-.314-.235-.393.08-.315-.235-.393-.314-.08-.078-.236-.784-.787-.706-.55.315-1.022-1.1-1.022-1.412 0-2.275-.08-3.532 0-1.256.08-3.847.708-4.16.63-.315-.08-2.827.392-3.22.157-.393-.236-2.356.865-2.748.787-.392-.08-1.884.08-2.277.315-.393.236-2.277.707-1.65 1.1.63.394.55.787.63 1.023.078.236-.63.786-.63.786s-.156 0-1.02-.313c-.863-.315-1.805-.472-2.198-.236-.393.237-1.1.71-.942 1.024.157.314 1.256 1.022 1.413.786.157-.236.55-.708 1.02-.63.472.08 1.18-.313.55.473-.628.786-1.177 1.18-1.57 1.26-.392.077-1.334.156-2.198.235-.864.08-.786-.315-1.57.472-.786.786-1.1.314-1.257 1.18-.156.864-.313.864 0 1.1.315.236-.627.315.08.55.706.237 1.57.473 1.49.71-.078.235.787-.316.315.313-.47.63-.785 1.18.157.55.942-.628 1.492-.157 2.277-.55.784-.393 1.57-.472 2.04-.786.472-.315.707-.786 1.414-1.023.707-.236.235.08.314.472.078.393 0 .472.47.157.472-.315.472-.078 1.1-.472.628-.392 1.335-.785 1.806-.55.47.237.628.237.942.237.314 0-.392-.08.314 0 .707.078-.314-.236 2.042.314 2.355.552 2.984.158 3.14 1.024.158.865.472-.08.864.47.392.552.628.08.864 1.024.235.944 0 3.54-.157 3.854-.157.314-.236.314-.157 1.022.078.708 1.02 4.09.706 4.326-.313.235-1.02.314-1.02.314L18.8 34.19s-.63 1.18-1.178 1.81c-.55.628-1.256 1.415-1.65 1.965-.392.55-.706 1.495-1.255 2.045-.55.55-1.02.314-.864 1.494.157 1.18 0 2.438.157 3.304.157.865.55 2.045.864 2.517.314.47.55.47 1.1.865.55.393 1.255.865 1.176 1.258-.078.393.08 2.832.08 2.832s.47.786.548 1.65c.08.867.63 1.732.63 1.732l.47 1.023s.235.08.55.707c.314.63.314.63.392.944.08.315.08.236.08.315 0 .08-.08-1.336-.237-1.73-.157-.393-.157-.865-.314-1.337-.158-.472.078-1.023-.393-1.73-.47-.708-.47-.787-.707-1.495-.235-.707-.55-1.494-.235-1.652.314-.156.55-1.18 1.177 0 .628 1.18.707.866.786 1.81.078.944.314 1.26.55 1.65.235.394.784 1.732 1.098 2.282.314.55 0-.314.707.787.706 1.1.785 1.337 1.178 2.202.393.865.63.865.864 1.494.236.63.08.473-.078 1.18-.157.708.157 1.495.157 1.495s1.1.393 1.177.63c.08.235 1.178.628 1.335.943.157.315 1.178.708 1.178.708s.864.55 1.177.707c.314.158 1.257.315 1.257.315s.628.158.863.236c.236.08.943.08.943.08s.628-.473.863-.316c.236.157.785-.315 1.02.08.236.392.708.392.943.707.235.314.47.314.863.707.393.394.785.315 1.177.63.393.314.707.314 1.178.314.47 0 .47 0 .785.08.314.078.47-.237.785.157.314.393.55.628.785 1.022.236.393.785.393.864 1.022.078.63.235.55.235 1.1 0 .552.314.788.55.945.235.157 1.1.943 1.1.943l1.177.237.94.708 1.022.313zM71.837 2.806l4.71-.59s1.65 0 2.474-.59c.825-.59 0-.59 2.474-1.06 2.474-.473 1.767-.71 3.063-.473 1.295.236 1.648.236 3.062.472C89.03.8 89.384.447 90.68.8c1.296.354 1.885.236 2.945.236h3.297c1.65 0 3.18-.943 3.77-.354.588.59.94.354 2.944.59 2.002.236 2.826-.236 3.65 0 .825.236 2.24-.118 3.887 0 1.65.118 2.474-.118 3.062-.118.59 0 1.178-.826 2.002-.118.825.708 1.885-.236 2.002.708.117.944 1.648.236.117.944-1.53.708-1.295.59-2.355 1.534-1.06.944.706 1.77-1.53 2.595-2.24.826-2.593-.472-3.18.944-.59 1.417 0 1.77-.12 2.48-.117.706-.352.824-1.06 1.414-.706.59-.706 0-2.354.354-1.65.354-2.827.708-3.533.708-.707 0-2.238.59-2.71.826-.47.236.825.59-1.648 1.298-2.474.708-3.063.59-3.77 1.533-.706.944-.47 1.063-.94 1.652-.473.59-1.886 2.95-2.592 2.36-.707-.59-1.06-.472-1.65-1.062-.588-.59-.942-1.415-1.295-1.887s-.47-1.652-.59-2.36c-.116-.708-1.177-2.36 0-2.124 1.18.236 1.886.118 2.24-.117.352-.237.706-1.062.706-1.062s-.118-1.298-.472-2.006c-.353-.708-.117-1.298-.706-2.005-.59-.708-.59-.59-1.413-1.298-.825-.708-.59-1.062-1.885-1.18-1.295-.118-1.65-.472-2.12-.354-.47.118-2.002-.826-.353-.944 1.65-.118 3.18.118 3.18.118s2.12-.944 1.413-1.062c-.706-.118 1.06-1.18-.59-.826-1.648.354-3.532.826-4.003.944-.47.118-1.65.236-2.827.59s-2.59.236-3.297 1.062c-.707.826 0 .944-.707.826-.706-.118.59-.826-1.06 0s-1.177.708-2.002.472c-.824-.236-1.413-.59-1.413-.59s1.06-.118-.47-.236-1.53-.118-2.12-.826c-.59-.708-.235-.708.118-.944s.59-.708.59-.708zm-2.59 5.31c-.59.59-2.004 1.415-1.65 1.77.354.353.59 1.65 1.296 1.296.706-.353-.118-1.533 2.59-.59 2.71.944 2.474-.117 3.063 1.298.588 1.416 1.06 2.478.706 2.832-.353.354-.47.708-1.65 1.062-1.177.354-1.648.826-.823 1.415.823.59 2.354 1.18 3.06 1.533.708.354 2.827.472 1.767-.707-1.06-1.18.236-1.534.236-1.534s2.002 1.534 1.296-.236c-.708-1.77-1.18-1.77-.708-1.77.47 0 1.413.59 1.413.59l.47-.944-.47-1.533-1.53-1.535s1.294-1.18-.472-1.415c-1.767-.236-1.65-.236-2.59-.827-.944-.59-1.06-.825-2.828-.47-1.766.353-2.355.59-2.355.59l-.824-.828zM42.982 9.53c.706-.707 2.59-2.36 3.297-1.887.707.472 1.767-.354 2.59.354.825.708 1.768 1.534 2.474 1.77.707.235 1.53-." stroke="#8BC34A" stroke-width="1" fill="none" fill-rule="evenodd"/></svg>