<svg xmlns="http://www.w3.org/2000/svg" xmlns:xlink="http://www.w3.org/1999/xlink" version="1.1" id="Layer_1" x="0px" y="0px" viewBox="0 0 800 800" style="enable-background: #000;enanbackground: #000;" xml:space="preserve">
<style type="text/css">
	.st0{fill:#755945;}
	.st1{fill:#4A0F60;}
	.st2{fill:#4D2560;}
	.st3{fill:#630F5D;}
	.st4{fill:#61235A;}
	.st5{fill:#62347F;}
	.st6{fill:#633963;}
	.st7{fill:#8E4989;}
	.st8{fill:#727271;}
	.st9{fill:#8D59B2;}
	.st10{fill:#AF8EA5;}
	.st11{fill:#BF5AA5;}
	.st12{fill:#FEFFF3;}
	.st13{fill:#9B7691;}
	.st14{fill:#E796DB;}
	.st15{fill:#A5A598;}
	.st16{fill:#595958;}
	.st17{fill:#FCFBE0;}
	.st18{fill:#EFEFED;}
	.st19{fill:#BBBCAC;}
	.st20{fill:#CBCED3;}
	.st21{fill:#E8E8DA;}
	.st22{fill:#E2E1C9;}
	.st23{fill:#D3C8C2;}
	.st24{fill:#C6B6AC;}
	.st25{fill:#EADDCE;}
	.st26{fill:#EAD4B5;}
	.st27{fill:#E8E9EB;}
	.st28{fill:#D6D7D8;}
	.st29{fill:#FEF8CB;}
	.st30{fill:#FFF6B2;}
	.st31{fill:#FFD385;}
	.st32{fill:#E2D3CC;}
	.st33{fill:#FFDEA9;}
	.st34{fill:#C6AEA8;}
	.st35{fill:#CC9ABA;}
	.st36{fill:#756260;}
	.st37{fill:#4C3D3B;}
	.st38{fill:#3F211E;}
	.st39{fill:#895F58;}
</style>
<g>
	<g>
		
			
		<g>
			<g>
				<polygon class="st0" points="400,526.4 352.1,447 345.4,514.9     "></polygon>
				<path class="st0" d="M648.6,249.8l30.9-28l-34.4-2.2l19.5-23.3l-27-1.4l-2.2-30.8l-33.9,13.3v-26.8l-28.6,8.7l-1-16l-34,10.2      l-21.8,23.9l-13.5,37.2l-54.8-14.8l-47.9-8l-47.9,8l-54.8,14.8l-13.5-37.2L262,153.6l-34-10.2l-1,16l-28.6-8.7v26.8l-33.9-13.3      l-2.2,30.8l-27,1.4l19.5,23.3l-34.4,2.2l30.9,28l-30.9,6.6l27.6,33.8l-25.8-7.5l37.8,52.2l37.2,8.4l-19.4-4.4l-23.4,100.3      l4.2,77.4l15.4,38.1l17.3,42.2l34.6,43.3l5.5-21.2l13.3,33.2l6.4-20l7,32.1l20.6-17.5l-11.5,30.9l17.4-8.4l3.9,14.8l21.6-6.9      l10.2,35.3l10.7-42l6.8,36.5l8.4-13.9l53.9-2.4l53.9,2.4l-10.8-17.9l19.1,31.9l6.8-36.5l10.7,42l10.2-35.3l21.6,6.9l9.8-37.3      l20.6,17.5l7-32.1l6.4,20l13.3-33.2l5.4,21.2l34.6-43.3l17.3-42.2l15.4-38.1l4.2-77.4L622.1,339l-19.4,4.4l37.2-8.4l37.8-52.2      l-25.8,7.5l27.6-33.8L648.6,249.8z M440.3,628.8l-8.6-4.2l14.8,7.3l19-7.5l-3.2,1.3l-15.8,6.2L440.3,628.8z M353.5,631.9      l-15.8-6.2l-1.5-0.6L353.5,631.9l14.8-7.3l-8.6,4.2L353.5,631.9z M352.1,406.5l-16.7,32.7l9-17.7l-28.2,6.1l0,0c0,0,0,0,0,0l0,0      l28.2-6.1L352.1,406.5z M376.9,488.2l23.1,38.3l23.1-38.3l24.8-41.1L400,526.4l54.6-11.6l0,0l-37.3,7.9l-17.3,3.7l-17.3-3.7      l-37.3-7.9l-4.3,43.7l11-111.6l-25,43.1l1.1-2l23.8-41.1L376.9,488.2z M400,600.6l-7.8-14.8l-6.5-12.5L400,600.6l14.3-27.3      l-6.5,12.5L400,600.6z M483.7,427.7C483.7,427.7,483.7,427.7,483.7,427.7L483.7,427.7l-28.2-6.1l0,0L483.7,427.7L483.7,427.7z       M516.6,503.6l-10.9-21.5l25.4,50.1L516.6,503.6z M280.7,591.4L258,570.7l45.4,41.4L280.7,591.4z M519.3,591.4l-22.7,20.7      l45.4-41.4L519.3,591.4z M463.6,267L400,249.8L336.4,267l-79.3,21.4L400,249.8l142.9,38.6L463.6,267z"></path>
				<polygon class="st0" points="532.8,677.7 521.3,646.9 515.4,669.4     "></polygon>
			</g>
		</g>
	</g>
	<g>
		<g>
			<polygon class="st1" points="257.1,288.4 283.8,177.5 302.7,229.7    "></polygon>
			<polygon class="st2" points="257.1,288.4 262,153.6 283.8,177.5    "></polygon>
			<polygon class="st3" points="262,153.6 227,159.4 257.1,288.4    "></polygon>
			<polygon class="st4" points="227,159.4 198.4,177.5 257.1,288.4    "></polygon>
			<polygon class="st5" points="198.4,177.5 162.3,195 257.1,288.4    "></polygon>
			<polygon class="st6" points="162.3,195 154.9,219.6 257.1,288.4    "></polygon>
			<polygon class="st5" points="154.9,219.6 257.1,288.4 151.4,249.8    "></polygon>
			<polygon class="st4" points="151.4,249.8 144.9,264.3 257.1,288.4    "></polygon>
			<polygon class="st3" points="144.9,264.3 148.1,290.2 257.1,288.4    "></polygon>
			<polygon class="st2" points="257.1,288.4 197.3,343.4 148.1,290.2    "></polygon>
			<polygon class="st1" points="148.1,290.2 160.1,334.9 197.3,343.4    "></polygon>
			<polygon class="st7" points="148.1,290.2 122.3,282.7 160.1,334.9    "></polygon>
			<polygon class="st6" points="148.1,290.2 120.6,256.4 144.9,264.3    "></polygon>
			<polygon class="st7" points="120.6,256.4 151.4,249.8 144.9,264.3    "></polygon>
			<polygon class="st7" points="151.4,249.8 120.6,221.9 154.9,219.6    "></polygon>
			<polygon class="st8" points="154.9,219.6 135.4,196.4 162.3,195    "></polygon>
			<polygon class="st9" points="162.3,195 164.5,164.2 198.4,177.5    "></polygon>
			<polygon class="st7" points="198.4,177.5 198.4,150.7 227,159.4    "></polygon>
			<polygon class="st1" points="335.4,439.2 344.4,421.5 316.3,427.7    "></polygon>
			<polygon class="st4" points="299.4,441.2 294.3,482.2 277.5,451.1    "></polygon>
			<polygon class="st5" points="329.7,467.6 294.3,482.2 299.4,441.2    "></polygon>
			<path class="st6" d="M299.4,441.2c0,0,5.6-14.2,18.1-13.6c12.4,0.7,18,11.6,18,11.6l-5.1,20.5L299.4,441.2z"></path>
			<path class="st10" d="M330.3,459.7l-0.6,7.9c0,0-13.8,3.6-25.4-3.9c-11.6-7.5-5-22.4-5-22.4l5.8,1.7L330.3,459.7z"></path>
			<polygon class="st11" points="227,159.4 228,143.4 262,153.6    "></polygon>
			<path class="st1" d="M305.2,442.9c0,0,5.9-12,19.3-2c0,0,7.5,10,5.9,18.8c0,0-2.7-3.1-12.4-1.6C308,459.7,302,452.2,305.2,442.9z     "></path>
			<polygon class="st12" points="352.1,447 299.4,538 329.4,557.8    "></polygon>
			<polygon class="st13" points="352.1,447 330.3,459.7 328.3,488.2    "></polygon>
			<polygon class="st14" points="330.3,459.7 335.4,439.2 342.6,452.5    "></polygon>
			<polygon class="st15" points="335.4,439.2 352.1,447 342.6,452.5    "></polygon>
			<polygon class="st9" points="335.4,439.2 352.1,406.5 352.1,447    "></polygon>
			<polygon class="st6" points="316.3,427.6 299.4,441.2 277.5,451.1 296,411.4    "></polygon>
			<polygon class="st3" points="316.3,427.6 317.4,392.3 344.4,421.5    "></polygon>
			<polygon class="st5" points="316.3,427.6 296,411.4 317.4,392.3    "></polygon>
			<polygon class="st7" points="294.3,482.2 268.9,532.2 268.9,495.7    "></polygon>
			<polygon class="st5" points="283.4,503.6 317.4,506.9 299.4,538    "></polygon>
			<polygon class="st6" points="283.4,503.6 299.4,538 268.9,532.2    "></polygon>
			<polygon class="st16" points="294.3,482.2 277.5,451.1 268.9,495.7    "></polygon>
			<polygon class="st16" points="294.3,482.2 317.4,506.9 283.4,503.6    "></polygon>
			<polygon class="st16" points="268.9,495.7 240,495.7 268.9,532.2    "></polygon>
			<polygon class="st11" points="344.4,421.5 317.4,392.3 352.1,406.5    "></polygon>
			<polygon class="st8" points="268.9,495.7 252.7,467.6 240,495.7    "></polygon>
			<polygon class="st9" points="268.9,495.7 252.7,467.6 277.5,451.1    "></polygon>
			<polygon class="st9" points="294.3,482.2 328.3,488.2 317.4,506.9    "></polygon>
			<path class="st9" d="M294.3,482.2"></path>
			<polygon class="st11" points="329.7,467.6 294.3,482.2 328.3,488.2    "></polygon>
			<polygon class="st1" points="400,554.1 385.7,573.3 400,600.6    "></polygon>
			<polygon class="st3" points="385.7,573.3 366.3,563.1 353.5,567.1 360.3,576.1 377.4,578.3    "></polygon>
			<polygon class="st2" points="353.5,567.1 341,558.6 366.3,563.1    "></polygon>
			<polygon class="st2" points="392.2,585.8 388.1,601.9 400,600.6    "></polygon>
			<polygon class="st4" points="385.7,573.3 382.7,551.2 400,554.1    "></polygon>
			<polygon class="st4" points="377.4,578.3 392.2,585.8 378.3,591    "></polygon>
			<polygon class="st4" points="400,600.6 389.8,623.6 400,625.7    "></polygon>
			<polygon class="st4" points="353.5,631.9 349.8,643 369.6,655.6    "></polygon>
			<polygon class="st5" points="392.2,585.8 388.1,601.9 378.3,591    "></polygon>
			<polygon class="st5" points="353.5,567.1 349.8,579.7 341,558.6    "></polygon>
			<polygon class="st7" points="366.3,563.1 382.7,551.2 385.7,573.3    "></polygon>
			<polygon class="st16" points="388.1,601.9 389.8,623.6 400,600.6    "></polygon>
			<polygon class="st8" points="388.1,601.9 368.3,624.6 389.8,623.6    "></polygon>
			<polygon class="st13" points="368.3,624.6 378.3,591 388.1,601.9    "></polygon>
			<polygon class="st15" points="378.3,591 346.6,594 368.3,624.6    "></polygon>
			<polygon class="st9" points="349.8,579.7 378.3,591 360.3,576.1    "></polygon>
			<polygon class="st9" points="366.3,563.1 363.3,551.9 341,558.6    "></polygon>
			<polygon class="st9" points="377.4,578.3 385.7,573.3 392.2,585.8    "></polygon>
			<polygon class="st11" points="366.3,563.1 363.3,551.9 382.7,551.2    "></polygon>
			<polygon class="st11" points="360.3,576.1 353.5,567.1 349.8,579.7    "></polygon>
			<polygon class="st7" points="360.3,576.1 377.4,578.3 378.3,591    "></polygon>
			<polygon class="st15" points="363.3,551.9 400,526.4 382.7,551.2    "></polygon>
			<polygon class="st8" points="382.7,551.2 400,526.4 400,554.1    "></polygon>
			<polygon class="st17" points="352.1,447 341,558.6 329.4,557.8    "></polygon>
			<polygon class="st18" points="352.1,447 400,526.4 345.4,514.9    "></polygon>
			<polygon class="st19" points="363.3,551.9 382.7,522.8 400,526.4    "></polygon>
			<polygon class="st20" points="382.7,522.8 341,558.6 363.3,551.9    "></polygon>
			<polygon class="st12" points="382.7,522.8 345.4,514.9 341,558.6    "></polygon>
			<polygon class="st12" points="329.4,557.8 346.6,594 299.4,563.1    "></polygon>
			<polygon class="st17" points="329.4,557.8 299.4,538 299.4,563.1    "></polygon>
			<polygon class="st17" points="299.4,563.1 303.4,612.1 346.6,594    "></polygon>
			<polygon class="st21" points="329.4,557.8 349.8,579.7 346.6,594    "></polygon>
			<polygon class="st21" points="346.6,594 353.5,631.9 303.4,612.1    "></polygon>
			<polygon class="st21" points="299.4,563.1 258,570.7 303.4,612.1    "></polygon>
			<polygon class="st21" points="352.1,447 400,459.7 376.9,488.2    "></polygon>
			<polygon class="st22" points="400,459.7 400,526.4 376.9,488.2    "></polygon>
			<polygon class="st22" points="329.4,557.8 341,558.6 349.8,579.7    "></polygon>
			<polygon class="st23" points="349.8,579.7 378.3,591 346.6,594    "></polygon>
			<polygon class="st24" points="346.6,594 368.3,624.6 353.5,631.9    "></polygon>
			<polygon class="st21" points="268.9,532.2 234,563.1 211.7,486.7    "></polygon>
			<polygon class="st21" points="268.9,532.2 299.4,563.1 299.4,538    "></polygon>
			<polygon class="st25" points="268.9,532.2 258,570.7 299.4,563.1    "></polygon>
			<polygon class="st26" points="268.9,532.2 258,570.7 234,563.1    "></polygon>
			<polygon class="st26" points="211.7,486.7 240,495.7 268.9,532.2    "></polygon>
			<polygon class="st22" points="352.1,447 381.3,430.8 352.1,406.5    "></polygon>
			<polygon class="st22" points="381.3,430.8 400,406.9 400,459.7    "></polygon>
			<polygon class="st18" points="352.1,447 381.3,430.8 400,459.7    "></polygon>
			<polygon class="st18" points="381.3,430.8 352.1,406.5 400,406.9    "></polygon>
			<polygon class="st27" points="352.1,406.5 388.6,377.1 400,406.9    "></polygon>
			<polygon class="st27" points="352.1,406.5 377.6,349.1 317.4,392.3    "></polygon>
			<polygon class="st21" points="388.6,377.1 377.6,349.1 352.1,406.5    "></polygon>
			<polygon class="st20" points="388.6,377.1 400,351.1 400,406.9    "></polygon>
			<polygon class="st28" points="377.6,349.1 400,351.1 388.6,377.1    "></polygon>
			<polygon class="st21" points="377.6,349.1 400,249.8 400,351.1    "></polygon>
			<polygon class="st21" points="302.7,229.7 352.1,199.9 297.3,214.7    "></polygon>
			<polygon class="st21" points="352.1,199.9 400,191.8 400,216.3    "></polygon>
			<polygon class="st21" points="302.7,229.7 400,249.8 257.1,288.4    "></polygon>
			<polygon class="st18" points="352.1,199.9 400,249.8 302.7,229.7    "></polygon>
			<polygon class="st12" points="352.1,199.9 400,216.3 400,249.8    "></polygon>
			<polygon class="st12" points="400,249.8 377.6,349.1 336.4,267    "></polygon>
			<polygon class="st12" points="377.6,349.1 257.1,288.4 317.4,392.3    "></polygon>
			<polygon class="st17" points="257.1,288.4 336.4,267 377.6,349.1    "></polygon>
			<polygon class="st17" points="257.1,288.4 222.3,340.3 317.4,392.3    "></polygon>
			<polygon class="st17" points="222.3,340.3 249.5,441.1 296,411.4    "></polygon>
			<polygon class="st22" points="296,411.4 277.5,451.1 249.5,441.1    "></polygon>
			<polygon class="st21" points="249.5,441.1 252.7,467.6 277.5,451.1    "></polygon>
			<polygon class="st21" points="252.7,467.6 223.9,461 240,495.7    "></polygon>
			<polygon class="st21" points="223.9,461 197.3,454.8 211.7,486.7    "></polygon>
			<polygon class="st21" points="222.3,340.3 197.3,454.8 193.5,371.3    "></polygon>
			<polygon class="st12" points="222.3,340.3 223.9,461 197.3,454.8    "></polygon>
			<polygon class="st12" points="197.3,454.8 154.5,439.2 193.5,371.3    "></polygon>
			<polygon class="st29" points="197.3,454.8 177.3,498 154.5,439.2    "></polygon>
			<polygon class="st29" points="223.9,461 249.5,441.1 252.7,467.6    "></polygon>
			<polygon class="st25" points="223.9,461 240,495.7 211.7,486.7    "></polygon>
			<polygon class="st18" points="222.3,340.3 249.5,441.1 223.9,461    "></polygon>
			<polygon class="st21" points="193.5,371.3 197.3,343.4 177.9,339    "></polygon>
			<polygon class="st18" points="177.9,339 154.5,439.2 193.5,371.3    "></polygon>
			<polygon class="st18" points="296,411.4 317.4,392.3 222.3,340.3    "></polygon>
			<polygon class="st12" points="177.3,498 158.6,516.7 154.5,439.2    "></polygon>
			<polygon class="st30" points="211.7,486.7 197.3,454.8 177.3,498    "></polygon>
			<polygon class="st30" points="177.3,498 207.5,577.5 204.6,537.4    "></polygon>
			<polygon class="st25" points="211.7,486.7 204.6,537.4 177.3,498    "></polygon>
			<polygon class="st26" points="211.7,486.7 234,563.1 204.6,537.4    "></polygon>
			<polygon class="st31" points="234,563.1 231.3,619 258,570.7    "></polygon>
			<polygon class="st32" points="258,570.7 251.1,632.2 231.3,619    "></polygon>
			<polygon class="st23" points="258,570.7 280.7,591.4 251.1,632.2    "></polygon>
			<polygon class="st24" points="280.7,591.4 278.7,646.9 251.1,632.2    "></polygon>
			<polygon class="st24" points="278.7,646.9 303.4,612.1 308.7,640.6    "></polygon>
			<polygon class="st19" points="280.7,591.4 303.4,612.1 278.7,646.9    "></polygon>
			<polygon class="st23" points="303.4,612.1 327.1,621.5 308.7,640.6    "></polygon>
			<polygon class="st32" points="234,563.1 204.6,537.4 207.5,577.5    "></polygon>
			<polygon class="st33" points="234,563.1 231.3,619 207.5,577.5    "></polygon>
			<polygon class="st23" points="222.3,340.3 197.3,343.4 193.5,371.3    "></polygon>
			<polygon class="st34" points="257.1,288.4 222.3,340.3 197.3,343.4    "></polygon>
			<ellipse class="st35" cx="317.5" cy="444.2" rx="3.7" ry="5.3"></ellipse>
			<polygon class="st16" points="353.5,631.9 359.7,628.8 369.6,655.6    "></polygon>
			<polygon class="st16" points="369.6,655.6 400,648.6 400,661.2    "></polygon>
			<polygon class="st8" points="369.6,655.6 373,643.7 400,648.6    "></polygon>
			<polygon class="st36" points="373,643.7 359.7,628.8 369.6,655.6    "></polygon>
			<polygon class="st15" points="337.7,625.7 308.7,640.6 327.1,621.5    "></polygon>
			<polygon class="st15" points="337.7,625.7 349.8,643 334.8,651    "></polygon>
			<polygon class="st10" points="349.8,643 356.9,675.2 334.8,651    "></polygon>
			<polygon class="st8" points="349.8,643 369.6,655.6 356.9,675.2    "></polygon>
			<polygon class="st15" points="369.6,655.6 400,690.8 400,661.2    "></polygon>
			<polygon class="st19" points="369.6,655.6 356.9,675.2 400,690.8    "></polygon>
			<polygon class="st19" points="356.9,675.2 337.7,707.1 331,670.6    "></polygon>
			<polygon class="st35" points="356.9,675.2 334.8,651 331,670.6    "></polygon>
			<polygon class="st15" points="334.8,651 308.7,640.6 331,670.6    "></polygon>
			<polygon class="st24" points="337.7,625.7 334.8,651 308.7,640.6    "></polygon>
			<polygon class="st13" points="349.8,643 353.5,631.9 337.7,625.7    "></polygon>
			<polygon class="st19" points="331,670.6 308.7,640.6 278.7,646.9    "></polygon>
			<polygon class="st15" points="356.9,675.2 400,690.8 346.1,693.1    "></polygon>
			<polygon class="st15" points="251.1,632.2 258.1,664.3 278.7,646.9    "></polygon>
			<polygon class="st15" points="278.7,646.9 288.4,684.2 331,670.6    "></polygon>
			<polygon class="st19" points="278.7,646.9 267.2,677.7 284.6,669.4    "></polygon>
			<polygon class="st19" points="310,677.3 320.3,712.6 331,670.6    "></polygon>
			<polygon class="st19" points="231.3,619 244.6,652.2 251.1,632.2    "></polygon>
			<polygon class="st19" points="231.3,619 191.3,596.9 225.8,640.2    "></polygon>
			<polygon class="st28" points="207.5,577.5 191.3,596.9 231.3,619    "></polygon>
			<polygon class="st21" points="191.3,596.9 174,554.7 207.5,577.5    "></polygon>
			<polygon class="st27" points="174,554.7 177.3,498 207.5,577.5    "></polygon>
			<polygon class="st17" points="177.3,498 174,554.7 158.6,516.7    "></polygon>
			<polygon class="st24" points="359.7,628.8 389.8,623.6 368.3,624.6    "></polygon>
			<polygon class="st8" points="359.7,628.8 374.8,637 373,643.7    "></polygon>
			<polygon class="st15" points="374.8,637 400,640.2 373,643.7    "></polygon>
			<polygon class="st13" points="400,640.2 400,648.6 373,643.7    "></polygon>
			<polygon class="st37" points="389.8,623.6 374.8,637 388.1,638.7    "></polygon>
			<polygon class="st38" points="389.8,623.6 400,625.7 388.1,638.7    "></polygon>
			<polygon class="st37" points="400,625.7 400,640.2 394,632.2    "></polygon>
			<polygon class="st39" points="394,632.2 388.1,638.7 400,640.2    "></polygon>
			<polygon class="st39" points="374.8,637 373,626.5 389.8,623.6    "></polygon>
			<polygon class="st0" points="373,626.5 359.7,628.8 374.8,637    "></polygon>
		</g>
		<g>
			<polygon class="st1" points="542.9,288.4 516.2,177.5 497.3,229.7    "></polygon>
			<polygon class="st2" points="542.9,288.4 538,153.6 516.2,177.5    "></polygon>
			<polygon class="st3" points="538,153.6 573,159.4 542.9,288.4    "></polygon>
			<polygon class="st4" points="573,159.4 601.6,177.5 542.9,288.4    "></polygon>
			<polygon class="st5" points="601.6,177.5 637.7,195 542.9,288.4    "></polygon>
			<polygon class="st6" points="637.7,195 645.1,219.6 542.9,288.4    "></polygon>
			<polygon class="st5" points="645.1,219.6 542.9,288.4 648.6,249.8    "></polygon>
			<polygon class="st4" points="648.6,249.8 655.1,264.3 542.9,288.4    "></polygon>
			<polygon class="st3" points="655.1,264.3 651.9,290.2 542.9,288.4    "></polygon>
			<polygon class="st2" points="542.9,288.4 602.7,343.4 651.9,290.2    "></polygon>
			<polygon class="st1" points="651.9,290.2 639.9,334.9 602.7,343.4    "></polygon>
			<polygon class="st7" points="651.9,290.2 677.7,282.7 639.9,334.9    "></polygon>
			<polygon class="st6" points="651.9,290.2 679.4,256.4 655.1,264.3    "></polygon>
			<polygon class="st7" points="679.4,256.4 648.6,249.8 655.1,264.3    "></polygon>
			<polygon class="st7" points="648.6,249.8 679.4,221.9 645.1,219.6    "></polygon>
			<polygon class="st8" points="645.1,219.6 664.6,196.4 637.7,195    "></polygon>
			<polygon class="st9" points="637.7,195 635.5,164.2 601.6,177.5    "></polygon>
			<polygon class="st7" points="601.6,177.5 601.6,150.7 573,159.4    "></polygon>
			<polygon class="st1" points="464.6,439.2 455.6,421.5 483.7,427.7    "></polygon>
			<polygon class="st4" points="500.6,441.2 505.7,482.2 522.5,451.1    "></polygon>
			<polygon class="st5" points="470.3,467.6 505.7,482.2 500.6,441.2    "></polygon>
			<path class="st6" d="M500.6,441.2c0,0-5.6-14.2-18.1-13.6c-12.4,0.7-18,11.6-18,11.6l5.1,20.5L500.6,441.2z"></path>
            <path class="st10" d="M469.7,459.7l0.6,7.9c0,0,13.8,3.6,25.4-3.9c11.6-7.5,5-22.4,5-22.4l-5.8,1.7L469.7,459.7z"></path>
			<polygon class="st11" points="573,159.4 572,143.4 538,153.6    "></polygon>
			<path class="st1" d="M494.8,442.9c0,0-5.9-12-19.3-2c0,0-7.5,10-5.9,18.8c0,0,2.7-3.1,12.4-1.6C492,459.7,498,452.2,494.8,442.9z     "></path>
			<polygon class="st12" points="447.9,447 500.6,538 470.6,557.8    "></polygon>
			<polygon class="st13" points="447.9,447 469.7,459.7 471.7,488.2    "></polygon>
			<polygon class="st14" points="469.7,459.7 464.6,439.2 457.4,452.5    "></polygon>
			<polygon class="st15" points="464.6,439.2 447.9,447 457.4,452.5    "></polygon>
			<polygon class="st9" points="464.6,439.2 447.9,406.5 447.9,447    "></polygon>
			<polygon class="st6" points="483.7,427.6 500.6,441.2 522.5,451.1 504,411.4    "></polygon>
			<polygon class="st3" points="483.7,427.6 482.6,392.3 455.6,421.5    "></polygon>
			<polygon class="st5" points="483.7,427.6 504,411.4 482.6,392.3    "></polygon>
			<polygon class="st7" points="505.7,482.2 531.1,532.2 531.1,495.7    "></polygon>
			<polygon class="st5" points="516.6,503.6 482.6,506.9 500.6,538    "></polygon>
			<polygon class="st6" points="516.6,503.6 500.6,538 531.1,532.2    "></polygon>
			<polygon class="st16" points="505.7,482.2 522.5,451.1 531.1,495.7    "></polygon>
			<polygon class="st16" points="505.7,482.2 482.6,506.9 516.6,503.6    "></polygon>
			<polygon class="st16" points="531.1,495.7 560,495.7 531.1,532.2    "></polygon>
			<polygon class="st11" points="455.6,421.5 482.6,392.3 447.9,406.5    "></polygon>
			<polygon class="st8" points="531.1,495.7 547.3,467.6 560,495.7    "></polygon>
			<polygon class="st9" points="531.1,495.7 547.3,467.6 522.5,451.1    "></polygon>
			<polygon class="st9" points="505.7,482.2 471.7,488.2 482.6,506.9    "></polygon>
			<path class="st9" d="M505.7,482.2"></path>
			<polygon class="st11" points="470.3,467.6 505.7,482.2 471.7,488.2    "></polygon>
			<polygon class="st1" points="400,554.1 414.3,573.3 400,600.6    "></polygon>
			<polygon class="st3" points="414.3,573.3 433.7,563.1 446.5,567.1 439.7,576.1 422.6,578.3    "></polygon>
			<polygon class="st2" points="446.5,567.1 459,558.6 433.7,563.1    "></polygon>
			<polygon class="st2" points="407.8,585.8 411.9,601.9 400,600.6    "></polygon>
			<polygon class="st4" points="414.3,573.3 417.3,551.2 400,554.1    "></polygon>
			<polygon class="st4" points="422.6,578.3 407.8,585.8 421.7,591    "></polygon>
			<polygon class="st4" points="400,600.6 410.2,623.6 400,625.7    "></polygon>
			<polygon class="st4" points="446.5,631.9 450.2,643 430.4,655.6    "></polygon>
			<polygon class="st5" points="407.8,585.8 411.9,601.9 421.7,591    "></polygon>
			<polygon class="st5" points="446.5,567.1 450.2,579.7 459,558.6    "></polygon>
			<polygon class="st7" points="433.7,563.1 417.3,551.2 414.3,573.3    "></polygon>
			<polygon class="st16" points="411.9,601.9 410.2,623.6 400,600.6    "></polygon>
			<polygon class="st8" points="411.9,601.9 431.7,624.6 410.2,623.6    "></polygon>
			<polygon class="st13" points="431.7,624.6 421.7,591 411.9,601.9    "></polygon>
			<polygon class="st15" points="421.7,591 453.4,594 431.7,624.6    "></polygon>
			<polygon class="st9" points="450.2,579.7 421.7,591 439.7,576.1    "></polygon>
			<polygon class="st9" points="433.7,563.1 436.7,551.9 459,558.6    "></polygon>
			<polygon class="st9" points="422.6,578.3 414.3,573.3 407.8,585.8    "></polygon>
			<polygon class="st11" points="433.7,563.1 436.7,551.9 417.3,551.2    "></polygon>
			<polygon class="st11" points="439.7,576.1 446.5,567.1 450.2,579.7    "></polygon>
			<polygon class="st7" points="439.7,576.1 422.6,578.3 421.7,591    "></polygon>
			<polygon class="st15" points="436.7,551.9 400,526.4 417.3,551.2    "></polygon>
			<polygon class="st8" points="417.3,551.2 400,526.4 400,554.1    "></polygon>
			<polygon class="st17" points="447.9,447 459,558.6 470.6,557.8    "></polygon>
			<polygon class="st18" points="447.9,447 400,526.4 454.6,514.9    "></polygon>
			<polygon class="st19" points="436.7,551.9 417.3,522.8 400,526.4    "></polygon>
			<polygon class="st20" points="417.3,522.8 459,558.6 436.7,551.9    "></polygon>
			<polygon class="st12" points="417.3,522.8 454.6,514.9 459,558.6    "></polygon>
			<polygon class="st12" points="470.6,557.8 453.4,594 500.6,563.1    "></polygon>
			<polygon class="st17" points="470.6,557.8 500.6,538 500.6,563.1    "></polygon>
			<polygon class="st17" points="500.6,563.1 496.6,612.1 453.4,594    "></polygon>
			<polygon class="st21" points="470.6,557.8 450.2,579.7 453.4,594    "></polygon>
			<polygon class="st21" points="453.4,594 446.5,631.9 496.6,612.1    "></polygon>
			<polygon class="st21" points="500.6,563.1 542,570.7 496.6,612.1    "></polygon>
			<polygon class="st21" points="447.9,447 400,459.7 423.1,488.2    "></polygon>
			<polygon class="st22" points="400,459.7 400,526.4 423.1,488.2    "></polygon>
			<polygon class="st22" points="470.6,557.8 459,558.6 450.2,579.7    "></polygon>
			<polygon class="st23" points="450.2,579.7 421.7,591 453.4,594    "></polygon>
			<polygon class="st24" points="453.4,594 431.7,624.6 446.5,631.9    "></polygon>
			<polygon class="st21" points="531.1,532.2 566,563.1 588.3,486.7    "></polygon>
			<polygon class="st21" points="531.1,532.2 500.6,563.1 500.6,538    "></polygon>
			<polygon class="st25" points="531.1,532.2 542,570.7 500.6,563.1    "></polygon>
			<polygon class="st26" points="531.1,532.2 542,570.7 566,563.1    "></polygon>
			<polygon class="st26" points="588.3,486.7 560,495.7 531.1,532.2    "></polygon>
			<polygon class="st22" points="447.9,447 418.7,430.8 447.9,406.5    "></polygon>
			<polygon class="st22" points="418.7,430.8 400,406.9 400,459.7    "></polygon>
			<polygon class="st18" points="447.9,447 418.7,430.8 400,459.7    "></polygon>
			<polygon class="st18" points="418.7,430.8 447.9,406.5 400,406.9    "></polygon>
			<polygon class="st27" points="447.9,406.5 411.4,377.1 400,406.9    "></polygon>
			<polygon class="st27" points="447.9,406.5 422.4,349.1 482.6,392.3    "></polygon>
			<polygon class="st21" points="411.4,377.1 422.4,349.1 447.9,406.5    "></polygon>
			<polygon class="st20" points="411.4,377.1 400,351.1 400,406.9    "></polygon>
			<polygon class="st28" points="422.4,349.1 400,351.1 411.4,377.1    "></polygon>
			<polygon class="st21" points="422.4,349.1 400,249.8 400,351.1    "></polygon>
			<polygon class="st21" points="497.3,229.7 447.9,199.9 502.7,214.7    "></polygon>
			<polygon class="st21" points="447.9,199.9 400,191.8 400,216.3    "></polygon>
			<polygon class="st21" points="497.3,229.7 400,249.8 542.9,288.4    "></polygon>
			<polygon class="st18" points="447.9,199.9 400,249.8 497.3,229.7    "></polygon>
			<polygon class="st12" points="447.9,199.9 400,216.3 400,249.8    "></polygon>
			<polygon class="st12" points="400,249.8 422.4,349.1 463.6,267    "></polygon>
			<polygon class="st12" points="422.4,349.1 542.9,288.4 482.6,392.3    "></polygon>
			<polygon class="st17" points="542.9,288.4 463.6,267 422.4,349.1    "></polygon>
			<polygon class="st17" points="542.9,288.4 577.7,340.3 482.6,392.3    "></polygon>
			<polygon class="st17" points="577.7,340.3 550.5,441.1 504,411.4    "></polygon>
			<polygon class="st22" points="504,411.4 522.5,451.1 550.5,441.1    "></polygon>
			<polygon class="st21" points="550.5,441.1 547.3,467.6 522.5,451.1    "></polygon>
			<polygon class="st21" points="547.3,467.6 576.1,461 560,495.7    "></polygon>
			<polygon class="st21" points="576.1,461 602.7,454.8 588.3,486.7    "></polygon>
			<polygon class="st21" points="577.7,340.3 602.7,454.8 606.5,371.3    "></polygon>
			<polygon class="st12" points="577.7,340.3 576.1,461 602.7,454.8    "></polygon>
			<polygon class="st12" points="602.7,454.8 645.5,439.2 606.5,371.3    "></polygon>
			<polygon class="st29" points="602.7,454.8 622.7,498 645.5,439.2    "></polygon>
			<polygon class="st29" points="576.1,461 550.5,441.1 547.3,467.6    "></polygon>
			<polygon class="st25" points="576.1,461 560,495.7 588.3,486.7    "></polygon>
			<polygon class="st18" points="577.7,340.3 550.5,441.1 576.1,461    "></polygon>
			<polygon class="st21" points="606.5,371.3 602.7,343.4 622.1,339    "></polygon>
			<polygon class="st18" points="622.1,339 645.5,439.2 606.5,371.3    "></polygon>
			<polygon class="st18" points="504,411.4 482.6,392.3 577.7,340.3    "></polygon>
			<polygon class="st12" points="622.7,498 641.4,516.7 645.5,439.2    "></polygon>
			<polygon class="st30" points="588.3,486.7 602.7,454.8 622.7,498    "></polygon>
			<polygon class="st30" points="622.7,498 592.5,577.5 595.4,537.4    "></polygon>
			<polygon class="st25" points="588.3,486.7 595.4,537.4 622.7,498    "></polygon>
			<polygon class="st26" points="588.3,486.7 566,563.1 595.4,537.4    "></polygon>
			<polygon class="st31" points="566,563.1 568.7,619 542,570.7    "></polygon>
			<polygon class="st32" points="542,570.7 548.9,632.2 568.7,619    "></polygon>
			<polygon class="st23" points="542,570.7 519.3,591.4 548.9,632.2    "></polygon>
			<polygon class="st24" points="519.3,591.4 521.3,646.9 548.9,632.2    "></polygon>
			<polygon class="st24" points="521.3,646.9 496.6,612.1 491.3,640.6    "></polygon>
			<polygon class="st19" points="519.3,591.4 496.6,612.1 521.3,646.9    "></polygon>
			<polygon class="st23" points="496.6,612.1 472.9,621.5 491.3,640.6    "></polygon>
			<polygon class="st32" points="566,563.1 595.4,537.4 592.5,577.5    "></polygon>
			<polygon class="st33" points="566,563.1 568.7,619 592.5,577.5    "></polygon>
			<polygon class="st23" points="577.7,340.3 602.7,343.4 606.5,371.3    "></polygon>
			<polygon class="st34" points="542.9,288.4 577.7,340.3 602.7,343.4    "></polygon>
			<ellipse class="st35" cx="482.5" cy="444.2" rx="3.7" ry="5.3"></ellipse>
			<polygon class="st16" points="446.5,631.9 440.3,628.8 430.4,655.6    "></polygon>
			<polygon class="st16" points="430.4,655.6 400,648.6 400,661.2    "></polygon>
			<polygon class="st8" points="430.4,655.6 427,643.7 400,648.6    "></polygon>
			<polygon class="st36" points="427,643.7 440.3,628.8 430.4,655.6    "></polygon>
			<polygon class="st15" points="462.3,625.7 491.3,640.6 472.9,621.5    "></polygon>
			<polygon class="st15" points="462.3,625.7 450.2,643 465.2,651    "></polygon>
			<polygon class="st10" points="450.2,643 443.1,675.2 465.2,651    "></polygon>
			<polygon class="st8" points="450.2,643 430.4,655.6 443.1,675.2    "></polygon>
			<polygon class="st15" points="430.4,655.6 400,690.8 400,661.2    "></polygon>
			<polygon class="st19" points="430.4,655.6 443.1,675.2 400,690.8    "></polygon>
			<polygon class="st19" points="443.1,675.2 462.3,707.1 469,670.6    "></polygon>
			<polygon class="st35" points="443.1,675.2 465.2,651 469,670.6    "></polygon>
			<polygon class="st15" points="465.2,651 491.3,640.6 469,670.6    "></polygon>
			<polygon class="st24" points="462.3,625.7 465.2,651 491.3,640.6    "></polygon>
			<polygon class="st13" points="450.2,643 446.5,631.9 462.3,625.7    "></polygon>
			<polygon class="st19" points="469,670.6 491.3,640.6 521.3,646.9    "></polygon>
			<polygon class="st15" points="443.1,675.2 400,690.8 453.9,693.1    "></polygon>
			<polygon class="st15" points="548.9,632.2 541.9,664.3 521.3,646.9    "></polygon>
			<polygon class="st15" points="521.3,646.9 511.6,684.2 469,670.6    "></polygon>
			<polygon class="st19" points="521.3,646.9 532.8,677.7 515.4,669.4    "></polygon>
			<polygon class="st19" points="490,677.3 479.7,712.6 469,670.6    "></polygon>
			<polygon class="st19" points="568.7,619 555.4,652.2 548.9,632.2    "></polygon>
			<polygon class="st19" points="568.7,619 608.7,596.9 574.2,640.2    "></polygon>
			<polygon class="st28" points="592.5,577.5 608.7,596.9 568.7,619    "></polygon>
			<polygon class="st21" points="608.7,596.9 626,554.7 592.5,577.5    "></polygon>
			<polygon class="st27" points="626,554.7 622.7,498 592.5,577.5    "></polygon>
			<polygon class="st17" points="622.7,498 626,554.7 641.4,516.7    "></polygon>
			<polygon class="st24" points="440.3,628.8 410.2,623.6 431.7,624.6    "></polygon>
			<polygon class="st8" points="440.3,628.8 425.2,637 427,643.7    "></polygon>
			<polygon class="st15" points="425.2,637 400,640.2 427,643.7    "></polygon>
			<polygon class="st13" points="400,640.2 400,648.6 427,643.7    "></polygon>
			<polygon class="st37" points="410.2,623.6 425.2,637 411.9,638.7    "></polygon>
			<polygon class="st38" points="410.2,623.6 400,625.7 411.9,638.7    "></polygon>
			<polygon class="st37" points="400,625.7 400,640.2 406,632.2    "></polygon>
			<polygon class="st39" points="406,632.2 411.9,638.7 400,640.2    "></polygon>
			<polygon class="st39" points="425.2,637 427,626.5 410.2,623.6    "></polygon>
			<polygon class="st0" points="427,626.5 440.3,628.8 425.2,637    "></polygon>
		</g>
	</g>
</g>
</svg>